<?xml version="1.0" standalone="no"?>
<!DOCTYPE svg PUBLIC "-//W3C//DTD SVG 1.1//EN" "http://www.w3.org/Graphics/SVG/1.1/DTD/svg11.dtd" >
<svg xmlns="http://www.w3.org/2000/svg">
<metadata>Generated by IcoMoon</metadata>
<defs>
<font id="DarkIcons" horiz-adv-x="1024">
<font-face units-per-em="1024" ascent="960" descent="-64" />
<missing-glyph horiz-adv-x="1024" />
<glyph unicode="&#x20;" horiz-adv-x="512" d="" />
<glyph unicode="&#xe900;" glyph-name="User" d="M371.2 830.165c-80.128-10.923-145.963-65.024-169.941-139.691-6.281-18.482-9.906-39.772-9.906-61.908 0-55.383 22.693-105.466 59.287-141.457l0.027-0.027c38.869-38.741 83.968-58.368 139.435-60.715 45.781-1.963 86.741 9.045 123.733 33.195 42.221 27.505 73.139 69.323 86.043 118.442l0.314 1.408c5.76 21.632 7.339 60.032 3.371 82.816-14.464 82.944-78.592 148.352-162.347 165.461-16.555 3.413-53.76 4.693-70.016 2.475zM656.213 797.141c-2.723-0.725-6.082-1.368-9.508-1.795l-0.391-0.040c-4.693-0.597-8.619-2.133-9.131-3.499s2.859-8.405 7.552-15.701c19.328-30.123 34.645-68.053 40.832-101.12 4.693-25.003 4.181-80-0.981-104.107-7.211-33.792-20.096-65.749-36.736-91.307-8.363-12.843-9.301-16.299-5.291-19.627 4.309-3.541 30.592-5.333 49.92-3.371 42.496 4.309 79.36 21.419 108.501 50.389 21.632 21.504 35.499 45.696 44.245 77.269 5.333 19.2 5.291 65.152-0.085 84.523-6.656 21.448-15.681 40.123-27.036 57.11l0.497-0.79c-12.424 15.684-26.305 29.362-41.683 41.189l-0.557 0.411c-17.8 11.876-38.511 21.196-60.702 26.799l-1.378 0.295c-9.6 2.347-54.272 4.949-58.069 3.371zM662.187 387.627c0-0.341 8.533-5.504 18.944-11.477 55.595-31.829 92.373-75.563 108.373-128.853 3.968-13.355 4.651-18.987 5.376-46.421 1.067-39.253 0.128-38.059 25.813-32.811 50.731 10.325 88.533 31.275 104.491 57.856 27.691 46.123 10.539 102.827-38.869 128.64-31.275 16.341-78.208 26.453-148.011 31.957-20.949 1.664-76.117 2.475-76.117 1.109zM322.56 323.968c-112-6.443-187.947-31.531-218.667-72.235-25.045-33.237-24.747-79.787 0.725-113.579 28.885-38.272 92.885-61.141 199.168-71.083 30.891-2.901 160.256-2.901 191.147 0 52.992 4.949 93.056 12.544 125.312 23.765 31.061 10.752 50.133 22.229 67.157 40.448 17.707 18.901 24.576 36.651 24.576 63.275 0 32.256-12.203 56.619-38.443 76.629-37.888 28.928-99.627 45.696-192.256 52.181-22.101 1.536-134.741 1.963-158.72 0.597z" />
<glyph unicode="&#xe901;" glyph-name="User1" d="M485.12 787.627c-60.971-8.576-116.395-50.731-139.861-106.368-9.447-21.298-14.948-46.142-14.948-72.271 0-28.556 6.57-55.578 18.281-79.637l-0.475 1.081c9.6-20.267 19.115-33.536 35.712-50.048 20.332-20.767 45.859-36.37 74.479-44.711l1.211-0.302c15.118-4.68 32.498-7.375 50.508-7.375 50.168 0 95.452 20.914 127.607 54.5l0.061 0.064c21.743 21.804 37.857 49.232 45.972 79.912l0.279 1.24c3.925 14.677 4.437 19.755 4.437 44.715 0 24.875-0.512 30.080-4.395 44.459-17.008 66.624-69.575 117.654-135.812 132.176l-1.191 0.219c-14.507 3.157-47.317 4.395-61.867 2.347zM243.2 756.779c-61.301-12.237-108.85-59.672-121.091-119.931l-0.167-0.986c-6.144-30.421-0.811-70.101 13.099-97.92 25.544-49.628 76.414-82.984 135.075-82.984 2.809 0 5.601 0.077 8.373 0.228l-0.386-0.017c24.235 1.195 26.837 4.395 16.512 20.523-12.854 20.76-23.105 44.815-29.458 70.409l-0.366 1.74c-4.262 17.279-6.707 37.115-6.707 57.523 0 48.435 13.773 93.654 37.615 131.953l-0.615-1.060c9.515 15.701 10.155 17.963 5.717 19.84-4.779 2.005-48.213 2.517-57.6 0.683zM731.307 757.504l-7.253-1.536c-2.091-0.469-3.84-1.835-3.84-3.072s3.925-8.747 8.704-16.64c23.228-37.24 37-82.458 37-130.893 0-20.408-2.445-40.244-7.058-59.233l0.351 1.71c-6.719-27.334-16.97-51.39-30.45-73.24l0.626 1.091c-10.325-16.128-7.723-19.328 16.512-20.523 70.869-3.413 131.925 39.851 152.96 108.373 4.181 13.611 4.651 17.621 4.693 42.325 0.085 29.397-1.28 36.864-11.136 60.971-18.859 46.080-62.891 81.067-113.195 89.984-9.771 1.707-40.875 2.176-47.915 0.683zM212.48 393.173c-74.667-6.315-121.899-20.523-145.664-43.776-14.86-14.452-24.079-34.637-24.079-56.975 0-20.612 7.849-39.39 20.722-53.509l-0.056 0.063c15.829-17.28 38.4-29.013 72.917-37.803 28.587-7.253 31.957-5.632 29.995 14.379-1.237 12.544 1.323 38.059 5.419 54.101 3.328 13.056 15.147 38.229 24.576 52.267 14.677 21.845 43.691 47.488 72.917 64.427 6.827 3.968 12.373 7.552 12.373 7.979 0 1.237-50.603 0.427-69.12-1.152zM742.4 394.325c0-0.427 5.547-4.011 12.373-7.979 29.269-16.981 57.856-42.24 72.832-64.427 9.429-13.952 21.291-39.125 24.704-52.309 3.627-14.251 6.272-40.021 5.76-56.064-0.597-17.109 0.427-18.005 17.749-15.019 16.939 2.901 45.995 12.843 59.435 20.309 14.464 8.064 32.256 25.899 37.888 38.016 14.976 32.171 8.747 68.395-15.957 92.544-24.277 23.765-70.784 37.461-148.736 43.904-21.888 1.792-66.048 2.475-66.048 1.024zM443.733 337.749c-60.459-5.035-101.333-12.373-128.213-22.955-51.883-20.437-76.587-50.091-76.587-92.075 0-78.421 87.595-116.011 270.507-116.011 139.947 0 224.555 22.315 256.299 67.627 9.627 13.721 15.384 30.767 15.384 49.158 0 20.062-6.851 38.524-18.342 53.174l0.142-0.187c-23.979 30.123-71.381 48.427-151.083 58.283-19.371 2.389-147.755 4.651-168.107 2.987z" />
<glyph unicode="&#xe902;" glyph-name="Activity" d="M814.080 872.021c-25.984-5.589-52.693-24.619-66.133-47.147-35.2-58.88-4.224-134.656 62.293-152.576 5.547-1.493 16.896-2.645 26.027-2.688 76.203-0.213 125.269 80.341 90.88 149.163-10.492 18.999-25.855 34.184-44.429 44.171l-0.585 0.287c-13.459 7.024-29.394 11.144-46.292 11.144-7.711 0-15.221-0.858-22.441-2.484l0.68 0.129zM279.893 796.757c-28.544-4.437-39.296-6.784-54.016-11.691-32.811-10.923-54.357-23.851-77.824-46.677-24.661-23.979-41.259-52.352-51.584-88.149-10.453-36.224-9.984-25.856-10.709-229.547-0.427-128.213-0.043-191.957 1.237-203.008 5.035-43.648 17.28-79.232 37.675-109.525 9.387-13.952 33.536-38.101 47.488-47.488 30.293-20.395 65.877-32.64 109.525-37.675 11.093-1.28 74.368-1.664 203.008-1.195 164.779 0.597 188.501 1.024 200.405 3.499 24.446 4.638 46.216 12.136 66.423 22.288l-1.442-0.656c64.896 32.043 102.059 91.093 109.995 175.019 1.109 11.52 1.792 86.699 1.792 196.309v177.664l-10.667-1.579c-14.848-2.176-45.611-0.341-61.867 3.627-32.455 7.928-60.309 24.395-81.954 46.88l-0.051 0.053c-21.422 21.261-37.3 48.078-45.295 78.111l-0.273 1.207c-2.987 10.88-3.627 18.048-3.712 43.349l-0.128 30.293-186.88-0.213c-102.784-0.128-188.8-0.555-191.147-0.896zM678.912 536.064c10.285-5.685 17.134-16.467 17.134-28.849 0-5.465-1.334-10.618-3.695-15.152l0.086 0.182c-5.205-10.112-126.208-165.845-131.584-169.387-3.122-1.833-6.737-3.301-10.568-4.213l-0.269-0.054c-13.611-3.072-17.749-0.64-83.627 48.853-34.048 25.515-62.507 46.421-63.275 46.421s-26.197-31.872-56.448-70.827c-30.293-38.912-56.747-71.979-58.795-73.429-4.516-3.161-10.123-5.051-16.172-5.051-3.363 0-6.59 0.584-9.584 1.657l0.198-0.062c-10.155 3.072-14.805 6.528-19.84 14.763-4.011 6.571-4.821 20.779-1.579 27.904 1.109 2.389 31.616 42.923 67.84 90.112 57.301 74.581 66.859 86.272 73.515 89.6 17.792 9.003 20.864 7.381 90.624-47.531 14.989-12.183 35-27.779 55.255-43.070l6.227-4.504c0.555-0.043 25.088 31.104 54.485 69.205 39.083 50.56 55.125 70.101 59.563 72.448 7.381 3.883 23.851 4.437 30.507 0.981z" />
<glyph unicode="&#xe903;" glyph-name="Add-User" d="M367.787 849.749c-100.48-17.792-173.312-105.771-173.739-209.749-0.256-59.435 20.736-111.275 61.952-152.875 30.635-30.891 65.664-49.835 109.227-59.008 19.968-4.181 60.245-4.181 80.213 0 82.261 17.323 144.256 76.544 164.736 157.355 4.416 15.975 6.954 34.318 6.954 53.254 0 15.398-1.678 30.405-4.861 44.847l0.254-1.376c-17.024 85.931-85.12 152.875-170.411 167.509-19.627 3.371-55.381 3.413-74.325 0.043zM793.429 635.733c-3.371-1.749-8.533-5.931-11.435-9.259-8.363-9.515-10.581-20.011-10.581-49.92v-26.155l-29.44-0.043c-24.875-0.043-30.507-0.512-36.267-3.157-12.279-5.378-21.003-16.818-22.429-30.43l-0.014-0.162c-0.205-1.462-0.322-3.151-0.322-4.868 0-9.593 3.655-18.331 9.649-24.9l-0.026 0.029c10.709-11.861 15.659-13.184 49.408-13.227l29.44-0.043v-26.155c0-29.909 2.219-40.405 10.581-49.92 6.991-8.147 17.3-13.277 28.806-13.277 15.791 0 29.326 9.66 35.017 23.393l0.092 0.251c2.389 5.376 3.157 13.013 3.669 36.267l0.683 29.44 29.269 0.043c33.536 0.043 38.528 1.365 49.195 13.227 6.148 6.557 9.925 15.403 9.925 25.131s-3.777 18.573-9.944 25.151l0.019-0.020c-10.667 11.861-15.659 13.184-49.195 13.227l-29.269 0.043-0.683 29.44c-0.725 31.957-2.219 38.357-11.264 48-10.368 11.051-31.787 14.848-44.885 7.893zM329.387 317.184c-133.461-9.173-207.957-37.931-233.685-90.197-13.44-27.307-13.44-65.195 0-91.52 19.797-38.869 66.944-65.323 142.379-79.915 86.187-16.64 234.155-17.451 326.485-1.707 74.197 12.629 125.525 38.571 146.261 73.984 23.296 39.808 17.792 90.581-13.312 122.752-36.053 37.248-102.059 58.112-208.555 65.963-21.12 1.536-139.392 2.005-159.573 0.64z" />
<glyph unicode="&#xe904;" glyph-name="Arrow---Down-2" d="M453.12 660.181c-54.144-2.176-95.787-6.827-126.677-14.251-25.472-6.059-35.84-11.136-48.299-23.637-15.36-15.403-23.68-38.016-21.547-58.496 2.176-20.821 18.005-60.075 39.339-97.621 40.235-70.912 95.616-145.579 141.483-190.933 20.395-20.181 27.776-26.325 37.205-31.019 29.141-14.592 59.477-12.117 85.419 6.997 15.232 11.179 48.981 45.696 69.035 70.485 72.704 89.984 134.357 198.784 138.368 244.053 2.56 29.141-15.275 59.008-42.965 71.808-14.123 6.571-51.115 14.421-82.773 17.621-50.603 5.12-131.755 7.296-188.587 4.992z" />
<glyph unicode="&#xe905;" glyph-name="Arrow---Down-3" d="M498.645 828.416c-4.808-2.667-8.802-6.238-11.874-10.517l-0.073-0.107-4.565-6.869-0.469-176.341-0.427-176.341h-88.789c-76.245 0-89.643-0.384-95.104-2.645-15.659-6.528-23.211-21.632-18.517-36.949 1.877-6.016 191.104-316.032 208-340.736 5.403-8.266 14.613-13.651 25.082-13.651 4.837 0 9.405 1.15 13.447 3.191l-0.171-0.078c8.875 4.011-1.621-12.203 119.979 185.216 53.76 87.296 98.816 162.133 100.096 166.315 4.437 14.592-3.584 30.421-18.603 36.693-5.461 2.261-18.731 2.645-95.147 2.645h-88.789v174.379c0 174.251 0 174.421-3.627 181.888-4.987 10.153-15.253 17.017-27.122 17.017-4.853 0-9.439-1.148-13.499-3.187l0.173 0.079z" />
<glyph unicode="&#xe906;" glyph-name="Arrow---Down-Circle" d="M474.453 873.003c-118.784-11.904-222.507-67.627-295.552-158.763-58.214-72.176-93.445-165.008-93.445-266.068 0-117.801 47.87-224.422 125.218-301.471l0.014-0.013c184.704-184.747 488.021-162.005 644.181 48.299 52.231 69.839 83.631 157.898 83.631 253.292 0 72.291-18.033 140.37-49.845 199.984l1.115-2.289c-56.064 106.795-158.421 187.349-274.091 215.765-41.984 10.283-102.485 15.147-141.227 11.264zM372.907 539.989c5.76-1.536 17.024-12.032 72.96-67.797l66.133-65.963 66.133 65.92c71.040 70.784 71.68 71.296 86.357 68.992 15.325-2.476 26.886-15.609 26.886-31.443 0-6.495-1.945-12.535-5.285-17.571l0.073 0.118c-2.773-4.139-39.467-41.856-81.493-83.797-64.981-64.768-77.483-76.501-83.285-78.037-2.685-0.826-5.868-1.486-9.14-1.855l-0.247-0.023c-1.408 0-5.632 0.853-9.387 1.877-5.803 1.536-18.304 13.269-83.285 78.037-42.027 41.941-78.72 79.659-81.493 83.797-3.175 4.128-5.088 9.371-5.088 15.060 0 0.571 0.019 1.138 0.057 1.699l-0.004-0.076c0 14.976 7.125 25.899 19.925 30.464 8.021 2.859 11.477 2.987 20.181 0.597z" />
<glyph unicode="&#xe907;" glyph-name="Arrow---Down-Square" d="M302.933 873.557c-37.504-4.651-57.003-9.472-80.725-19.925-64.555-28.416-109.397-82.901-127.659-155.136-9.045-35.84-9.131-38.059-9.173-248.448-0.043-122.453 0.597-201.216 1.707-211.627 2.133-19.84 9.941-52.565 16.896-70.613 31.36-81.28 99.925-133.845 188.715-144.597 10.283-1.237 82.304-1.877 218.795-1.877 170.965 0 206.549 0.427 222.933 2.56 78.976 10.368 142.123 54.443 176.853 123.52 11.605 23.125 22.016 60.331 25.6 91.605 2.389 20.779 2.432 396.117 0.043 418.56-3.496 26.43-9.427 50.274-17.696 72.994l0.758-2.381c-29.483 76.459-90.411 126.293-174.165 142.421-15.104 2.901-30.507 3.115-226.987 3.371-115.925 0.128-213.077-0.043-215.893-0.427zM529.28 648.491c3.413-2.176 8.021-6.912 10.24-10.496l4.053-6.528 0.853-139.52 0.853-139.563 53.76 53.888c29.568 29.653 55.936 55.083 58.624 56.491 7.68 4.053 21.632 3.456 30.080-1.28 9.394-5.523 15.6-15.581 15.6-27.087 0-6.402-1.921-12.356-5.218-17.316l0.072 0.115c-2.688-4.181-42.069-44.587-87.467-89.813-84.693-84.352-86.443-85.888-98.731-85.888s-14.037 1.536-98.731 85.888c-45.397 45.227-84.779 85.632-87.467 89.813-3.229 4.842-5.152 10.795-5.152 17.197 0 11.52 6.228 21.584 15.501 27.011l0.148 0.080c8.149 4.608 22.016 5.504 29.013 1.963 2.304-1.195 28.928-26.837 59.221-57.003l55.040-54.869 0.043 135.68c0 75.264 0.725 138.667 1.579 142.379 3.43 13.956 15.835 24.146 30.62 24.146 6.509 0 12.557-1.975 17.577-5.359l-0.112 0.071z" />
<glyph unicode="&#xe908;" glyph-name="Arrow---Down" d="M494.976 829.269c-25.045-6.741-44.331-28.715-46.976-53.589-1.493-13.952 13.483-176.512 17.067-184.917 4.096-9.771 16.725-22.357 26.923-26.837 12.117-5.291 27.904-5.291 40.021 0 10.155 4.48 22.827 17.024 26.965 26.837 3.541 8.405 18.56 170.923 17.067 184.917-2.731 25.301-23.125 48.043-48.427 54.016-4.668 1.3-10.028 2.048-15.563 2.048-6.088 0-11.965-0.904-17.503-2.586l0.426 0.111zM448 496.469c-64.512-3.84-95.488-7.595-125.44-15.189-21.675-5.504-32-10.795-43.861-22.613-13.781-13.781-22.699-34.645-22.699-53.248 0-9.429 6.357-33.792 13.483-51.712 21.973-55.339 87.381-157.483 139.605-218.155 21.973-25.472 54.955-56.875 65.237-62.080 10.9-5.839 23.845-9.27 37.591-9.27 14.034 0 27.233 3.575 38.735 9.865l-0.422-0.211c10.197 5.504 49.067 42.709 67.285 64.384 47.573 56.661 107.221 148.651 130.56 201.387 16.981 38.4 22.528 63.019 18.219 81.237-5.035 21.419-20.181 41.557-38.571 51.413-17.152 9.216-59.819 17.493-112.469 21.845-21.76 1.792-147.115 3.541-167.253 2.347z" />
<glyph unicode="&#xe909;" glyph-name="Arrow---Left-2" d="M610.987 699.776c-46.336-12.757-117.717-53.589-195.413-111.787-51.883-38.912-97.195-82.048-107.52-102.485-5.792-10.772-9.195-23.57-9.195-37.163 0-18.13 6.053-34.846 16.249-48.237l-0.143 0.195c16.768-22.784 56.149-59.221 98.304-90.923 85.333-64.128 176.384-113.28 216.491-116.821 27.947-2.475 58.539 15.061 71.339 40.917 7.083 14.208 15.573 54.101 18.987 89.088 5.675 57.813 6.656 178.517 1.92 232.107-4.224 47.275-12.16 88.32-20.565 106.325-11.648 24.917-40.917 43.307-68.181 42.88-4.267-0.085-14.293-1.92-22.272-4.096z" />
<glyph unicode="&#xe90a;" glyph-name="Arrow---Left-3" d="M476.075 678.741c-317.224-187.277-427.112-255.826-536.703-324.804l199.935 117.444c-5.888-4.139-11.221-15.232-11.221-23.381 0-11.307 5.461-19.712 18.176-27.904 50.731-32.768 330.667-203.52 336.64-205.355 6.485-1.963 8.832-1.963 16.256 0.213 9.344 2.731 18.219 10.453 21.291 18.56 1.195 3.157 1.792 35.328 1.792 94.293v89.472h174.379c174.251 0 174.421 0 181.888 3.627 10.143 5.003 16.997 15.271 16.997 27.139 0 10.523-5.388 19.788-13.557 25.185l-0.113 0.070-6.912 4.565-352.683 0.896v89.472c0 59.051-0.597 91.093-1.835 94.251-3.42 7.182-8.774 12.975-15.392 16.841l-0.182 0.098c-6.528 3.371-21.589 3.029-28.757-0.683z" />
<glyph unicode="&#xe90b;" glyph-name="Arrow---Left-Circle" d="M474.453 872.875c-159.061-14.549-297.301-116.523-357.291-263.595-93.44-229.077 27.221-489.259 262.827-566.784 181.632-59.776 381.269 10.112 487.893 170.795 129.963 195.84 75.691 460.245-121.173 590.592-66.316 44.224-147.84 70.571-235.518 70.571-12.933 0-25.732-0.573-38.373-1.696l1.635 0.117zM589.611 623.317c12.629-7.168 18.347-21.12 14.549-35.584-1.749-6.613-9.344-14.891-67.925-73.6l-66.005-66.133 66.005-66.133c58.581-58.709 66.176-66.987 67.925-73.6 0.753-2.558 1.186-5.498 1.186-8.538 0-17.296-14.021-31.317-31.317-31.317-0.192 0-0.384 0.002-0.575 0.005h0.029c-5.012 0.079-9.752 1.155-14.060 3.036l0.236-0.092c-6.784 3.413-156.971 152.448-162.389 161.109-4.949 7.936-4.949 23.125 0 31.061 4.949 7.893 153.344 155.648 160.811 160.085 8.32 4.949 22.443 4.821 31.531-0.299z" />
<glyph unicode="&#xe90c;" glyph-name="Arrow---Left-Square" d="M303.829 872.832c-12.387-1.407-23.022-3.162-33.481-5.394l2.249 0.402c-104.661-22.443-173.568-97.536-185.515-202.24-1.365-12.16-1.749-77.952-1.323-228.693 0.555-208.939 0.64-211.84 4.224-227.456 15.36-66.773 47.275-114.56 98.603-147.584 31.872-20.48 71.168-33.792 114.432-38.741 20.779-2.389 396.117-2.432 418.56-0.043 26.44 3.504 50.283 9.42 73.015 17.656l-2.402-0.76c80.213 30.933 132.48 98.347 143.915 185.6 2.133 16.384 2.56 51.968 2.56 222.933 0 136.491-0.64 208.512-1.877 218.795-14.037 115.584-97.664 194.048-219.221 205.568-22.229 2.133-391.723 2.048-413.739-0.043zM514.048 635.307c13.483-7.552 19.84-28.16 12.8-41.429-1.451-2.773-26.923-29.269-56.576-58.837l-53.888-53.76 139.563-0.853c152.149-0.939 144.213-0.384 153.387-10.496 6.101-6.741 8.021-12.117 8.021-22.4 0-8.149-0.853-11.093-4.992-16.981-2.731-3.925-7.68-8.704-10.965-10.624-5.803-3.413-8.704-3.499-145.451-4.352l-139.563-0.853 53.888-53.76c29.653-29.568 55.083-55.936 56.491-58.624 7.083-13.355 0.725-34.133-12.715-41.643-8.192-4.651-21.845-5.12-29.867-1.109-6.741 3.413-171.051 166.827-174.805 173.909-3.541 6.656-3.541 22.4 0 29.013 3.541 6.699 165.803 168.448 173.611 173.099 8.277 4.907 22.059 4.779 31.061-0.299z" />
<glyph unicode="&#xe90d;" glyph-name="Arrow---Left" d="M446.293 699.904c-17.92-4.821-38.613-13.013-59.989-23.765-52.821-26.539-133.589-80.512-184.917-123.648-23.723-19.883-58.667-56.405-63.915-66.731-5.847-10.912-9.281-23.872-9.281-37.634 0-14.050 3.58-27.263 9.877-38.778l-0.211 0.422c5.888-10.88 43.392-49.664 66.901-69.205 35.413-29.397 78.677-60.117 122.069-86.656 77.952-47.701 128.853-67.072 158.037-60.203 28.542 6.585 50.784 28.145 58.242 55.773l0.126 0.547c13.909 49.323 19.328 117.547 17.707 222.72-1.195 77.867-3.669 109.227-11.691 147.627-7.936 38.187-16 54.144-34.176 67.499-20.736 15.275-42.581 19.115-68.779 12.032zM812.373 510.976c-7.979-0.768-45.056-4.096-82.389-7.381-75.435-6.656-77.995-7.211-91.179-20.096-9.21-9.127-14.913-21.781-14.913-35.766 0-7.133 1.483-13.92 4.159-20.068l-0.126 0.325c4.48-10.155 17.024-22.827 26.837-26.965 8.32-3.499 170.837-18.56 184.917-17.109 20.395 2.133 41.429 17.835 50.859 38.101 3.968 8.448 4.565 11.989 4.565 25.984 0 13.952-0.64 17.536-4.523 25.899-8.356 18.098-24.154 31.546-43.36 36.549l-0.458 0.101c-10.581 2.475-13.056 2.517-34.389 0.427z" />
<glyph unicode="&#xe90e;" glyph-name="Arrow---Right-2" d="M373.248 702.251c-19.755-4.992-42.027-22.443-50.347-39.595-4.352-8.875-10.795-33.493-14.635-55.936-11.136-64.811-12.843-208.768-3.499-291.84 3.456-30.464 11.392-66.219 17.707-79.744 6.016-12.843 21.163-28.757 32.512-34.219 12.843-6.144 28.672-9.429 40.235-8.363 20.992 1.963 60.331 17.621 98.091 39.083 71.296 40.491 146.048 95.829 191.445 141.781 20.181 20.395 26.325 27.776 31.019 37.205 14.507 28.971 12.117 59.477-6.741 85.077-9.984 13.568-42.027 45.739-62.208 62.421-42.523 34.709-89.901 67.966-139.62 97.715l-5.447 3.021c-60.544 34.816-104.064 49.493-128.512 43.392z" />
<glyph unicode="&#xe90f;" glyph-name="Arrow---Right-3" d="M519.68 679.467c-7.124-3.748-12.704-9.618-15.994-16.76l-0.092-0.222c-1.237-3.157-1.835-35.2-1.835-94.251v-89.472l-352.683-0.896-6.912-4.565c-8.281-5.467-13.669-14.732-13.669-25.255 0-11.869 6.854-22.136 16.821-27.061l0.176-0.079c7.467-3.627 7.637-3.627 181.888-3.627h174.379v-89.472c0-59.093 0.597-91.136 1.835-94.293 4.816-11.72 16.143-19.822 29.363-19.822 2.988 0 5.88 0.414 8.62 1.188l-0.223-0.054c5.76 1.749 285.227 172.288 336.384 205.269 12.715 8.192 18.176 16.597 18.176 27.904 0 8.149-5.333 19.243-11.221 23.381 61.766-34.053 5.595 1.132-50.708 36.126l-121.452 70.327-167.253 102.997-10.24 0.512c-0.97 0.089-2.098 0.14-3.238 0.14-4.34 0-8.508-0.739-12.384-2.098l0.262 0.080z" />
<glyph unicode="&#xe910;" glyph-name="Arrow---Right-Circle" d="M474.453 873.003c-132.309-13.227-245.717-81.024-318.336-190.336-44.214-66.107-70.56-147.421-70.56-234.888 0-72.962 18.332-141.643 50.642-201.687l-1.117 2.271c88.576-165.931 274.389-254.848 457.856-219.136 86.923 17.118 162.163 58.802 220.347 117.435l0.026 0.027c77.362 76.998 125.237 183.564 125.237 301.312s-47.874 224.314-125.22 301.296l-0.016 0.016c-62.284 62.488-143.864 105.709-235.043 119.969l-2.397 0.309c-25.088 3.925-78.293 5.717-101.419 3.413zM464.725 624.427c6.485-3.243 156.8-152.533 162.005-160.896 4.949-7.936 4.949-23.125 0-31.061-5.12-8.235-155.477-157.653-161.664-160.683-8.405-4.139-14.251-4.907-21.803-2.859-18.347 4.864-28.16 21.333-23.424 39.296 1.749 6.699 9.088 14.635 67.925 73.643l66.005 66.133-66.005 66.133c-58.837 59.008-66.176 66.944-67.925 73.643-3.712 14.123 2.645 29.397 14.933 35.883 7.936 4.224 22.4 4.608 29.952 0.768z" />
<glyph unicode="&#xe911;" glyph-name="Arrow---Right-Square" d="M303.829 872.832c-40.747-3.925-83.584-18.261-114.688-38.315-52.181-33.707-83.669-80.683-99.157-147.968-3.584-15.616-3.669-18.517-4.224-227.456-0.427-150.741-0.043-216.533 1.323-228.693 11.477-100.693 76.373-175.061 174.421-199.851 35.84-9.088 38.016-9.131 248.789-9.173 226.091 0 225.28-0.043 271.573 15.317 54.187 17.963 96.512 51.499 124.16 98.347 15.147 25.643 26.837 61.269 30.763 93.653 1.237 10.283 1.877 82.304 1.877 218.795 0 220.928-0.171 225.28-9.472 257.579-6.005 21.045-13.768 39.354-23.445 56.436l0.661-1.268c-38.741 65.237-104.363 104.277-189.355 112.683-21.12 2.091-391.381 2.005-413.227-0.085zM539.819 636.416c6.741-3.413 171.051-166.827 174.805-173.909 1.73-4.141 2.734-8.953 2.734-13.999 0-0.178-0.001-0.357-0.004-0.535v0.027c0.002-0.151 0.003-0.329 0.003-0.508 0-5.046-1.005-9.858-2.825-14.246l0.091 0.247c-3.755-7.083-168.064-170.496-174.805-173.909-8.021-4.011-21.675-3.541-29.867 1.109-13.013 7.296-19.797 27.989-13.397 40.619 1.195 2.304 26.837 28.928 57.003 59.221l54.869 55.040h-136.533c-88.661 0-138.752 0.64-142.891 1.792-13.867 3.84-22.357 15.531-22.357 30.805 0 11.691 4.608 20.139 14.72 26.837l6.912 4.565 279.339 1.707-53.888 53.76c-29.653 29.568-55.083 55.936-56.491 58.624-4.053 7.68-3.456 21.632 1.28 30.037 5.846 9.423 16.134 15.604 27.865 15.604 4.868 0 9.488-1.064 13.639-2.973l-0.203 0.084z" />
<glyph unicode="&#xe912;" glyph-name="Arrow---Right" d="M536.747 701.653c-17.237-4.224-35.584-16.896-45.013-31.189-19.243-28.971-29.227-105.984-29.227-224.768 0-92.373 5.888-153.685 18.859-197.632 5.973-20.139 20.693-38.144 38.699-47.275 9.557-4.864 24.96-8.789 34.517-8.789 9.429 0 33.792 6.357 51.712 13.483 55.339 21.973 157.483 87.381 218.155 139.605 25.472 21.973 56.875 54.955 62.080 65.237 5.839 10.9 9.27 23.845 9.27 37.591 0 14.034-3.575 27.233-9.865 38.735l0.211-0.422c-5.845 10.837-43.349 49.621-66.901 69.248-52.437 43.563-123.349 90.368-180.949 119.381-50.816 25.557-77.525 32.597-101.547 26.795zM175.659 510.507c-17.579-4.736-34.005-18.987-42.24-36.608-3.883-8.32-4.523-11.947-4.565-25.941 0-14.891 0.469-17.195 5.547-27.477 9.813-19.968 29.44-34.304 49.92-36.48 13.952-1.493 176.512 13.483 184.917 17.067 5.647 2.906 10.504 6.374 14.791 10.437l-0.029-0.027c25.899 24.192 19.669 65.536-12.288 81.877-7.424 3.797-14.805 4.736-94.933 11.819-9.995 1.339-41.092 4.027-72.266 6.441l-17.846 1.111c-4.164-0.504-7.894-1.282-11.503-2.343l0.495 0.125z" />
<glyph unicode="&#xe913;" glyph-name="Arrow---Up-2" d="M494.933 659.456c-14.208-2.773-27.819-11.093-47.872-29.269-77.739-70.357-185.173-239.531-190.507-299.947-2.475-27.947 15.061-58.539 40.917-71.339 14.208-7.083 54.101-15.573 89.088-18.987 57.813-5.675 178.517-6.656 232.107-1.92 47.275 4.224 88.32 12.16 106.325 20.565 12.672 5.931 28.672 21.12 34.091 32.427 6.144 12.843 9.429 28.672 8.363 40.235-1.963 21.12-17.621 60.331-39.381 98.603-40.277 70.912-95.616 145.579-141.525 190.976-21.077 20.821-27.605 26.24-37.632 31.147-10.878 5.798-23.789 9.203-37.496 9.203-5.834 0-11.524-0.617-17.009-1.789l0.531 0.095z" />
<glyph unicode="&#xe914;" glyph-name="Arrow---Up-3" d="M498.731 828.373c-4.893-2.659-8.96-6.249-12.088-10.563l-0.072-0.104c-16.768-24.491-205.909-334.379-207.744-340.352-0.72-2.518-1.134-5.409-1.134-8.397 0-13.219 8.102-24.546 19.611-29.286l0.211-0.077c3.157-1.237 35.2-1.835 94.293-1.835h89.472v-174.379c0-174.251 0-174.421 3.627-181.888 5.043-10.062 15.275-16.849 27.093-16.849s22.051 6.786 27.014 16.675l0.079 0.174c3.627 7.467 3.627 7.637 3.627 181.888v174.379h89.472c59.093 0 91.136 0.597 94.293 1.835 11.72 4.816 19.822 16.143 19.822 29.363 0 2.988-0.414 5.88-1.188 8.62l0.054-0.223c-1.749 5.76-172.672 285.867-205.056 336.043-11.307 17.579-25.643 22.784-41.387 14.976z" />
<glyph unicode="&#xe915;" glyph-name="Arrow---Up-Circle" d="M474.453 873.003c-50.151-4.85-96.204-17.441-138.646-36.611l2.753 1.112c-95.269-43.448-170.188-117.746-213.335-209.89l-1.108-2.633c-87.339-191.36-22.699-416.128 153.173-532.864 168.533-111.829 392.661-89.045 536.021 54.528 74.076 73.297 121.088 173.818 124.782 285.308l0.018 0.687c5.803 156.587-74.197 302.379-210.091 382.805-43.784 26.461-95.138 45.49-149.999 53.853l-2.321 0.291c-24.917 3.925-78.208 5.717-101.248 3.413zM528.213 562.261c7.765-4.736 157.056-155.264 160.213-161.536 5.675-11.136 2.219-30.165-6.912-38.4-5.784-4.563-13.009-7.544-20.896-8.183l-0.139-0.009c-11.904 0-17.024 4.352-83.2 70.443l-65.28 65.237-65.28-65.237c-66.176-66.091-71.296-70.443-83.2-70.443-8.026 0.648-15.251 3.629-21.118 8.255l0.083-0.063c-9.131 8.235-12.544 27.221-6.912 38.4 2.731 5.461 148.992 153.6 158.293 160.299 5.086 3.498 11.378 5.587 18.158 5.587 5.962 0 11.547-1.615 16.34-4.432l-0.152 0.082z" />
<glyph unicode="&#xe916;" glyph-name="Arrow---Up-Square" d="M302.080 873.557c-78.208-8.149-138.027-42.837-176.213-102.144-20.48-31.829-33.792-71.168-38.741-114.432-1.109-9.6-1.749-88.021-1.749-210.688 0-157.696 0.469-198.869 2.432-213.333 7.851-59.093 30.421-107.563 67.371-144.768 25.088-25.216 54.869-43.093 91.179-54.741 36.139-11.563 22.869-10.965 255.403-11.691 150.357-0.427 215.68-0.043 227.84 1.323 114.944 13.099 194.048 95.275 207.232 215.339 2.432 22.187 2.475 397.312 0.043 418.56-3.627 31.787-13.995 68.523-26.112 92.544-27.139 53.872-74.133 94.403-131.13 112.427l-1.564 0.427c-37.163 11.819-25.643 11.307-259.243 11.563-115.925 0.128-213.461-0.043-216.747-0.384zM527.36 650.155c6.443-3.371 169.899-168.064 173.056-174.336 4.224-8.405 3.541-21.888-1.493-30.507-4.395-7.467-18.133-16.085-25.557-16.085-13.013 0.043-15.445 2.005-73.003 59.392l-55.851 55.637-0.469-139.861c-0.512-154.88 0.213-145.067-11.563-154.965-14.805-12.459-36.267-8.96-47.275 7.637l-4.779 7.211-0.939 279.979-55.851-55.637c-46.891-46.763-56.96-55.979-62.677-57.515-9.941-2.688-12.843-2.389-22.741 2.56-10.548 5.041-17.706 15.625-17.706 27.881 0 6.442 1.977 12.422 5.358 17.366l-0.068-0.106c2.688 4.181 42.069 44.587 87.467 89.856 61.312 61.099 83.84 82.517 87.637 83.328 2.816 0.597 5.888 1.365 6.827 1.707 2.901 1.024 15.104-1.195 19.627-3.541z" />
<glyph unicode="&#xe917;" glyph-name="Arrow---Up" d="M495.403 830.208c-18.859-3.712-32.683-13.611-63.659-45.397-78.037-80.043-170.411-232.533-175.232-289.195-2.389-28.203 14.976-59.435 40.107-72.192 15.147-7.68 54.4-16.299 89.941-19.755 71.808-6.997 186.496-6.955 252.587 0.085 36.864 3.925 74.581 12.416 88.576 19.968 11.221 6.059 25.472 20.437 30.891 31.104 5.461 10.752 9.387 25.771 9.387 35.755 0 9.515-6.4 33.835-13.653 52.181-21.76 54.741-87.509 157.355-139.435 217.685-25.173 29.184-55.381 57.387-67.627 63.147-10.485 5.16-22.823 8.179-35.866 8.179-5.667 0-11.201-0.57-16.548-1.655l0.532 0.090zM490.667 331.349c-9.813-4.608-21.632-16.683-25.643-26.155-3.499-8.277-18.517-170.88-17.109-184.875 2.133-20.395 17.835-41.429 38.101-50.859 8.448-3.968 11.989-4.565 25.984-4.565s17.536 0.597 25.984 4.565c20.267 9.429 35.968 30.464 38.059 50.859 1.451 13.952-13.568 176.597-17.067 184.875-4.011 9.472-15.829 21.547-25.643 26.155-6.571 3.072-11.477 3.968-21.333 3.968s-14.763-0.896-21.333-3.968z" />
<glyph unicode="&#xe918;" glyph-name="Bag-2" d="M488.96 872.875c-28.459-3.84-65.109-18.261-86.187-33.963-14.507-10.795-34.688-31.445-44.373-45.483-18.005-26.027-31.147-61.525-33.408-90.112-1.621-21.035-0.725-19.797-14.848-19.797-27.733-0.043-62.464-8.875-88.917-22.613-58.069-30.208-98.859-86.315-111.531-153.259-2.731-14.635-3.029-28.843-3.029-155.221s0.299-140.587 3.029-155.221c11.221-59.307 44.075-109.483 92.757-141.653 24.16-16.235 52.895-27.672 83.865-32.247l1.127-0.137c18.261-2.56 430.848-2.56 449.109 0 32.028 4.682 60.707 16.075 85.568 32.727l-0.746-0.471c48.939 32.341 81.664 82.389 93.013 142.464 2.645 13.781 2.944 30.251 2.944 154.539 0 153.301 0.085 151.808-10.923 185.557-20.736 63.445-70.741 114.432-132.608 135.168-17.754 5.973-38.236 9.717-59.498 10.36l-0.321 0.008c-13.696 0-14.251 0.512-14.251 12.757 0 10.368-4.48 32.725-9.685 48.256-21.099 62.026-71.528 108.944-134.321 124.733l-1.316 0.28c-13.275 2.752-28.53 4.327-44.153 4.327-7.499 0-14.913-0.363-22.226-1.072l0.929 0.073zM539.435 807.381c50.133-10.624 90.453-55.808 97.067-108.757l1.792-14.635c0-0.256-56.832-0.469-126.293-0.469h-126.336l1.067 9.813c6.059 56.832 43.733 100.779 97.621 113.835 12.757 3.115 40.96 3.2 55.083 0.213zM363.179 629.931c6.799-3.964 12.153-9.757 15.474-16.708l0.099-0.231c1.067-2.773 1.835-18.432 1.835-37.163 0-28.885-0.384-33.109-3.371-38.997-5.090-10.026-15.325-16.777-27.137-16.777-11.946 0-22.279 6.905-27.226 16.941l-0.079 0.178c-3.285 6.784-3.627 10.368-3.627 38.571 0 24.192 0.597 32.469 2.645 37.419 2.837 7.405 8.24 13.292 15.096 16.688l0.179 0.080c6.784 2.987 20.352 2.987 26.112 0zM688.427 626.603c11.221-8.533 12.075-11.819 12.715-47.744 0.555-31.573 0.469-32.299-3.797-40.96-7.595-15.403-22.4-21.589-37.632-15.787-17.835 6.827-22.187 19.328-21.12 60.629 0.64 24.277 1.024 27.179 4.864 33.92 2.847 4.67 6.532 8.546 10.881 11.523l0.127 0.082c4.51 2.523 9.895 4.008 15.628 4.008 6.85 0 13.205-2.121 18.443-5.743l-0.108 0.071z" />
<glyph unicode="&#xe919;" glyph-name="Bag" d="M483.84 872.832c-24.211-3.597-46.046-10.679-66.092-20.79l1.239 0.566c-69.547-34.133-113.749-99.243-119.68-176.341l-1.109-14.507-11.947-1.109c-15.244-0.89-29.346-4.986-41.901-11.618l0.557 0.268c-38.187-18.219-63.573-53.76-75.989-106.539-1.792-7.552-11.477-78.208-21.547-157.056-18.261-142.805-18.304-143.488-18.347-180.053 0-31.317 0.555-39.211 3.712-53.76 15.872-73.173 59.477-111.829 142.891-126.677 15.787-2.816 33.536-3.029 233.813-3.029 238.507 0 225.237-0.512 261.973 10.496 84.309 25.301 128.171 93.312 124.075 192.597-0.597 14.293-8.192 81.152-18.859 166.4-19.157 152.789-19.883 156.885-33.749 187.563-13.141 29.141-36.864 55.68-60.8 68.096-13.198 7.521-28.823 12.363-45.481 13.383l-0.301 0.015-13.909 1.067 1.579 6.997c4.053 18.005-7.68 63.531-24.277 94.507-29.013 54.059-83.755 94.251-145.877 107.093-16.469 3.413-53.504 4.693-69.973 2.432zM539.861 815.915c62.763-12.032 113.323-67.883 118.101-130.475 0.555-7.168 1.365-15.531 1.835-18.56l0.853-5.547h-299.349l1.109 16.725c4.011 61.696 40.619 110.933 98.389 132.395 20.949 7.808 54.699 10.112 79.061 5.461zM407.467 513.493c10.923-6.315 17.451-18.731 17.451-33.067 0-9.173-0.853-12.629-5.077-19.968-17.152-29.909-61.653-22.101-68.011 11.904-6.272 33.579 26.709 57.941 55.637 41.131zM644.267 517.803c9.387-2.389 20.821-12.032 24.96-21.077 1.924-4.834 3.039-10.436 3.039-16.299s-1.115-11.464-3.146-16.605l0.107 0.306c-5.37-10.263-14.542-17.919-25.6-21.173l-0.299-0.075c-2.53-0.626-5.435-0.985-8.423-0.985-14.215 0-26.534 8.121-32.569 19.977l-0.096 0.207c-2.915 5.311-4.629 11.637-4.629 18.364 0 16.929 10.858 31.321 25.989 36.594l0.272 0.082c8.32 2.987 10.923 3.072 20.395 0.683z" />
<glyph unicode="&#xe91a;" glyph-name="Bookmark" d="M342.187 872.789c-81.92-8.021-138.368-42.325-160.171-97.365-11.349-28.587-10.496 1.536-10.496-378.624v-343.893l3.669-6.827c8.405-15.488 21.717-23.765 38.485-23.851l11.435-0.043 286.933 143.317 286.72-143.317 11.52 0.085c16.853 0.085 30.123 8.32 38.528 23.808l3.669 6.827 0.512 335.36c0.341 239.872-0.043 339.243-1.408 349.013-2.56 18.176-10.496 41.728-18.987 56.021-19.413 32.853-58.112 59.52-102.997 70.912-37.76 9.6-33.024 9.387-209.067 9.728-89.643 0.213-169.899-0.341-178.347-1.152zM683.989 614.315c26.069-10.88 28.117-47.659 3.371-60.885l-7.253-3.883h-167.253c-91.989 0-169.344 0.597-171.904 1.323-6.784 1.877-16.768 11.264-20.309 19.157-1.919 4.038-3.039 8.774-3.039 13.772 0 13.274 7.903 24.702 19.26 29.835l0.206 0.083c6.485 3.029 15.104 3.157 173.696 3.2 146.816 0.043 167.637-0.256 173.227-2.603z" />
<glyph unicode="&#xe91b;" glyph-name="Buy" d="M104.96 871.424c-11.497-4.957-19.399-16.192-19.399-29.273 0-9.059 3.79-17.234 9.871-23.024l0.013-0.012c7.040-7.253 10.624-8.32 48.981-15.061l30.507-5.333 1.323-7.68c0.725-4.224 9.771-111.36 20.053-238.080 13.824-169.984 19.627-234.197 22.101-244.907 5.205-22.144 13.611-37.547 28.885-52.949 14.933-15.061 29.355-23.723 47.915-28.843 12.629-3.499 15.445-3.541 260.864-3.541 275.584 0 256.512-0.768 281.899 11.563 9.557 4.693 16.256 9.685 26.496 19.968 14.592 14.635 22.059 26.709 27.947 45.269 4.267 13.44 46.251 308.139 46.208 324.309-0.085 37.12-21.589 68.48-55.381 80.811-3.669 1.323-93.141 2.133-306.688 2.731-300.971 0.896-301.525 0.896-306.219 4.395-9.429 7.040-10.411 11.435-15.232 68.949-3.115 37.333-5.291 55.253-7.125 58.88-3.266 6.711-8.356 12.103-14.628 15.652l-0.178 0.092c-4.523 2.389-107.435 19.285-117.12 19.243-4.111-0.451-7.865-1.568-11.294-3.246l0.2 0.089zM735.659 541.824c17.621-9.003 22.059-33.963 8.789-49.749-9.557-11.349-11.136-11.563-82.731-11.605-54.229-0.043-65.493 0.384-70.784 2.603-7.366 2.643-13.155 8.127-16.145 15.096l-0.068 0.179c-7.637 14.976-2.432 34.432 11.477 42.795l6.869 4.096 67.925 0.043c64.768 0 68.181-0.171 74.667-3.456zM295.637 149.461c-19.029-7.040-34.304-23.040-40.491-42.453-4.651-14.592-3.115-34.261 3.84-48.341 6.656-13.525 18.859-25.515 32.469-31.915 8.32-3.883 12.032-4.565 25.131-4.565 13.269 0 16.811 0.64 25.771 4.821 13.184 6.101 26.325 19.285 32.597 32.725 4.267 9.173 4.779 12.117 4.779 28.16 0 16.171-0.469 18.859-4.821 27.776-6.923 13.413-17.537 24.095-30.499 30.916l-0.392 0.188c-13.483 6.613-34.688 7.765-48.384 2.688zM774.997 149.419c-16.784-6.461-30.001-19.026-37.164-34.908l-0.169-0.42c-4.096-8.789-4.651-12.032-4.651-27.093 0-15.829 0.427-17.92 5.547-28.331 6.656-13.525 18.859-25.515 32.469-31.915 8.32-3.883 12.032-4.565 25.131-4.565 13.269 0 16.811 0.64 25.771 4.821 19.584 9.045 35.413 30.336 38.059 51.243 0.373 2.649 0.585 5.708 0.585 8.817 0 26.005-14.885 48.534-36.6 59.531l-0.381 0.175c-13.525 6.656-34.688 7.765-48.597 2.645z" />
<glyph unicode="&#xe91c;" glyph-name="Calendar" d="M345.344 873.045c-9.152-2.12-16.633-7.995-20.867-15.874l-0.083-0.169c-2.944-6.101-3.541-10.581-3.541-27.221 0-22.784 2.56-19.925-21.077-23.424-44.032-6.485-90.24-29.995-118.101-60.075-27.221-29.397-44.373-67.456-51.115-113.493-2.389-16.171-2.645-43.221-2.091-222.336 0.555-180.395 0.981-205.525 3.413-217.6 19.029-92.971 71.211-146.688 162.176-166.827l17.408-3.84h197.12c183.936 0 198.315 0.213 215.040 3.157 47.061 8.277 84.864 26.496 113.28 54.656 28.331 28.032 46.549 64 55.211 109.013 2.816 14.635 3.029 31.403 3.029 226.56 0 233.344 0.469 222.293-11.136 257.877-25.003 76.459-87.979 125.355-174.464 135.467l-9.813 1.152v19.797c0 16.725-0.555 20.992-3.627 27.307-9.557 19.755-37.76 23.168-52.523 6.315-6.784-7.723-8.704-15.403-8.704-35.328v-16.64h-249.173v15.787c0 18.091-2.048 27.179-7.765 34.731-6.571 8.747-21.248 13.696-32.597 11.008zM635.179 724.907c0.555-18.304 1.28-22.912 4.395-28.885 5.359-10.17 15.858-16.984 27.949-16.984 8.26 0 15.778 3.181 21.394 8.384l-0.020-0.019c9.259 8.107 10.837 13.568 10.837 36.907v20.437l6.4-0.896c40.107-5.461 63.147-15.701 85.803-38.144 22.869-22.656 34.176-51.712 37.76-96.853 1.067-13.397 1.621-24.661 1.28-24.96-0.384-0.341-144.213-1.067-319.659-1.664l-318.976-1.067 1.109 23.424c1.493 30.891 5.845 49.835 16.512 71.637 6.784 13.909 10.837 19.755 20.181 29.013 20.907 20.736 48.896 33.749 80.512 37.291l10.197 1.152v-20.139c0-16.811 0.597-21.376 3.456-27.349 9.6-19.84 37.973-23.424 52.693-6.613 6.912 7.851 8.704 15.403 8.704 36.992v18.304l36.267 0.512c19.925 0.256 75.947 0.683 124.416 0.896l88.149 0.384 0.64-21.76zM527.531 419.371c6.294-2.817 11.214-7.765 13.926-13.906l0.069-0.174c4.309-8.149 4.821-10.624 4.053-19.413-2.944-33.963-46.592-44.416-63.701-15.275-3.051 5.048-4.856 11.146-4.856 17.665 0 13.571 7.822 25.315 19.204 30.97l0.201 0.090c11.648 6.101 19.499 6.101 31.104 0.043zM694.784 422.144c14.189-4.517 24.289-17.578 24.289-32.998 0-0.309-0.004-0.617-0.012-0.924l0.001 0.045c0.002-0.121 0.002-0.263 0.002-0.406 0-18.757-15.206-33.963-33.963-33.963-5.91 0-11.467 1.509-16.307 4.164l0.177-0.089c-20.139 10.197-24.576 37.632-8.789 54.443 9.557 10.197 22.443 13.824 34.603 9.728zM357.163 416.256c22.315-15.488 19.371-48.683-5.419-61.269-9.387-4.736-25.6-2.987-33.835 3.669-9.515 7.68-14.080 16.683-14.080 27.904-0.043 28.075 30.891 45.312 53.333 29.696zM351.189 266.155c13.355-5.589 20.864-17.195 20.864-32.341 0-20.181-14.464-34.987-34.133-34.987-0.207-0.005-0.45-0.007-0.695-0.007-13.886 0-25.778 8.537-30.714 20.65l-0.080 0.222c-11.648 27.904 17.28 57.941 44.757 46.464zM527.403 264.96c5.104-2.842 9.352-6.626 12.638-11.153l0.077-0.111c4.608-6.571 5.163-8.747 5.163-19.883s-0.555-13.312-5.12-19.755c-20.096-28.544-62.293-14.763-62.293 20.309 0 8.619 0.853 11.392 5.547 18.347 10.325 15.275 28.16 20.267 43.989 12.245zM701.184 264.363c31.104-15.531 22.187-64-12.288-66.859-11.605-0.981-19.413 1.579-26.667 8.619-7.242 6.722-11.758 16.293-11.758 26.919 0 5.376 1.156 10.482 3.233 15.083l-0.093-0.231c8.789 19.328 28.245 26.069 47.573 16.469z" />
<glyph unicode="&#xe91d;" glyph-name="Call-Missed" d="M628.907 872.107c-5.446-2.465-10.060-5.863-13.835-10.034l-0.032-0.035c-6.3-6.39-10.19-15.169-10.19-24.857 0-5.945 1.465-11.548 4.053-16.467l-0.093 0.194c1.365-2.816 26.581-29.312 56.021-58.88l53.547-53.76-55.125-56.405c-50.56-51.755-55.253-57.045-57.131-64.555-0.671-2.68-1.056-5.757-1.056-8.924 0-20.855 16.699-37.809 37.455-38.222l0.039-0.001c14.592 0 17.792 2.517 74.624 59.307l54.187 54.101 55.040-54.741c50.176-49.835 55.808-54.912 63.189-56.917 23.637-6.4 46.421 8.875 48.683 32.597 1.664 17.109 0.043 19.243-59.093 78.72l-53.888 54.187 53.888 54.187c44.971 45.227 54.4 55.509 56.917 62.251 1.482 3.87 2.34 8.347 2.34 13.024 0 19.371-14.72 35.304-33.584 37.225l-0.158 0.013c-17.323 2.048-19.2 0.64-79.104-58.923l-54.229-53.931-54.997 54.869c-46.165 45.995-56.149 55.125-61.867 56.661-3.519 1.086-7.564 1.712-11.756 1.712-4.964 0-9.723-0.878-14.131-2.486l0.286 0.091zM236.203 830.336c-25.685-5.461-58.453-28.629-101.376-71.68-32.512-32.597-41.387-47.701-47.061-80.384-12.416-70.912 29.056-167.979 120.704-282.539 55.765-69.675 146.859-162.859 221.611-226.731 71.936-61.483 141.696-106.453 200.533-129.365 62.336-24.277 115.285-24.021 157.483 0.725 5.76 3.371 20.011 15.915 34.603 30.464 63.147 62.891 82.816 102.571 68.736 138.667-7.211 18.56-17.408 30.677-64.256 76.885-49.835 49.109-57.813 56.064-73.813 64.128-24.235 12.245-41.344 11.648-86.571-3.072-35.797-11.691-51.157-14.592-69.461-13.227-18.133 1.323-30.72 5.035-50.688 14.848-23.893 11.733-48.299 30.379-75.691 57.856-47.061 47.189-69.504 86.187-72.704 126.464-1.451 17.835 1.493 33.195 13.312 69.632 14.507 44.885 15.104 61.611 3.115 85.632-7.936 15.872-18.56 28.117-65.152 75.307-45.355 45.909-58.155 56.576-76.373 63.659-7.293 2.344-15.683 3.694-24.388 3.694-4.434 0-8.786-0.35-13.029-1.025l0.468 0.061z" />
<glyph unicode="&#xe91e;" glyph-name="Call-Silent" d="M874.965 856.832c-3.848-1.407-7.178-3.252-10.162-5.529l0.092 0.068c-14.421-12.8-772.565-792.363-775.083-797.013-12.672-23.424 4.992-53.888 31.275-53.888 10.667 0 18.219 3.541 28.544 13.355 6.955 6.613 214.741 219.819 223.403 229.163 1.792 2.005 6.485-1.664 28.459-22.187 80.085-74.795 142.549-121.216 206.080-153.088 44.117-22.144 83.285-33.195 117.76-33.237 42.965-0.043 67.627 11.691 104.107 49.451 54.101 55.979 75.733 94.677 69.973 125.227-2.347 12.373-9.984 28.331-19.797 41.344-11.819 15.659-95.147 97.323-108.501 106.325-17.493 11.733-27.819 14.763-48.341 13.995-15.189-0.555-19.883-1.621-42.667-9.387-37.248-12.757-45.44-14.635-64.853-14.72-20.309-0.085-36.821 4.011-56.789 14.080-16.085 8.107-41.557 25.899-40.917 28.587 0.213 1.067 88.747 92.373 196.693 202.88s198.315 203.947 200.832 207.616c11.605 16.939 8.277 39.68-7.509 51.413-10.709 7.936-20.992 9.685-32.597 5.547zM239.403 846.421c-20.565-5.504-46.421-22.699-77.483-51.499-38.101-35.328-50.773-51.328-59.392-74.923-5.429-14.432-8.571-31.112-8.571-48.526 0-3.433 0.122-6.838 0.362-10.209l-0.026 0.453c3.925-76.885 55.339-174.123 152.107-287.573l17.152-20.096 15.104 14.976c8.32 8.235 41.941 42.325 74.709 75.776l59.605 60.757-4.437 12.629c-3.413 9.685-4.651 17.109-5.333 32.043-1.067 23.851 0.939 36.011 10.965 66.517 4.139 12.587 8.619 27.563 9.984 33.323 1.598 6.055 2.516 13.007 2.516 20.174 0 17.714-5.608 34.119-15.146 47.535l0.171-0.253c-8.448 12.459-81.877 90.965-97.835 104.533-27.819 23.723-49.92 30.976-74.453 24.363z" />
<glyph unicode="&#xe91f;" glyph-name="Call" d="M251.733 850.176c-15.966-6.199-29.755-13.78-42.356-22.902l0.543 0.374c-29.781-21.803-74.752-65.792-85.12-83.2-45.141-76.203-4.437-195.541 116.565-341.675 53.12-64.171 140.843-153.301 204.928-208.213 124.715-106.923 230.699-158.976 307.413-151.040 20.418 2.256 38.988 8.39 55.567 17.66l-0.74-0.38c11.093 6.528 55.040 49.451 71.893 70.229 32.768 40.448 43.008 71.424 32.683 98.901-7.083 18.859-16.256 29.909-63.829 76.971-49.621 49.067-60.544 58.411-77.867 66.688-10.581 5.035-12.075 5.291-32.427 5.291-21.163-0.043-21.547-0.085-47.787-8.917-35.328-11.861-47.189-14.421-66.56-14.293-18.048 0.085-33.92 3.797-52.523 12.203-42.539 19.285-104.405 77.781-131.755 124.501-14.293 24.405-20.437 45.355-20.48 69.632-0.043 18.133 3.029 32.768 13.483 63.915 13.909 41.557 14.805 57.984 4.395 81.024-7.040 15.531-14.251 24.192-57.643 69.12-45.781 47.36-61.269 61.056-79.061 69.803-9.984 4.907-13.397 5.675-26.965 6.101-9.6 0.299-18.133-0.384-22.357-1.792z" />
<glyph unicode="&#xe920;" glyph-name="Calling" d="M593.963 871.253c-9.728-4.565-13.227-7.765-17.365-15.915-2.826-4.928-4.493-10.834-4.493-17.13 0-5.517 1.28-10.736 3.56-15.374l-0.091 0.205c7.296-15.915 12.245-18.389 50.773-25.301 60.761-11.613 113.447-40.426 154.291-81.118l-0.009 0.009c40.454-40.771 69.246-93.168 80.921-151.738l0.317-1.905 5.205-27.179c5.76-29.056 42.752-38.144 62.72-15.403 10.325 11.733 10.795 22.187 2.773 62.123-18.773 93.739-76.16 178.816-156.885 232.661-36.926 24.165-80.050 42.638-126.266 52.894l-2.587 0.482c-32.043 6.443-43.52 7.040-52.864 2.688zM236.203 830.336c-25.685-5.461-58.453-28.629-101.376-71.68-32.512-32.597-41.387-47.701-47.061-80.384-12.416-70.912 29.056-167.979 120.704-282.539 55.765-69.675 146.859-162.859 221.611-226.731 71.936-61.483 141.696-106.453 200.533-129.365 62.336-24.277 115.285-24.021 157.483 0.725 5.76 3.371 20.011 15.915 34.603 30.464 63.147 62.891 82.816 102.571 68.736 138.667-7.211 18.56-17.408 30.677-64.256 76.885-49.835 49.109-57.813 56.064-73.813 64.128-24.235 12.245-41.344 11.648-86.571-3.072-35.797-11.691-51.157-14.592-69.461-13.227-18.133 1.323-30.72 5.035-50.688 14.848-23.893 11.733-48.299 30.379-75.691 57.856-47.061 47.189-69.504 86.187-72.704 126.464-1.451 17.835 1.493 33.195 13.312 69.632 14.507 44.885 15.104 61.611 3.115 85.632-7.936 15.872-18.56 28.117-65.152 75.307-45.355 45.909-58.155 56.576-76.373 63.659-7.293 2.344-15.683 3.694-24.388 3.694-4.434 0-8.786-0.35-13.029-1.025l0.468 0.061zM595.925 724.352c-5.099-2.303-9.444-5.391-13.087-9.161l-0.011-0.012c-13.568-13.568-14.805-32.555-3.072-48.299 5.163-6.997 12.544-10.709 32.512-16.384 50.962-14.053 90.156-53.728 103.284-103.944l0.226-1.016c4.565-17.067 7.509-23.467 13.227-28.629 6.515-6.179 15.34-9.979 25.052-9.979 12.384 0 23.325 6.178 29.909 15.62l0.078 0.119c7.211 10.283 7.808 22.144 2.176 43.307-13.453 48.464-41.451 89.135-78.932 118.146l-0.513 0.382c-35.243 26.667-89.856 46.293-110.848 39.851z" />
<glyph unicode="&#xe921;" glyph-name="Camera" d="M389.248 829.397c-13.952-3.072-32.896-12.075-42.795-20.352-15.701-13.099-21.973-22.827-45.611-70.912-12.672-25.813-23.808-47.403-24.704-47.957-0.896-0.597-8.32-1.536-16.555-2.091-87.424-6.229-158.293-70.656-171.819-156.203-3.925-24.917-2.688-304.597 1.408-321.152 18.389-73.984 71.68-126.72 144.64-143.019 11.691-2.603 36.139-2.859 279.893-2.859h267.093l16.512 4.565c60.928 16.853 107.947 58.453 128.853 114.091 12.075 32.213 11.648 25.045 11.648 192.811s0.427 160.597-11.648 192.811c-18.988 48.241-56.020 85.898-102.571 105.272l-1.237 0.456c-14.93 6.451-32.238 10.831-50.378 12.252l-0.566 0.036c-9.856 1.024-19.627 2.133-21.76 2.56-2.987 0.555-5.803 4.907-12.715 19.883-19.883 42.795-37.291 75.861-44.331 84.139-13.164 15.69-30.418 27.544-50.127 33.958l-0.774 0.218c-8.704 2.901-18.091 3.157-125.44 3.541-94.891 0.299-118.059-0.085-127.019-2.048zM769.067 564.352c8.661-4.437 13.312-9.6 17.835-19.797 10.88-24.661-7.936-52.011-35.84-52.139-34.603-0.128-50.731 42.027-25.301 66.219 6.718 6.247 15.754 10.081 25.685 10.081 6.446 0 12.515-1.615 17.824-4.463l-0.202 0.099zM537.6 556.459c66.176-10.112 118.912-57.856 136.832-123.819 5.632-20.864 5.632-60.8-0.043-81.92-4.395-16.256-15.787-41.643-24.32-54.016-13.909-20.181-41.387-44.288-62.976-55.253-11.819-5.973-34.261-13.099-48.512-15.403-18.219-2.944-52.779-1.237-70.059 3.456-61.397 16.725-107.477 66.219-120.747 129.749-4.779 22.955-3.541 55.808 2.901 77.653 24.277 82.176 102.784 132.352 186.923 119.552zM485.803 491.392c-26.155-6.357-54.528-29.184-66.56-53.675-6.846-13.456-10.857-29.345-10.857-46.17 0-49.727 35.037-91.272 81.772-101.292l0.68-0.122c41.557-8.789 84.224 9.259 108.245 45.824 10.115 15.779 16.123 35.032 16.123 55.689 0 20.684-6.025 39.962-16.416 56.173l0.25-0.416c-13.867 21.163-38.144 38.528-61.611 44.075-7.692 1.49-16.539 2.342-25.584 2.342-9.209 0-18.212-0.883-26.929-2.57l0.887 0.143z" />
<glyph unicode="&#xe922;" glyph-name="Category" d="M170.667 872.064c-32.074-7.829-58.195-28.714-72.881-56.564l-0.293-0.609c-12.117-24.619-12.416-27.861-11.776-127.829 0.512-79.744 0.896-88.917 3.712-97.408 6.784-20.48 13.355-31.147 28.331-46.123 16.555-16.555 28.928-23.936 48.811-29.013 12.288-3.157 19.029-3.371 99.499-3.328 51.925 0.043 89.429 0.725 94.037 1.749 32.299 7.296 61.397 30.165 75.051 58.965 10.624 22.485 10.709 23.339 11.52 108.971 0.811 84.693-0.213 102.443-6.997 121.173-11.885 31.968-37.018 56.585-68.547 67.517l-0.787 0.237c-10.965 3.84-12.288 3.883-99.84 4.267-71.637 0.341-90.88-0.043-99.84-2.005zM667.307 872.96c-37.376-6.443-69.589-33.963-82.987-70.912-6.784-18.731-7.808-36.48-6.997-121.173 0.811-85.632 0.939-86.955 11.52-109.141 13.696-28.672 42.88-51.541 75.051-58.795 4.608-1.024 42.112-1.707 94.037-1.749 80.469-0.043 87.211 0.171 99.499 3.328 19.883 5.077 32.256 12.459 48.811 29.013 14.976 14.976 21.547 25.643 28.331 46.123 2.816 8.491 3.2 17.664 3.712 97.408 0.64 99.968 0.341 103.211-11.776 127.829-10.579 20.632-26.972 37.011-47.010 47.291l-0.606 0.282c-23.979 11.819-27.392 12.16-121.131 11.989-45.525-0.128-86.229-0.768-90.453-1.493zM169.259 382.293c-9.177-2.427-17.121-5.444-24.651-9.171l0.758 0.339c-17.408-8.533-39.68-30.421-47.488-46.635-11.947-24.789-11.52-20.779-12.16-117.888-0.64-99.968-0.341-103.211 11.776-127.829 15.064-28.718 41.559-49.705 73.279-57.070l0.748-0.146c17.323-3.627 172.075-3.669 189.141-0.043 33.21 7.8 60.129 29.818 74.422 59.124l0.287 0.652c10.88 23.040 10.923 23.723 10.923 120.32 0 79.659-0.299 88.917-3.072 98.773-10.88 38.229-34.048 62.933-72.832 77.611-9.088 3.456-12.715 3.584-99.883 3.968-72.277 0.299-92.629-0.128-101.248-2.005zM667.307 383.659c-16.683-2.773-39.808-14.123-53.291-26.112-20.096-17.92-32.427-42.837-35.669-72.149-1.067-9.301-1.493-46.848-1.067-93.312 0.725-84.779 0.896-86.229 11.349-108.459 14.596-29.946 41.507-51.958 73.961-59.627l0.748-0.149c17.067-3.627 171.819-3.584 189.141 0.043 32.468 7.511 58.963 28.498 73.736 56.609l0.291 0.607c12.117 24.619 12.416 27.861 11.776 127.829-0.64 97.109-0.213 93.099-12.16 117.888-7.765 16.171-30.080 38.101-47.403 46.635-22.528 11.008-26.24 11.349-121.813 11.136-46.933-0.128-87.253-0.512-89.6-0.939z" />
<glyph unicode="&#xe923;" glyph-name="Chart" d="M278.272 872.832c-90.624-8.747-153.557-55.68-178.987-133.547-13.781-42.197-13.099-27.136-13.099-291.285s-0.683-249.088 13.099-291.285c23.637-72.32 78.037-116.949 160.128-131.371 16.853-2.987 32.171-3.157 253.44-3.157 261.163 0 246.357-0.597 285.013 11.307 64.085 19.669 106.496 60.885 126.848 123.221 13.781 42.197 13.099 27.008 13.099 292.139 0 218.667-0.213 236.629-3.029 251.264-6.869 35.712-17.493 63.744-33.024 87.083-33.365 50.091-86.528 78.848-158.507 85.675-22.357 2.133-442.88 2.048-464.981-0.043zM524.416 702.208c8.405-2.347 18.048-10.923 21.931-19.541 2.987-6.485 3.115-17.835 3.157-230.571 0.043-162.816-0.469-225.323-1.92-229.547-4.667-14.207-17.811-24.284-33.309-24.284-13.751 0-25.649 7.933-31.367 19.472l-0.091 0.204c-3.157 6.144-3.243 13.355-3.243 233.685v227.328l4.267 7.253c6.336 10.499 17.682 17.411 30.642 17.411 3.539 0 6.959-0.516 10.186-1.476l-0.252 0.064zM334.293 557.696c4.821-2.987 9.088-7.509 11.605-12.245l3.968-7.552v-156.885c0-137.685-0.341-157.611-2.645-162.475-11.733-24.747-45.397-27.221-61.312-4.565l-5.163 7.339-0.469 156.416c-0.555 173.269-1.067 164.693 10.496 175.915 11.819 11.435 29.013 13.056 43.52 4.053zM723.243 406.101c8.578-3.715 15.342-10.272 19.231-18.46l0.097-0.228c2.944-6.315 3.157-12.501 3.2-83.627v-76.8l-4.096-8.832c-9.728-20.907-38.485-26.539-54.784-10.752-11.264 10.923-10.965 8.363-11.093 95.787-0.085 46.592 0.512 81.024 1.493 83.541 6.571 17.323 28.629 26.624 45.952 19.371z" />
<glyph unicode="&#xe924;" glyph-name="Chat" d="M481.28 873.515c-31.701-2.261-75.648-11.051-104.661-20.949-27.605-9.387-35.285-12.629-60.203-25.557-40.761-20.887-75.63-46.848-105.551-77.643l-0.092-0.095c-32.367-31.82-59.261-69.078-79.224-110.318l-1.032-2.365c-19.383-37.845-33.806-81.786-40.911-128.138l-0.305-2.422c-4.267-27.733-4.267-89.088 0.043-115.2 8.661-52.608 22.059-93.397 47.872-145.707 9.515-19.328 11.264-24.192 11.264-31.744 0-6.357-4.736-24.789-16.213-63.317-8.917-29.909-16.213-56.704-16.213-59.563 0.586-8.662 5.067-16.17 11.689-20.848l0.087-0.058c9.557-6.4 17.195-5.248 67.669 10.069 40.704 12.373 47.573 13.995 59.819 14.080 15.36 0.128 8.363 2.987 67.243-27.435 37.419-19.328 82.475-33.451 130.56-40.917 28.032-4.352 88.875-4.395 116.907-0.085 116.224 17.749 217.344 76.971 284.971 166.869 52.608 69.845 80.043 149.461 83.115 241.323 0.24 5.173 0.376 11.238 0.376 17.334 0 27.642-2.809 54.628-8.157 80.687l0.442-2.576c-33.579 173.141-171.989 309.675-343.68 338.901-23.206 4.182-49.916 6.573-77.185 6.573-10.072 0-20.068-0.326-29.978-0.969l1.35 0.070zM333.525 497.92c10.752-3.84 23.808-15.573 29.653-26.709 3.968-7.552 4.565-10.709 4.565-24.064 0-13.312-0.597-16.512-4.48-23.893-12.331-23.381-37.248-35.285-61.013-29.184-25.387 6.485-41.685 27.221-41.685 53.077 0 23.637 13.867 43.435 35.883 51.285 9.216 3.285 27.093 3.072 37.077-0.512zM534.997 495.829c11.819-5.76 22.101-16.896 26.539-28.672 5.376-14.165 4.267-33.579-2.603-46.165-9.307-17.055-27.112-28.432-47.573-28.432-15.472 0-29.424 6.505-39.272 16.929l-0.024 0.026c-12.843 13.227-18.133 35.371-12.928 54.144 3.968 14.165 20.565 31.147 34.688 35.456 10.069 3.072 31.787 1.323 41.173-3.285zM733.568 494.933c17.92-9.771 28.16-27.221 28.16-48.043 0.057-0.816 0.090-1.768 0.090-2.728 0-7.635-2.061-14.789-5.657-20.935l0.106 0.196c-8.86-18.404-27.365-30.88-48.783-30.88-21.534 0-40.123 12.611-48.784 30.851l-0.14 0.327c-3.285 6.613-3.968 10.795-4.011 23.424 0 13.397 0.597 16.469 4.565 24.064 5.547 10.581 18.603 22.656 28.843 26.667 5.504 2.176 11.349 2.859 22.016 2.475 12.245-0.384 15.915-1.237 23.595-5.419z" />
<glyph unicode="&#xe925;" glyph-name="Close-Square" d="M302.080 873.557c-77.013-8.064-135.339-41.131-173.781-98.56-21.931-32.768-36.437-74.197-41.173-117.419-1.152-10.709-1.792-86.016-1.749-211.627 0.043-208.256 0.171-212.011 8.576-246.272 12.245-49.835 39.040-94.464 74.155-123.605 31.488-26.069 64.043-41.259 107.477-50.091l18.816-3.797h438.613l17.067 3.797c97.451 21.717 160.085 84.053 181.589 180.523 6.912 31.189 7.253 44.203 6.528 254.293-0.725 217.344-0.299 206.165-9.771 241.237-15.957 58.88-47.488 103.552-95.147 134.656-24.832 16.171-49.493 25.984-83.712 33.195l-18.261 3.883-211.627 0.213c-116.395 0.085-214.315-0.085-217.6-0.427zM424.96 584.405c5.461-2.475 19.072-14.848 47.36-43.051l39.723-39.552 39.637 39.595c42.027 41.941 48.085 46.421 62.336 46.507 14.409-0.161 26.836-8.488 32.884-20.564l0.097-0.215c4.011-7.808 4.309-22.869 0.597-31.701-1.707-4.096-16.939-20.693-43.051-46.891l-40.448-40.576 40.363-40.491c22.187-22.315 41.643-43.136 43.221-46.336 2.133-4.267 2.731-8.875 2.261-17.408-0.555-9.643-1.536-12.8-5.973-18.944-10.197-14.123-30.464-19.797-44.971-12.544-3.243 1.664-24.149 21.12-46.464 43.307l-40.491 40.363-41.429-41.216c-39.595-39.467-41.813-41.344-51.2-44.075-9.003-2.56-10.581-2.56-19.072-0.085-17.579 5.077-27.264 17.877-27.307 35.925 0 6.571 1.109 12.373 3.115 16.213 1.707 3.285 21.077 24.021 43.008 46.123l39.893 40.107-39.339 39.253c-21.632 21.547-41.003 42.283-43.008 46.037-2.423 4.866-3.842 10.599-3.842 16.663 0 7.171 1.983 13.878 5.431 19.604l-0.096-0.171c6.693 10.52 18.291 17.399 31.495 17.399 5.531 0 10.781-1.207 15.499-3.372l-0.232 0.095z" />
<glyph unicode="&#xe926;" glyph-name="Danger" d="M488.107 829.568c-30.165-6.315-59.008-25.088-75.051-48.768-3.499-5.163-76.672-131.541-162.603-280.875-115.371-200.405-157.227-274.56-159.957-283.307-8.619-27.733-5.888-57.344 7.936-85.973 6.528-13.525 10.155-18.517 22.528-30.848 16.853-16.853 33.92-26.539 57.216-32.384 13.269-3.371 19.499-3.413 333.824-3.413s320.555 0.043 333.824 3.413c22.582 5.298 41.984 16.658 57.011 32.263l0.035 0.036c17.408 17.451 27.051 34.517 32.555 57.515 1.852 7.854 2.914 16.872 2.914 26.138 0 11.898-1.75 23.386-5.008 34.223l0.217-0.84c-2.773 8.96-43.264 80.597-161.835 286.421-86.955 150.997-161.579 278.827-165.845 284.117-15.964 18.992-37.179 33.094-61.406 40.1l-0.887 0.22c-14.379 3.883-41.813 4.864-55.467 1.963zM527.829 568.149c7.477-3.659 13.414-9.499 17.096-16.685l0.098-0.211c3.584-6.656 3.669-8.448 3.669-75.947s-0.085-69.291-3.669-75.947c-11.861-22.059-38.4-27.392-57.003-11.477-13.568 11.605-13.483 11.051-13.483 87.424s-0.085 75.819 13.483 87.424c6.286 5.7 14.668 9.19 23.866 9.19 5.812 0 11.299-1.393 16.144-3.864l-0.202 0.093zM529.28 303.275c11.337-5.356 19.041-16.696 19.041-29.836 0-0.311-0.004-0.621-0.013-0.929l0.001 0.045c0.171-18.645-10.24-32.64-27.648-37.163-15.36-3.968-30.251 1.963-40.149 16.085-4.523 6.443-5.205 8.832-5.205 18.859 0 9.856 0.768 12.715 5.163 19.84 6.802 10.508 18.311 17.466 31.471 17.876l0.060 0.001c5.589 0 11.008-1.493 17.28-4.779z" />
<glyph unicode="&#xe927;" glyph-name="Delete" d="M405.077 872.235c-24.732-6.518-44.695-23.159-55.541-45.109l-0.224-0.502c-4.087-9.26-7.683-20.206-10.224-31.55l-0.229-1.218c-2.432-11.136-6.016-23.296-7.936-27.051-5.9-11-14.78-19.742-25.563-25.314l-0.336-0.158c-8.832-4.011-9.685-4.053-82.432-4.907l-73.515-0.853-6.912-4.565c-10.283-6.827-14.165-16.171-14.123-33.963 0.043-17.323 3.456-26.155 12.885-33.365l6.443-4.907h729.259l6.443 4.907c9.429 7.211 12.843 16.043 12.885 33.365 0.043 17.792-3.84 27.136-14.123 33.963l-6.912 4.565-73.515 0.853c-72.747 0.853-73.6 0.896-82.432 4.907-11.030 5.677-19.847 14.329-25.571 24.9l-0.157 0.316c-1.835 3.627-5.675 16.725-8.619 29.141-2.987 12.715-7.637 27.221-10.667 33.237-10.709 21.248-33.92 38.912-57.515 43.861-13.397 2.773-199.595 2.304-211.371-0.555zM199.979 583.253c-8.459-5.659-13.953-15.173-13.953-25.971 0-0.095 0-0.189 0.001-0.283v0.014c0-24.832 31.36-381.781 36.821-419.029 8.363-57.344 39.552-95.488 89.771-109.909 18.347-5.248 57.728-6.571 197.675-6.571 141.568 0 182.784 1.365 201.344 6.656 46.976 13.397 79.061 50.261 88.747 101.973 3.371 18.176 13.227 124.075 27.307 293.461 11.819 142.891 11.605 138.325 6.955 147.968-2.402 5.154-6.206 9.315-10.924 12.091l-0.127 0.069-7.253 4.224h-609.152l-7.211-4.693z" />
<glyph unicode="&#xe928;" glyph-name="Discount" d="M495.787 873.728l-12.501-2.645c-16.115-3.917-30.298-10.146-43.032-18.417l0.536 0.326c-5.376-3.541-21.12-17.451-34.944-30.891-34.859-33.792-33.451-33.195-84.139-34.645-41.6-1.152-53.973-3.029-71.253-10.667-35.371-15.706-61.996-45.652-72.896-82.362l-0.235-0.923c-3.072-10.624-3.84-18.816-4.779-53.504-1.451-52.736-0.725-50.987-34.688-85.888-13.44-13.781-27.392-29.611-31.061-35.157-13.294-19.988-21.212-44.547-21.212-70.955s7.918-50.967 21.51-71.432l-0.298 0.477c3.669-5.547 17.621-21.376 31.061-35.157 33.963-34.901 33.237-33.152 34.688-85.888 0.939-34.688 1.707-42.88 4.779-53.504 12.678-43.178 45.995-76.495 88.253-88.941l0.92-0.232c10.624-3.072 18.816-3.84 53.504-4.779 52.736-1.451 50.987-0.725 85.888-34.688 28.544-27.776 39.424-35.669 60.245-43.477 39.723-14.933 82.176-10.453 116.693 12.331 5.632 3.712 21.504 17.707 35.285 31.147 34.987 34.005 33.024 33.237 86.741 34.731 38.613 1.067 42.88 1.493 55.467 5.589 40.831 13.182 72.368 44.69 85.328 84.575l0.261 0.929c4.181 12.715 4.565 16.555 5.589 55.467 1.408 53.803 0.299 51.072 36.267 88.363 14.379 14.933 28.715 31.445 31.872 36.736 11.86 19.32 18.885 42.717 18.885 67.755s-7.025 48.434-19.211 68.327l0.326-0.572c-3.157 5.333-17.451 21.76-31.787 36.565-35.925 37.077-34.987 34.731-36.309 87.68-0.896 35.968-1.493 42.539-4.949 53.76-11.392 37.333-36.48 66.432-70.784 82.005-19.115 8.661-30.635 10.496-73.515 11.691-50.347 1.408-50.005 1.28-81.749 32.256-27.648 27.008-34.56 32.597-49.664 40.107-15.565 8.464-34.016 13.611-53.629 14.035l-0.131 0.002c-2.88 0.173-6.249 0.271-9.64 0.271-4.115 0-8.195-0.145-12.238-0.43l0.544 0.031zM417.28 591.573c7.467-3.371 17.152-13.355 19.883-20.437 2.645-6.997 2.005-23.253-1.237-29.611-11.307-22.357-38.357-28.032-57.131-11.989-13.141 11.264-16.981 27.691-10.027 43.008 4.693 10.325 7.765 13.483 17.792 18.176 4.735 2.442 10.334 3.873 16.267 3.873 5.228 0 10.197-1.112 14.683-3.111l-0.229 0.091zM642.347 588.544c8.277-5.76 16.427-20.352 16.427-29.483-0.043-16.683 4.309-11.733-120.021-136.235-126.763-126.933-121.941-122.752-140.117-121.259-22.571 1.877-37.76 24.576-31.744 47.445 1.835 6.997 12.075 17.749 117.504 123.477 76.373 76.587 117.803 116.949 122.325 119.125 10.069 4.864 26.155 3.499 35.627-3.072zM635.52 372.992c2.389-0.896 7.381-4.395 11.136-7.808 23.424-21.163 10.24-61.013-21.077-63.573-23.168-1.963-40.192 14.037-40.192 37.76 0 9.557 0.725 12.032 5.547 19.157 6.193 9.741 16.929 16.11 29.153 16.11 0.461 0 0.92-0.009 1.377-0.027l-0.066 0.002c5.419 0 11.776-0.725 14.123-1.621z" />
<glyph unicode="&#xe929;" glyph-name="Discovery" d="M481.28 873.643c-89.088-8.021-164.565-37.333-233.813-90.88-32.64-25.216-73.173-70.528-97.963-109.483-11.947-18.731-32.128-61.056-40.021-83.84-17.152-49.621-23.211-86.613-23.211-141.44 0-44.203 2.091-63.104 11.136-100.267 14.72-60.203 44.544-121.045 81.963-167.083 58.302-71.575 138.059-123.668 229.396-146.57l2.967-0.63c72.533-17.707 151.595-15.573 222.507 5.888 70.478 21.206 130.763 58.312 179.021 107.298l0.051 0.051c30.343 29.671 55.975 63.991 75.783 101.84l1.060 2.224c120.363 231.381 7.381 514.731-239.531 600.661-40.661 14.165-82.347 21.333-129.237 22.272-5.76 0.176-12.534 0.276-19.332 0.276-7.305 0-14.583-0.116-21.833-0.345l1.059 0.027zM668.416 610.261c8.021-4.907 10.112-12.928 6.528-25.301-12.373-42.539-69.973-220.459-72.576-224.085-2.371-3.006-5.317-5.447-8.684-7.184l-0.148-0.069c-10.752-5.077-224.128-71.168-229.76-71.168-8.021 0-17.323 9.344-17.323 17.323 0 7.68 68.779 227.755 72.917 233.259 1.792 2.389 5.12 5.76 7.381 7.424 4.949 3.669 223.744 72.661 231.168 72.917 3.893-0.191 7.485-1.324 10.602-3.173l-0.106 0.058z" />
<glyph unicode="&#xe92a;" glyph-name="Document" d="M299.52 872.704c-66.261-7.552-116.864-38.784-145.365-89.728-8.363-14.976-18.219-43.733-22.101-64.469-3.029-16.213-3.2-29.995-3.2-270.507 0-240.597 0.171-254.293 3.2-270.507 5.632-30.080 16.811-58.965 30.635-79.36 7.637-11.264 27.819-31.701 39.552-40.107 21.632-15.445 50.005-26.88 81.707-32.896 14.251-2.688 33.749-2.944 228.053-2.944 200.363 0 213.461 0.171 229.547 3.2 43.051 8.064 75.307 23.893 100.779 49.579 28.117 28.373 44.971 65.749 51.157 113.536 2.261 17.152 2.56 54.101 2.133 268.117l-0.469 248.235-3.925 18.475c-17.579 82.731-66.389 130.731-149.888 147.328-13.909 2.773-31.829 3.029-221.653 3.328-116.011 0.171-212.48-0.384-220.16-1.28zM490.112 670.677c20.821-14.464 19.499-45.824-2.432-57.515-7.125-3.84-8.363-3.883-74.667-4.395-72.021-0.555-78.379 0-88.32 7.552-18.133 13.824-16 44.459 3.84 54.869 9.131 4.821 16.085 5.205 85.632 4.907l68.523-0.256 7.424-5.163zM693.419 479.36c10.874-4.992 18.29-15.787 18.29-28.314 0-0.471-0.010-0.939-0.031-1.405l0.002 0.066c0.003-0.174 0.005-0.378 0.005-0.584 0-15.225-10.425-28.016-24.526-31.623l-0.226-0.049c-9.557-2.603-340.309-2.603-349.867 0-14.327 3.656-24.752 16.447-24.752 31.672 0 0.205 0.002 0.41 0.006 0.614v-0.031c0 9.088 4.053 19.2 9.643 24.107 9.813 8.576 0.256 8.192 189.696 8.235 159.232 0.085 176.811-0.171 181.76-2.688zM695.168 281.941c8.111-6.654 13.246-16.679 13.246-27.902 0-4.698-0.9-9.186-2.536-13.301l0.085 0.243c-3.029-7.253-13.099-15.915-21.12-18.261-4.523-1.323-58.112-1.707-180.651-1.365l-174.251 0.512-6.784 4.736c-17.493 12.075-20.224 38.144-5.461 51.883 10.368 9.643-1.237 9.131 192.725 8.661l178.475-0.427 6.272-4.779z" />
<glyph unicode="&#xe92b;" glyph-name="Download" d="M497.493 849.621c-7.893-4.181-11.307-7.637-14.72-15.061-2.901-6.357-3.115-13.141-3.157-96l-0.043-89.173h-103.083c-59.093 0-110.421-0.768-120.363-1.792-87.083-8.917-155.989-77.525-169.088-168.363-1.323-9.216-1.749-52.864-1.323-142.165l0.555-128.853 4.48-16.213c6.485-23.68 13.867-41.728 23.381-57.173 32.213-52.224 84.011-85.12 143.701-91.221 24.064-2.475 487.424-2.432 509.611 0.043 79.468 9.659 143.485 66.269 163.949 140.892l0.318 1.358c6.869 26.283 7.211 34.517 6.571 168.235l-0.555 128.853-4.437 16.213c-12.843 46.763-34.389 80.939-68.267 108.245-17.067 13.739-49.024 29.995-68.864 35.029-23.424 5.931-43.008 6.869-148.907 6.869l-102.827 0.043v89.045c0 87.595-0.043 89.216-3.669 96.64-5.136 10.348-15.631 17.336-27.758 17.336-0.321 0-0.642-0.005-0.961-0.015l0.047 0.001c-0.078 0.001-0.17 0.001-0.261 0.001-5.164 0-10.089-1.019-14.586-2.867l0.256 0.093zM544.427 512.469v-136.917l37.973 38.741c33.408 34.048 38.869 38.955 45.355 40.576 2.296 0.577 4.932 0.908 7.645 0.908 18.027 0 32.64-14.613 32.64-32.64 0-0.244-0.003-0.488-0.008-0.731l0.001 0.036c0.003-0.16 0.004-0.349 0.004-0.538 0-5.506-1.244-10.721-3.467-15.379l0.093 0.216c-4.309-8.149-128.981-137.515-137.6-142.848-4.432-2.519-9.737-4.004-15.389-4.004-5.036 0-9.797 1.179-14.021 3.276l0.184-0.083c-6.912 3.541-134.528 134.869-139.051 143.104-4.48 8.149-3.925 25.771 1.109 33.835 5.347 9.247 15.189 15.368 26.461 15.368 0.252 0 0.504-0.003 0.755-0.009l-0.037 0.001c5.376 0 11.648-0.939 13.995-2.048 2.347-1.152 20.949-19.157 41.344-39.979l37.077-37.888 0.085 273.92h64.853v-136.917z" />
<glyph unicode="&#xe92c;" glyph-name="Edit-Square" d="M276.48 873.515c-40.533-4.523-82.005-20.48-112.427-43.264-15.275-11.435-21.931-17.877-31.787-30.677-22.6-29.513-38.369-65.411-44.3-104.538l-0.159-1.275c-3.669-24.235-3.669-467.541 0.043-491.52 6.249-41.969 23.078-79.173 47.668-109.894l-0.351 0.454c24.832-30.976 67.755-55.253 119.125-67.413 11.861-2.816 29.696-3.115 247.467-3.669 167.637-0.427 239.189-0.043 250.453 1.365 44.008 5.739 83.189 22.933 115.478 48.46l-0.491-0.375c33.707 27.093 61.099 79.147 68.992 131.072 2.048 13.525 2.475 54.315 2.475 244.693 0 255.445 0.341 247.765-11.904 284.587-14.72 44.203-37.205 77.141-67.755 99.115-24.691 18.061-53.883 31.655-85.495 38.904l-1.587 0.306-16.725 3.84-236.373 0.256c-23.478 0.083-51.259 0.131-79.052 0.131-57.42 0-114.794-0.202-172.119-0.606l8.824 0.049zM680.491 692.864c7.893-3.755 17.152-11.989 46.72-41.6 39.424-39.424 42.709-43.904 46.293-63.275 1.451-7.851 1.493-13.397 0.085-21.632-4.181-24.235 2.389-16.896-160.683-180.309-82.261-82.389-153.216-152.149-157.653-155.051-17.067-11.008-22.272-11.691-89.301-11.691h-60.416l-5.547 4.992-5.589 4.992 0.512 52.608c0.64 63.659 1.835 75.477 9.173 90.752 4.992 10.411 14.464 20.395 112.213 118.443 92.843 93.099 107.435 107.093 111.787 107.093 4.267 0 11.051-5.973 44.373-39.125 33.579-33.323 40.32-39.253 45.781-40.277 1.782-0.396 3.829-0.624 5.929-0.624 10.915 0 20.397 6.136 25.185 15.147l0.075 0.154c2.987 5.717 3.285 19.029 0.597 24.32-1.024 2.048-18.688 20.651-39.253 41.344-33.707 33.963-37.333 38.187-37.333 43.349 0 4.949 2.347 8.107 17.493 23.509 26.368 26.837 39.637 33.493 64.811 32.299 11.819-0.555 16.939-1.664 24.747-5.419z" />
<glyph unicode="&#xe92d;" glyph-name="Edit" d="M581.973 829.44c-15.659-3.541-33.28-12.715-45.312-23.637-10.069-9.088-53.632-63.744-58.453-73.344-5.077-10.069-2.517-12.8 60.203-63.061 65.792-52.736 66.603-53.632 66.603-74.581 0-9.088-0.896-12.629-4.736-19.2-6.585-12-19.134-20-33.552-20-1.649 0-3.273 0.105-4.866 0.307l0.189-0.020c-11.349 0.939-10.325 0.213-80.811 56.363-55.851 44.501-58.453 46.037-66.091 39.253-4.224-3.712-268.117-345.557-274.133-355.029-8.491-13.483-11.989-26.923-12.032-46.464 0-16.811 1.067-22.571 17.451-92.501 9.6-41.045 18.176-76.544 19.072-78.848 0.853-2.347 3.584-5.589 6.059-7.168 4.096-2.688 10.837-2.859 86.699-1.877 88.533 1.152 92.288 1.536 111.189 10.795 4.992 2.432 12.971 7.851 17.792 12.075 5.163 4.523 85.589 107.008 196.992 251.093 103.552 133.931 191.104 247.424 194.56 252.203 8.789 12.245 14.293 25.557 17.664 42.709 2.432 12.373 2.56 16.896 0.981 27.947-3.606 26.315-14.961 49.485-31.656 67.675l0.083-0.091c-11.051 12.16-83.243 70.144-99.029 79.573-25.984 15.488-59.093 21.675-84.864 15.829zM593.067 147.84c-16.939-7.723-26.411-22.187-26.453-40.405-0.002-0.143-0.003-0.312-0.003-0.481 0-18.6 11.901-34.419 28.504-40.26l0.299-0.092c6.613-2.261 25.344-2.603 135.893-2.603 143.019 0 138.112-0.384 150.613 11.733 9.813 9.515 13.227 17.707 13.227 31.829 0 9.515-0.896 13.739-4.352 20.48-4.907 9.515-15.616 18.56-25.131 21.205-4.139 1.152-51.84 1.749-136.064 1.749-121.856-0.043-130.133-0.213-136.533-3.157z" />
<glyph unicode="&#xe92e;" glyph-name="Filter-2" d="M158.208 872.704c-33.621-6.443-61.909-34.773-70.4-70.571-3.541-14.976-3.456-95.189 0.128-109.312 6.571-25.813 4.651-23.509 139.093-171.435 143.531-157.952 140.715-154.923 147.968-158.037 4.523-1.963 26.88-2.389 125.739-2.389 69.035 0 122.027 0.683 124.416 1.579 3.712 1.408 46.592 44.203 233.472 233.088 61.099 61.739 62.677 63.488 69.419 77.653 3.797 7.979 7.723 18.56 8.747 23.552 2.859 13.824 2.389 92.629-0.597 105.301-8.661 36.565-36.779 64.213-71.808 70.699-12.629 2.347-693.973 2.219-706.176-0.128zM381.525 278.869c-3.424-3.102-6.104-6.961-7.782-11.318l-0.068-0.202c-1.195-4.181-1.621-41.344-1.28-113.749 0.512-105.216 0.597-107.648 4.096-114.347 1.963-3.755 6.827-9.131 10.795-11.947 6.187-4.352 8.789-5.12 17.749-5.077 10.197 0.043 13.739 1.536 107.819 45.824 53.504 25.173 99.499 47.829 102.187 50.304 11.051 10.197 11.221 11.392 11.264 83.029 0.043 61.739-0.128 65.109-3.371 70.4-2.398 3.578-5.382 6.562-8.845 8.887l-0.115 0.073c-5.376 3.285-8.789 3.413-116.011 3.413h-110.421l-6.016-5.291z" />
<glyph unicode="&#xe92f;" glyph-name="Filter" d="M214.187 830.976c-14.574-2.326-27.566-5.876-39.949-10.65l1.336 0.453c-70.144-29.312-106.027-105.515-83.115-176.512 7.211-22.272 18.56-40.619 35.755-57.771 26.493-26.427 63.058-42.769 103.44-42.769 17.904 0 35.058 3.212 50.917 9.092l-1.014-0.329c22.741 7.979 36.437 16.853 54.656 35.328 21.333 21.589 30.891 38.101 38.784 66.901 4.096 15.061 4.096 51.072 0 66.133-8.052 31.223-25.215 57.663-48.449 77.080l-0.233 0.19c-11.435 9.941-42.325 25.557-58.368 29.525-11.008 2.688-43.904 4.779-53.76 3.328zM569.557 745.984c-19.183-7.699-33.459-24.043-38.146-44.076l-0.084-0.425c-8.661-35.072 15.829-69.888 53.504-76.032 13.141-2.176 284.928-2.176 298.069 0 22.187 3.627 39.893 16.384 49.365 35.627 5.035 10.197 5.547 12.757 5.547 26.667 0 13.099-0.683 16.853-4.523 25.088-6.341 13.162-16.408 23.683-28.828 30.416l-0.356 0.176-10.667 5.803-314.027 0.811-9.856-4.053zM761.173 358.528c-14.72-3.285-21.931-5.973-37.845-14.080-46.636-24.015-77.98-71.825-77.98-126.956 0-19.991 4.121-39.020 11.561-56.283l-0.354 0.924c13.995-33.621 44.843-63.744 79.403-77.568 16.516-6.924 35.711-10.946 55.844-10.946 50.911 0 95.815 25.719 122.428 64.873l0.331 0.516c26.197 39.211 31.147 86.443 13.739 131.499-16.683 43.264-58.411 77.952-105.6 87.893-14.592 3.072-48 3.115-61.525 0.128zM134.4 277.205c-21.333-5.077-39.339-21.888-45.824-42.624-1.943-5.55-3.065-11.949-3.065-18.61 0-6.846 1.185-13.414 3.362-19.512l-0.126 0.405c5.333-17.152 17.237-30.165 35.243-38.613l9.984-4.651h312.32l9.771 4.565c25.259 11.861 41.173 38.613 38.187 64.213-2.56 21.504-17.408 41.515-38.144 51.2l-9.813 4.608-152.747 0.299c-85.461 0.128-155.563-0.427-159.147-1.28z" />
<glyph unicode="&#xe930;" glyph-name="Folder" d="M283.349 872.832c-77.952-7.509-135.595-44.331-166.869-106.539-12.544-24.96-21.035-53.589-27.221-91.648-2.517-15.531-2.944-40.235-3.499-210.432-0.469-133.248-0.085-198.571 1.237-211.371 13.568-132.565 95.445-215.296 227.371-229.717 22.656-2.432 372.608-2.432 395.264 0 77.141 8.448 139.563 41.387 179.2 94.635 20.267 27.221 37.845 70.315 45.227 110.677 3.669 20.352 3.755 23.467 3.755 166.656 0 157.141-0.213 161.707-9.472 198.272-7.723 30.464-16.768 51.669-31.531 73.941-27.904 42.155-71.936 68.779-131.627 79.616-18.517 3.371-28.032 3.755-113.237 4.693l-93.013 1.024-9.472 4.437c-14.037 6.571-20.224 12.885-45.355 46.165-29.739 39.296-43.307 51.285-70.613 62.293-19.413 7.851-32 9.131-85.931 8.917-0.529 0.001-1.154 0.001-1.78 0.001-21.962 0-43.785-0.589-65.457-1.752l3.023 0.129zM723.285 367.957c6.922-3.073 12.216-8.756 14.704-15.768l0.059-0.189c1.521-3.643 2.405-7.875 2.405-12.313 0-10.492-4.937-19.83-12.615-25.819l-0.073-0.055-6.443-4.907-204.928-0.512c-112.725-0.256-207.445 0-210.517 0.512-6.912 1.28-17.195 10.069-20.267 17.408-4.907 11.733-1.963 28.117 6.443 35.797 10.496 9.643-3.413 9.045 219.605 9.088 198.059 0 205.483-0.128 211.627-3.243z" />
<glyph unicode="&#xe931;" glyph-name="Game" d="M343.893 871.424c-13.141-6.059-18.304-15.147-18.091-31.829 0.299-24.192 15.189-50.304 36.992-64.768 17.621-11.691 24.576-13.227 65.579-14.379 35.669-0.981 36.949-1.109 46.336-5.717 17.536-8.619 28.672-25.173 29.269-43.52l0.341-9.771-97.28-1.067c-100.309-1.109-112.853-1.92-140.928-9.216-58.24-15.104-108.416-50.389-140.629-98.944-16.597-25.003-27.904-52.736-35.456-86.784-3.797-17.109-3.84-18.944-3.84-143.616 0-125.653 0-126.379 3.925-144.213 11.307-51.413 31.147-88.789 65.195-122.965 34.517-34.603 76.459-56.491 127.829-66.603 25.728-5.077 77.269-6.528 228.864-6.528s203.136 1.451 228.864 6.528c101.035 19.925 170.795 88.405 193.024 189.568 3.883 17.835 3.925 18.645 3.925 144.213 0 124.672-0.043 126.507-3.84 143.616-3.365 14.48-6.781 26.18-10.735 37.63l0.794-2.643c-28.245 81.621-97.963 139.264-187.776 155.221-17.877 3.157-29.099 3.712-93.909 4.48l-73.643 0.896-1.195 13.824c-3.99 49.8-39.063 90.417-85.639 102.647l-0.804 0.179c-7.723 2.091-20.864 3.2-45.312 3.925l-34.475 1.024-5.205 4.992c-5.675 5.419-5.803 5.76-8.661 20.181-4.224 21.333-24.576 32.384-43.52 23.637zM402.859 462.464c3.78-2.381 6.975-5.304 9.579-8.703l0.064-0.086c4.693-6.101 4.779-6.869 5.632-33.707l0.853-27.435 27.307-0.853c30.976-0.981 35.413-2.389 42.795-13.568 2.829-4.014 4.521-9.006 4.521-14.394 0-0.505-0.015-1.007-0.044-1.504l0.003 0.069c0.128-10.581-3.072-17.749-10.581-24.107-7.68-6.443-15.275-7.936-41.387-7.936h-23.467v-25.685c0-27.776-0.811-31.104-9.643-39.467-15.573-14.72-42.496-8.747-49.963 11.093-1.024 2.645-1.835 15.872-1.835 29.44v24.619h-23.467c-26.112 0-33.707 1.493-41.387 7.936-7.467 6.315-10.496 13.184-10.496 23.936 0 7.253 1.024 10.923 4.395 16.043 7.381 11.136 11.819 12.544 42.795 13.525l27.307 0.853 0.853 26.453c0.939 29.227 2.389 34.176 12.117 41.088 5.316 3.721 11.917 5.946 19.038 5.946 5.473 0 10.639-1.314 15.199-3.645l-0.189 0.088zM663.381 455.509c9.472-7.552 12.757-14.891 12.032-26.539-1.195-18.347-15.915-30.080-35.584-28.288-18.475 1.664-29.269 12.672-29.525 30.037-0.256 19.541 13.653 31.616 35.157 30.549 9.685-0.469 12.416-1.365 17.92-5.76zM729.216 317.653c28.331-12.117 22.144-53.803-8.661-58.411-8.917-1.323-20.693 1.195-26.752 5.76-7.454 5.658-12.218 14.524-12.218 24.502 0 11.636 6.479 21.759 16.025 26.959l0.161 0.080c7.509 3.968 23.467 4.523 31.445 1.109z" />
<glyph unicode="&#xe932;" glyph-name="Graph" d="M537.899 872.704c-8.832-2.517-20.096-14.848-22.059-24.107-1.28-5.931 1.109-48.128 9.856-175.701 10.496-153.301 11.819-168.533 15.061-174.848 4.395-8.704 11.435-14.677 21.845-18.688 8.021-3.029 9.941-2.944 178.987 8.192 188.075 12.373 178.731 11.221 189.056 23.467 9.984 11.904 10.069 24.192 0.512 62.037-29.995 118.528-111.659 214.699-226.304 266.539-38.699 17.493-83.84 29.013-130.56 33.323-22.101 2.048-28.715 2.005-36.395-0.213zM364.373 744.107c-104.832-27.349-195.499-101.376-242.389-197.973-22.918-45.869-36.332-99.926-36.332-157.117 0-59.997 14.763-116.545 40.855-166.211l-0.939 1.962c58.112-112.213 165.589-186.069 292.053-200.875 171.051-20.011 336.043 80.128 395.349 239.957 10.965 29.568 21.589 79.189 21.589 100.949 0 23.339-18.048 42.581-42.069 44.928-5.504 0.555-70.016-2.944-143.403-7.68-73.344-4.779-139.051-8.661-146.005-8.661-21.632 0-37.76 11.136-43.179 29.867-1.579 5.504-5.803 58.197-11.861 148.992-10.453 155.477-9.131 146.005-22.741 161.109-13.696 15.232-31.659 18.389-60.928 10.752z" />
<glyph unicode="&#xe933;" glyph-name="Heart" d="M309.12 850.688c-34.432-4.267-73.003-19.541-106.965-42.283-76.16-51.029-120.192-144.853-116.267-247.765 2.048-54.784 13.483-97.451 41.259-154.411 27.719-55.997 62.537-103.914 104.067-145.070l0.040-0.039c68.224-68.011 165.12-144.341 260.096-204.843l21.12-13.483 8.747 4.864c11.435 6.357 65.323 42.325 88.064 58.752 91.179 65.877 183.040 147.115 224.171 198.229 40.661 50.603 80.768 127.445 94.379 180.907 12.8 50.304 14.123 105.131 3.755 153.6-23.339 108.672-99.883 187.008-204.544 209.365-22.315 4.779-83.371 4.352-106.112-0.725-36.064-8.204-67.876-22.127-96.158-40.937l1.054 0.66-14.336-9.643-14.208 9.472c-26.24 17.451-62.635 32.597-97.067 40.32-17.664 3.968-69.589 5.675-91.093 3.029zM747.264 711.723c45.051-23.215 75.331-69.403 75.349-122.664v-0.003c0-18.944-1.835-24.576-11.051-33.493-20.651-20.011-53.632-3.584-53.76 26.752-0.128 30.891-15.659 56.363-41.899 68.736-19.84 9.344-26.411 18.091-26.411 35.243 0 19.328 13.653 33.024 33.024 33.067 8.448 0 12.16-1.152 24.747-7.637z" />
<glyph unicode="&#xe934;" glyph-name="Hide" d="M826.325 806.827c-3.072-1.664-155.179-153.941-337.963-338.475-291.968-294.699-332.587-336.341-334.507-342.784-7.125-23.68 13.611-44.672 38.016-38.485 7.552 1.92 11.733 5.632 51.328 45.184l43.136 43.136 19.413-12.288c140.117-88.747 306.091-81.323 441.259 19.755 48.597 36.395 90.795 82.005 127.616 137.984 19.968 30.336 30.123 48.341 46.976 83.2 16.555 34.219 18.56 40.96 15.616 52.053-2.432 9.216-24.661 55.723-37.931 79.403-27.493 47.728-58.409 88.984-93.629 126.115l0.274-0.291-18.859 19.627 38.869 39.253c21.419 21.589 40.277 41.941 41.984 45.227 10.24 19.883-4.821 44.373-27.307 44.373-0.007 0-0.015 0-0.023 0-5.163 0-10.068-1.099-14.496-3.077l0.226 0.090zM488.107 793.472l-22.187-2.56c-67.627-7.68-142.976-40.32-200.917-87.040-54.187-43.648-102.101-101.205-140.203-168.32-12.672-22.357-35.499-70.059-38.016-79.531-2.987-11.179-0.896-17.92 17.28-55.339 16.683-34.261 31.36-59.819 50.901-88.363 14.080-20.651 37.248-50.347 39.211-50.347 0.683 0 35.371 34.133 77.056 75.819l75.776 75.776 0.213 33.024c0.213 30.72 0.555 34.005 4.864 48 8.634 28.279 23.427 52.499 42.888 72.072l-0.008-0.008c13.463 13.755 29.401 25.022 47.104 33.093l0.981 0.401c24.917 11.691 36.48 13.995 71.509 14.251l30.72 0.213 137.557 138.283-15.019 6.997c-30.015 13.908-64.853 24.495-101.351 30.024l-2.158 0.269c-17.963 2.517-65.195 4.565-76.203 3.285zM656.213 530.901c13.339-23.86 21.193-52.351 21.193-82.677 0-34.578-10.212-66.772-27.785-93.729l0.404 0.662c-21.95-32.623-54.16-56.877-91.941-68.296l-1.2-0.312c-11.904-3.541-19.84-4.651-38.059-5.333-34.389-1.195-60.117 4.907-89.6 21.333l-11.221 6.229 45.909 45.909 8.277-3.499c14.080-6.016 26.155-7.808 45.184-6.827 20.736 1.067 33.877 5.077 49.493 15.189 42.283 27.307 59.947 81.451 41.429 126.933l-4.096 10.155 22.571 22.613c12.416 12.416 22.741 22.613 22.912 22.613 0.213 0 3.157-4.907 6.528-10.965z" />
<glyph unicode="&#xe935;" glyph-name="Home" d="M494.080 873.557c-20.74-3.499-39.241-10.966-55.455-21.626l0.543 0.335c-19.797-13.525-297.557-237.397-305.707-246.357-10.661-12.149-18.815-26.78-23.482-42.892l-0.198-0.798c-2.944-10.325-3.115-22.784-3.115-213.205l0.043-202.24 3.797-13.653c15.872-57.045 59.989-98.432 116.395-109.099 10.88-2.091 25.984-2.688 65.92-2.688 47.915 0 52.48 0.256 61.056 3.456 12.95 5.179 23.281 14.625 29.463 26.566l0.148 0.314 4.779 9.771 0.939 77.653c0.853 70.827 1.195 78.336 4.139 85.333 6.827 16.469 15.317 25.643 31.616 34.304l7.68 4.096h157.013l9.685-4.736c12.373-6.101 22.955-16.64 28.544-28.544l4.437-9.387 1.707-158.72 4.736-9.643c6.101-12.373 16.811-22.187 29.525-26.965 9.856-3.669 11.477-3.755 68.992-3.029 48.384 0.597 60.587 1.195 68.565 3.541 62.976 18.517 103.637 65.664 110.592 128.256 2.389 21.333 2.347 377.728-0.043 396.715-2.509 19.805-9.927 37.513-20.987 52.345l0.208-0.292c-7.808 10.325-26.667 25.899-142.123 117.461-73.216 58.027-141.397 112-151.552 119.893-19.712 15.403-40.107 26.453-56.661 30.763-10.411 2.688-41.856 4.565-51.2 3.072z" />
<glyph unicode="&#xe936;" glyph-name="Image-2" d="M293.035 872.661c-54.528-5.589-107.392-31.189-142.891-69.205-29.269-31.36-48.299-69.504-59.221-118.912l-4.565-20.651-0.597-203.947c-0.427-143.659-0.043-208.981 1.28-221.013 7.083-62.933 29.355-112.256 68.224-151.083 32.085-32.085 70.059-51.669 119.979-61.781l19.157-3.883h213.333c233.515 0 228.907-0.171 264.533 10.197 36.885 10.458 68.532 29.374 93.922 54.583l-0.013-0.013c20.139 19.968 31.104 34.944 42.624 58.112 15.872 32.043 24.405 63.36 28.075 103.253 1.109 12.331 1.792 89.6 1.792 207.701 0 157.099-0.427 191.275-2.56 207.531-11.264 85.888-54.443 150.784-122.88 184.661-29.227 14.421-52.736 21.163-86.613 24.747-19.968 2.091-412.8 1.835-433.579-0.299zM730.453 812.459c72.619-11.008 124.032-58.368 141.653-130.475 6.4-26.24 6.997-41.472 6.485-164.523l-0.512-119.083-17.92 13.44c-72.917 54.699-92.331 64.213-131.413 64.256-51.115 0.085-86.656-22.485-128.683-81.877-37.717-53.248-68.864-90.069-81.707-96.64-15.872-8.064-29.611-5.419-56.107 10.837-60.672 37.248-68.821 40.661-98.731 41.899-16.512 0.683-21.845 0.213-33.365-2.901-17.237-4.608-35.755-14.72-54.229-29.44-17.109-13.653-24.576-21.931-75.435-84.011l-39.040-47.659-2.304 5.632c-4.565 11.179-10.539 36.608-12.373 52.736-1.323 11.392-1.707 77.909-1.28 215.296 0.555 195.029 0.64 199.125 4.181 214.187 9.643 41.216 25.771 70.912 51.712 95.232 24.148 22.152 54.883 37.488 88.942 42.758l0.956 0.122c22.869 3.584 415.829 3.755 439.168 0.213zM340.48 701.483c-23.509-5.163-40.96-15.189-57.003-32.683-29.653-32.384-35.456-78.165-15.189-119.851 8.192-16.725 30.464-38.656 47.829-47.019 41.813-20.096 88.875-12.203 121.515 20.437 42.155 42.197 41.856 106.795-0.683 149.376-26.027 26.027-62.379 37.248-96.469 29.739z" />
<glyph unicode="&#xe937;" glyph-name="Image" d="M302.080 873.557c-95.829-9.984-165.632-61.227-198.101-145.365-7.476-20.33-13.392-44.174-16.702-68.843l-0.194-1.77c-2.389-22.485-2.389-396.672 0-419.157 3.243-30.208 14.208-68.395 27.051-93.739 22.154-41.995 55.57-75.493 96.25-97.146l1.243-0.604c13.824-6.955 41.984-16.469 62.037-20.907l17.323-3.84h442.027l17.323 3.84c20.053 4.437 48.213 13.952 62.037 20.907 40.661 20.523 77.184 57.344 98.133 99.029 12.373 24.491 23.040 61.995 26.368 92.459 2.432 22.656 2.432 396.501 0 419.157-2.79 23.889-7.979 45.614-15.408 66.27l0.646-2.056c-27.648 79.701-89.856 132.181-176.299 148.821-15.104 2.901-30.464 3.115-226.987 3.328-115.925 0.128-213.461-0.043-216.747-0.384zM394.24 699.051c15.488-4.907 31.189-14.592 43.392-26.795 12.331-12.373 20.096-24.875 26.112-41.941 3.797-10.795 4.437-15.317 4.437-32.981s-0.64-22.187-4.437-32.981c-8.742-24.955-25.385-45.299-46.879-58.519l-0.481-0.275c-68.608-40.021-154.795 6.229-159.829 85.803-3.2 51.285 32.555 98.56 83.285 110.123 14.507 3.285 39.851 2.176 54.4-2.432zM737.365 427.648c17.109-8.619 41.045-27.691 69.035-54.997 34.091-33.323 41.387-45.739 45.653-77.824 4.949-36.907-9.984-90.155-34.56-123.307-21.237-28.461-51.335-49.274-86.16-58.423l-1.094-0.244c-24.363-6.101-35.115-6.357-238.72-5.717-178.773 0.512-201.728 0.896-211.627 3.371-24.192 6.101-47.957 16.469-56.704 24.747-11.093 10.496-12.544 29.099-3.328 42.325 14.208 20.267 79.957 100.523 89.643 109.397 6.229 5.675 16.085 12.928 21.973 16.128 9.259 4.992 12.331 5.76 22.656 5.803 14.848 0 24.917-4.48 55.467-24.789 36.992-24.533 57.301-32.384 83.883-32.384 24.363 0 46.165 8.491 71.040 27.691 19.371 14.891 34.475 34.176 63.061 80.427 27.349 44.245 36.395 55.296 53.931 65.877 8.429 5.247 18.661 8.358 29.619 8.358 9.589 0 18.622-2.382 26.538-6.586l-0.307 0.149z" />
<glyph unicode="&#xe938;" glyph-name="Info-Circle" d="M481.28 873.643c-122.837-11.051-227.797-66.389-302.379-159.403-58.214-72.166-93.446-164.988-93.446-266.040 0-88.075 26.764-169.899 72.603-237.782l-0.959 1.507c77.381-115.503 207.38-190.521 354.901-190.521 72.107 0 140.029 17.923 199.552 49.558l-2.303-1.117c40.073 20.867 74.393 46.5 103.991 76.768l0.073 0.074c30.343 29.671 55.975 63.991 75.783 101.84l1.060 2.224c30.504 57.223 48.419 125.143 48.419 197.248s-17.915 140.025-49.536 199.553l1.117-2.305c-20.847 40.065-46.482 74.373-76.763 103.944l-0.079 0.077c-66.816 66.731-146.603 106.709-241.579 121.088-17.323 2.603-74.752 4.693-90.453 3.285zM527.829 643.243c7.477-3.659 13.414-9.499 17.096-16.685l0.098-0.211c3.627-6.784 3.669-7.637 3.669-110.933 0-104.064 0-104.107-3.755-111.147-4.856-9.236-13.299-16.032-23.428-18.591l-0.252-0.054c-8.491-2.517-10.069-2.475-19.072 0.128-12.203 3.541-22.699 13.653-25.813 24.832-1.536 5.675-1.963 33.109-1.579 109.397l0.512 101.803 5.12 7.253c12.032 16.981 30.763 22.613 47.403 14.208zM521.771 321.451c10.795-2.731 23.296-14.891 26.069-25.344 4.352-16.213-2.603-33.92-16.427-42.027-16.256-9.515-34.261-6.699-46.592 7.296-18.048 20.48-9.941 50.176 16.171 59.477 8.363 2.987 10.923 3.072 20.779 0.597z" />
<glyph unicode="&#xe939;" glyph-name="Info-Square" d="M302.080 873.557c-77.611-8.107-137.216-42.325-175.019-100.437-16.256-24.96-27.136-51.243-34.56-83.627-6.784-29.397-7.168-41.984-7.125-243.541 0.043-208.256 0.171-212.011 8.576-246.272 12.245-49.835 39.040-94.464 74.155-123.605 31.488-26.069 64.043-41.259 107.477-50.091l18.816-3.797h218.453c239.317 0 226.048-0.512 261.333 10.027 92.629 27.733 152.149 103.936 162.773 208.427 1.365 13.184 1.707 78.933 1.237 220.16-0.725 217.344-0.299 206.165-9.771 241.237-15.957 58.88-47.488 103.552-95.147 134.656-24.832 16.171-49.493 25.984-83.712 33.195l-18.261 3.883-211.627 0.213c-116.395 0.085-214.315-0.085-217.6-0.427zM532.864 641.621c4.736-3.285 8.96-8.32 11.989-14.293 7.723-15.275 5.632-29.653-6.059-41.856-23.979-24.875-63.147-8.875-63.232 25.813-0.043 14.549 6.272 24.875 19.413 31.787 4.448 2.871 9.883 4.577 15.716 4.577 1.5 0 2.974-0.113 4.414-0.331l-0.162 0.020c8.363-0.512 12.203-1.749 17.92-5.717zM523.093 510.976c9.6-2.645 21.888-15.616 24.491-25.899 2.389-9.6 2.731-196.48 0.341-206.763-2.861-10.516-9.655-19.104-18.665-24.26l-0.194-0.102c-6.272-3.285-9.771-3.925-19.115-3.499-14.976 0.683-24.021 6.571-30.848 20.053l-4.736 9.344 0.469 103.424 0.469 103.381 5.163 8.32c8.917 14.464 25.472 20.693 42.624 16z" />
<glyph unicode="&#xe93a;" glyph-name="Location" d="M475.307 872.875c-87.164-9.473-163.943-47.87-221.897-105.246l0.031 0.030c-115.2-115.2-136.32-284.715-55.125-443.008 49.28-96.043 159.616-211.968 271.573-285.355 36.011-23.595 47.787-23.808 82.219-1.323 95.061 61.995 197.461 163.243 252.715 249.813 13.44 21.077 35.541 65.664 44.203 89.131 24.917 67.627 31.915 145.664 18.816 210.261-12.054 57.736-36.493 108.428-70.493 151.175l0.562-0.732c-17.702 20.61-36.412 39.185-56.492 56.192l-0.724 0.598c-48.2 38.564-107.313 65.5-171.998 75.635l-2.082 0.269c-22.016 3.328-70.613 4.693-91.307 2.56zM541.397 623.915c69.504-17.792 107.819-92.544 81.323-158.72-13.867-34.731-47.744-63.189-84.395-70.955-7.829-1.801-16.819-2.833-26.051-2.833-34.563 0-65.746 14.471-87.821 37.684l-0.048 0.051c-45.397 48.128-41.515 124.117 8.619 169.003 10.795 9.643 35.157 22.528 49.963 26.368 14.037 3.669 42.88 3.371 58.411-0.597z" />
<glyph unicode="&#xe93b;" glyph-name="Lock" d="M488.96 873.643c-35.755-5.12-54.016-10.24-79.189-22.144-64.811-30.635-109.397-85.419-127.659-156.757-4.011-15.829-4.48-21.077-5.419-66.389l-1.067-49.195-14.165-5.888c-63.701-26.411-104.875-81.451-111.232-148.821-2.347-24.619-2.261-221.056 0.085-242.133 8.533-76.629 61.909-136.619 139.051-156.245l15.275-3.883h414.72l15.275 3.883c21.848 5.457 41.057 13.934 58.353 25.117l-0.753-0.456c44.741 28.807 75.454 76.083 81.381 130.795l0.069 0.789c2.347 21.077 2.432 217.515 0.085 242.133-6.357 67.371-47.531 122.411-111.232 148.821l-14.165 5.888-0.981 48.341c-1.067 51.285-2.176 59.819-11.221 87.595-25.472 78.165-93.397 137.515-176.896 154.581-16.683 3.371-58.069 5.76-70.315 3.968zM552.832 795.52c26.806-7.589 49.912-20.89 68.877-38.576l-0.098 0.091c23.040-21.589 37.675-45.952 45.013-74.88 3.712-14.72 4.096-19.627 4.096-55.168v-39.040h-317.44v39.040c0 35.541 0.384 40.448 4.096 55.168 7.521 29.020 22.601 53.841 43.016 73.059l0.077 0.072c21.127 20.606 48.041 35.373 78.075 41.634l1.029 0.179c14.592 3.115 60.203 2.133 73.259-1.579zM528.213 385.067c8.533-3.84 17.195-13.525 19.669-21.931 1.237-4.309 1.707-24.917 1.323-62.037l-0.512-55.595-4.693-7.125c-13.611-20.523-43.904-23.552-59.435-5.845-9.984 11.349-10.112 12.331-10.112 72.107 0 59.563 0.341 62.123 9.899 72.32 10.24 10.923 29.781 14.549 43.861 8.107z" />
<glyph unicode="&#xe93c;" glyph-name="Login" d="M480.427 872.747c-27.477-3.456-61.013-16.384-86.784-33.493-33.28-22.144-62.336-61.397-74.539-100.693-7.808-25.173-8.491-37.248-8.491-151.040v-107.093h-178.645l-7.552-3.968c-8.408-4.572-14.584-12.351-16.931-21.653l-0.050-0.235c-3.541-13.227 4.693-29.781 17.792-35.712 6.571-2.987 12.8-3.2 96.213-3.243l89.173-0.043v-106.283c0-62.72 0.725-112.043 1.749-120.32 10.795-85.845 78.933-153.045 168.405-165.931 9.216-1.323 52.864-1.749 142.165-1.323l128.853 0.555 16.341 4.48c34.304 9.387 59.264 22.144 83.072 42.411 35.96 30.793 60.081 74.509 65.128 123.872l0.066 0.8c2.432 23.637 2.432 484.693 0 508.331-2.487 24.438-9.416 46.763-19.979 66.882l0.48-1.004c-28.8 57.813-84.608 96.555-151.040 104.832-17.579 2.176-247.808 2.048-265.429-0.128zM553.728 600.363c7.125-3.669 134.699-126.379 141.312-135.851 3.797-5.504 4.693-8.619 4.608-16.341 0.002-0.132 0.003-0.289 0.003-0.446 0-5.3-1.116-10.339-3.125-14.895l0.093 0.236c-4.821-9.045-136.405-135.040-145.237-139.051-3.575-1.812-7.795-2.873-12.263-2.873-1.561 0-3.091 0.129-4.581 0.378l0.161-0.022c-18.133 1.877-30.080 14.421-30.080 31.573 0 5.376 0.939 11.648 2.048 13.995 1.152 2.347 19.157 20.949 39.979 41.344l37.888 37.077-273.92 0.085v64.853h273.92l-37.163 36.053c-20.48 19.797-38.443 38.4-39.936 41.344-1.747 4.092-2.792 8.849-2.858 13.841v0.026c-0.341 24.789 26.411 40.405 49.152 28.672z" />
<glyph unicode="&#xe93d;" glyph-name="Logout" d="M252.885 872.832c-44.107-6.070-82.698-26.104-111.999-55.423l-0.001-0.001c-24.533-24.491-40.363-52.181-50.133-87.509l-4.565-16.512-0.512-257.707c-0.427-232.832-0.213-259.371 2.304-274.773 12.018-70.359 61.373-126.791 126.576-148.771l1.338-0.392c30.549-10.197 33.835-10.411 166.485-10.411 127.104 0 136.021 0.427 161.707 7.851 65.451 18.987 114.731 69.632 133.12 136.917l4.523 16.512 1.109 232.96h176.427l-36.181-36.267c-37.333-37.419-41.472-42.923-41.387-55.424 0.593-9.302 4.449-17.603 10.425-23.866l-0.014 0.015c6.019-5.165 13.757-8.482 22.252-8.998l0.106-0.005c13.056 0.085 18.816 4.864 84.651 70.443 35.029 34.944 65.664 66.773 68.053 70.784 2.713 4.705 4.313 10.347 4.313 16.362 0 4.808-1.022 9.377-2.861 13.502l0.084-0.211c-4.096 8.619-133.419 137.131-141.355 140.459-26.709 11.179-54.144-16.256-43.093-43.051 1.707-4.096 15.488-19.243 38.827-42.624l36.181-36.267h-176.597v109.781c0 121.899-0.427 127.659-11.136 157.696-24.236 65.572-81.541 113.558-151.135 124.071l-1.057 0.131c-13.653 2.091-38.699 2.517-136.192 2.347-65.707-0.128-124.331-0.853-130.261-1.621zM682.667 447.957v-32.427l-272.469 0.896-6.016 4.096c-10.411 7.168-14.208 14.507-14.208 27.477 0 14.080 5.205 23.168 16.512 28.757 7.339 3.669 7.808 3.669 141.781 3.669h134.4v-32.469z" />
<glyph unicode="&#xe93e;" glyph-name="Message" d="M273.92 830.165c-24.824-3.368-47.299-10.489-67.879-20.828l1.233 0.561c-59.861-29.227-99.669-78.677-116.437-144.683l-4.651-18.389v-397.653l4.651-18.389c11.179-43.861 29.397-75.477 61.397-106.325 30.208-29.141 64.939-47.445 107.179-56.491 13.653-2.944 28.8-3.115 252.587-3.115s238.933 0.171 252.587 3.115c42.077 8.665 78.546 28.62 107.227 56.537l-0.048-0.046c32 30.848 50.219 62.464 61.397 106.325l4.651 18.389v197.12c0 184.192-0.213 198.059-3.115 211.627-18.645 87.083-81.835 150.272-170.155 170.155-11.563 2.603-34.432 2.901-245.717 3.2-128.128 0.171-238.336-0.299-244.907-1.109zM778.837 608.043c10.357-3.542 18.243-11.836 21.15-22.212l0.055-0.231c2.005-9.344 0.256-20.267-4.181-26.411-4.736-6.528-201.643-163.925-214.315-171.307-19.118-11.156-42.087-17.742-66.593-17.742-21.807 0-42.397 5.215-60.589 14.467l0.761-0.351c-14.805 7.467-4.395-0.299-118.016 88.235-113.195 88.277-104.32 80.981-108.459 89.088-8.747 17.109 1.451 39.851 20.139 45.056 16.683 4.651 14.891 5.845 126.336-83.285 69.035-55.168 104.917-82.731 111.275-85.547 7.723-3.413 12.245-4.181 25.6-4.224 14.805-0.085 17.195 0.384 27.307 5.291 7.68 3.755 42.112 30.251 111.787 85.973 55.381 44.331 102.997 81.621 105.813 82.859 6.485 2.901 13.056 2.987 21.931 0.341z" />
<glyph unicode="&#xe93f;" glyph-name="More-Circle" d="M481.28 873.643c-89.088-8.021-164.693-37.419-233.813-90.88-18.731-14.507-55.893-51.669-70.272-70.229-43.136-55.765-70.997-116.651-83.968-183.595-4.921-24.293-7.737-52.216-7.737-80.797 0-68.079 15.98-132.425 44.393-189.494l-1.114 2.472c21.441-44.285 48.904-82.111 81.883-114.312l0.080-0.077c32.251-33.074 70.086-60.516 112.013-80.838l2.377-1.039c49.966-25.423 108.708-41.073 170.918-42.909l0.602-0.014c209.451-7.893 394.155 138.965 434.133 345.131 40.363 208.299-78.805 414.251-280.149 484.352-40.661 14.165-82.347 21.333-129.237 22.272-5.76 0.176-12.534 0.276-19.332 0.276-7.305 0-14.583-0.116-21.833-0.345l1.059 0.027zM335.659 496.64c20.821-6.187 35.371-26.197 35.371-48.64 0-35.584-34.773-60.117-67.755-47.787-19.586 7.485-33.243 26.122-33.243 47.948 0 10.273 3.025 19.839 8.234 27.856l-0.121-0.199c9.197 13.977 24.812 23.076 42.553 23.076 5.34 0 10.487-0.824 15.321-2.352l-0.36 0.098zM526.805 496.64c20.821-6.187 35.371-26.197 35.371-48.64 0-35.584-34.773-60.117-67.755-47.787-19.586 7.485-33.243 26.122-33.243 47.948 0 10.273 3.025 19.839 8.234 27.856l-0.121-0.199c9.197 13.977 24.812 23.076 42.553 23.076 5.34 0 10.487-0.824 15.321-2.352l-0.36 0.098zM717.952 496.64c20.821-6.187 35.371-26.197 35.371-48.64 0-35.584-34.773-60.117-67.755-47.787-19.586 7.485-33.243 26.122-33.243 47.948 0 10.273 3.025 19.839 8.234 27.856l-0.121-0.199c9.197 13.977 24.812 23.076 42.553 23.076 5.34 0 10.487-0.824 15.321-2.352l-0.36 0.098z" />
<glyph unicode="&#xe940;" glyph-name="More-Square" d="M302.080 873.557c-78.251-8.192-138.027-42.837-176.213-102.144-20.48-31.829-33.792-71.168-38.741-114.432-1.109-9.557-1.749-88.064-1.792-210.176 0-163.157 0.427-198.059 2.56-214.187 7.68-58.368 30.592-107.435 67.285-144.427 25.088-25.216 54.869-43.093 91.179-54.741 36.139-11.563 22.869-10.965 255.403-11.691 150.357-0.427 215.68-0.043 227.84 1.323 100.437 11.435 174.72 76.117 199.765 173.824 9.429 36.949 9.472 38.4 8.789 260.736-0.683 220.843-0.213 209.28-9.728 244.395-11.477 42.368-31.36 77.568-60.032 106.24-25.97 25.338-57.972 44.614-93.644 55.467l-1.631 0.427c-35.371 9.813-23.595 9.387-253.44 9.728-116.395 0.128-214.315 0-217.6-0.341zM335.787 496.597c12.672-3.755 24.661-13.909 30.549-25.899 6.912-14.037 6.912-31.275 0.085-45.269-8.421-17.003-25.653-28.488-45.568-28.488s-37.147 11.485-45.435 28.193l-0.133 0.295c-10.112 20.651-4.736 47.104 12.501 61.269 8.814 7.565 20.36 12.171 32.981 12.171 5.361 0 10.527-0.831 15.378-2.371l-0.36 0.099zM526.933 496.597c12.672-3.755 24.661-13.909 30.549-25.899 6.912-14.037 6.912-31.275 0.085-45.269-8.421-17.003-25.653-28.488-45.568-28.488s-37.147 11.485-45.435 28.193l-0.133 0.295c-10.112 20.651-4.736 47.104 12.501 61.269 8.814 7.565 20.36 12.171 32.981 12.171 5.361 0 10.527-0.831 15.378-2.371l-0.36 0.099zM717.952 496.64c20.821-6.187 35.371-26.197 35.371-48.64 0-9.472-0.939-13.397-5.504-22.699-14.848-30.165-52.651-37.717-78.421-15.659-22.656 19.413-22.315 58.197 0.683 77.056 8.814 7.567 20.361 12.173 32.984 12.173 5.313 0 10.435-0.816 15.248-2.329l-0.36 0.098z" />
<glyph unicode="&#xe941;" glyph-name="Notification" d="M478.891 872.789c-38.1-4.357-72.795-15.211-104.246-31.465l1.676 0.787c-70.144-34.816-120.875-92.032-139.947-157.909-7.083-24.405-9.557-44.843-11.093-91.989-1.621-49.408-3.627-61.227-14.464-84.053-6.827-14.421-12.928-23.637-27.52-41.685-21.888-26.965-29.611-46.507-33.152-83.712-4.651-48.981 11.093-94.848 43.563-126.763 24.791-23.801 55.952-41.149 90.67-49.235l1.319-0.259c37.632-8.576 163.243-15.616 250.197-13.952 75.051 1.451 179.371 8.576 202.069 13.867 36.587 8.377 68.202 26.079 93.271 50.475l-0.044-0.043c28.331 27.947 42.837 64.896 42.923 109.227 0.085 44.117-8.192 68.693-34.389 101.632-31.616 39.808-41.003 67.456-41.003 120.875 0 92.245-18.987 143.019-74.155 198.315-16.597 16.64-27.307 25.685-41.941 35.371-48.17 32.696-107.598 52.2-171.581 52.2-11.325 0-22.507-0.611-33.516-1.802l1.364 0.12zM437.547 140.885c-17.749-1.664-29.952-6.101-39.168-14.208-12.288-10.837-14.123-25.344-5.461-44.203 7.723-16.853 24.576-31.915 50.091-44.672 57.003-28.587 127.872-18.475 171.563 24.491 10.325 10.197 13.781 14.891 16.768 22.955 9.771 26.368 1.024 43.349-27.051 52.395-10.581 3.413-15.189 3.669-82.048 4.096-38.955 0.256-77.056-0.128-84.693-0.853z" />
<glyph unicode="&#xe942;" glyph-name="Paper-Download" d="M313.941 872.789c-6.144-0.768-17.963-3.413-26.283-5.803-75.307-21.845-129.067-86.912-137.429-166.4-2.347-22.485-2.347-473.472 0.043-496.555 7.381-72.149 50.56-133.845 114.603-163.883 17.024-7.979 38.784-14.507 56.704-16.981 8.704-1.195 74.965-1.835 195.243-1.835 197.803 0 197.973 0.043 226.517 9.557 30.034 9.991 55.607 26.512 76.046 47.968l0.071 0.075c27.264 28.032 43.264 58.069 52.096 97.749 2.517 11.349 2.901 32.768 3.499 192.811 0.384 99.029 0.213 183.339-0.384 187.349-0.774 4.556-2.563 8.595-5.129 12.018l0.051-0.072-4.011 4.651-78.208 0.939c-85.333 1.024-89.771 1.493-114.944 11.861-32.888 14.378-58.815 39.601-73.737 71.057l-0.375 0.879c-11.904 25.771-11.733 24.107-12.8 118.741l-0.981 85.76-5.589 5.547-5.589 5.589-124.117 0.213c-68.267 0.128-129.152-0.427-135.296-1.237zM652.629 850.091l-5.803-5.803v-67.285c0-72.789 0.299-75.477 9.813-94.336 6.357-12.501 24.619-29.952 37.973-36.224 17.707-8.32 24.235-9.003 88.405-9.003 55.381 0 59.563 0.213 64.597 3.285 6.272 3.84 9.941 13.099 8.448 21.163-0.811 4.267-18.603 23.979-80.469 89.045-105.429 110.976-99.157 104.96-109.141 104.96-6.869 0-8.875-0.853-13.824-5.803zM509.952 583.851c6.799-3.964 12.153-9.757 15.474-16.708l0.099-0.231c1.237-3.2 1.835-39.936 1.835-110.507 0-58.112 0.256-105.685 0.512-105.685 0.299 0 16.256 15.787 35.413 35.115 19.2 19.328 37.077 36.267 39.765 37.675 7.040 3.712 21.845 3.456 28.544-0.469 8.832-5.035 15.040-13.805 16.492-24.103l0.020-0.175c1.621-16.555 1.792-16.299-68.48-86.997-35.797-35.968-67.371-66.645-70.187-68.139-3.671-1.726-7.974-2.734-12.512-2.734-5.578 0-10.801 1.523-15.275 4.176l0.139-0.076c-10.24 6.229-131.456 129.792-134.528 137.088-11.776 28.203 17.92 55.083 43.989 39.808 4.011-2.347 21.803-19.328 39.467-37.717s32.811-33.451 33.664-33.451c0.896 0 1.536 44.843 1.536 107.093v107.093l4.053 6.656c5.261 8.848 14.773 14.685 25.647 14.685 0.238 0 0.476-0.003 0.713-0.008l-0.035 0.001c4.992 0 11.136-1.067 13.653-2.389z" />
<glyph unicode="&#xe943;" glyph-name="Paper-Fail" d="M313.941 872.789c-10.171-1.583-18.97-3.589-27.537-6.134l1.468 0.374c-75.221-21.803-129.28-87.211-137.643-166.443-2.347-22.485-2.347-473.472 0.043-496.555 7.381-72.149 50.56-133.845 114.603-163.883 16.851-7.952 36.404-13.939 56.921-16.97l1.149-0.139c9.643-1.28 73.685-1.707 202.709-1.323l188.587 0.512 17.067 4.779c79.787 22.315 134.016 86.528 142.464 168.619 2.389 23.424 2.389 356.736-0.043 365.355-1.195 3.904-3.34 7.22-6.169 9.798l-0.017 0.016c-4.309 3.413-6.485 3.499-72.917 3.499-75.264 0-90.069 1.152-112.555 8.661-37.604 12.761-67.44 39.873-83.521 74.647l-0.362 0.873c-11.733 25.472-11.605 23.936-12.672 118.443l-0.981 85.76-5.589 5.547-5.589 5.589-124.117 0.213c-68.267 0.128-129.152-0.427-135.296-1.237zM652.629 850.091l-5.803-5.803v-67.285c0-72.789 0.299-75.477 9.813-94.336 6.357-12.501 24.619-29.952 37.973-36.224 17.707-8.32 24.235-9.003 88.405-9.003 55.381 0 59.563 0.213 64.597 3.285 6.272 3.84 9.941 13.099 8.448 21.163-0.811 4.224-18.517 23.893-79.616 88.192-105.387 111.019-99.968 105.813-109.952 105.813-6.912 0-8.917-0.853-13.867-5.803zM442.581 509.269c2.048-1.067 16.597-14.677 32.299-30.293l28.587-28.373 28.587 28.373c15.701 15.616 30.251 29.227 32.299 30.293 6.485 3.285 21.163 2.219 28.715-2.048 13.056-7.381 19.243-28.203 12.288-41.344-1.451-2.773-15.019-17.365-30.080-32.341l-27.392-27.264 27.093-27.349c14.891-15.061 28.416-30.037 30.080-33.28 3.755-7.467 3.883-21.461 0.256-28.501-4.893-8.528-13.048-14.714-22.721-16.894l-0.234-0.044c-14.763-2.219-19.072 0.512-50.731 31.829l-29.013 28.672-26.027-27.008c-27.136-28.203-35.328-34.176-46.933-34.176-12.213 0.215-22.73 7.266-27.906 17.482l-0.084 0.182c-3.456 6.528-3.243 21.632 0.384 28.672 1.621 3.157 15.061 18.048 29.952 33.067l27.008 27.392-27.264 27.221c-14.976 14.976-28.501 29.824-30.037 33.024-1.735 3.856-2.747 8.358-2.747 13.096 0 11.41 5.863 21.452 14.74 27.275l0.124 0.076c7.552 4.523 22.016 5.675 28.757 2.261z" />
<glyph unicode="&#xe944;" glyph-name="Paper-Negative" d="M313.941 872.789c-29.201-4.349-55.341-14.722-78.055-29.836l0.701 0.439c-49.408-32.213-80.683-84.736-86.485-145.365-1.237-12.544-1.621-98.432-1.195-259.413 0.725-263.808 0.043-246.912 10.88-279.851 23.595-71.936 88.491-125.909 163.157-135.723 9.643-1.28 73.685-1.707 202.709-1.323l188.587 0.512 17.067 4.779c79.787 22.315 134.016 86.528 142.464 168.619 2.389 23.424 2.389 356.736-0.043 365.355-1.195 3.904-3.34 7.22-6.169 9.798l-0.017 0.016c-4.309 3.413-6.485 3.499-72.917 3.499-75.264 0-90.069 1.152-112.555 8.661-37.604 12.761-67.44 39.873-83.521 74.647l-0.362 0.873c-11.733 25.472-11.605 23.936-12.672 118.443l-0.981 85.76-5.589 5.547-5.589 5.589-124.117 0.213c-68.267 0.128-129.152-0.427-135.296-1.237zM652.629 850.091l-5.803-5.803v-66.389c0-54.101 0.469-68.224 2.603-76.416 9.005-31.032 33.709-54.687 64.721-62.045l0.602-0.12c5.589-1.152 31.531-1.877 67.925-1.877 64.981 0 66.304 0.213 71.68 10.539 4.395 8.491 2.304 17.152-6.357 26.667-28.629 31.232-170.837 179.328-173.056 180.181-2.645 0.684-5.682 1.076-8.811 1.076-0.292 0-0.584-0.003-0.875-0.010l0.043 0.001c-5.547 0-7.979-1.109-12.672-5.803zM624.939 432.811c20.779-14.251 19.627-43.733-2.176-54.869-6.485-3.328-9.685-3.371-120.704-2.944l-114.048 0.469-6.315 4.779c-18.859 14.421-16.555 43.52 4.309 53.888 7.381 3.669 7.637 3.669 120.149 3.2l112.768-0.427 6.016-4.096z" />
</font>
</defs>
</svg>
