<?xml version="1.0" standalone="no"?>
<!DOCTYPE svg PUBLIC "-//W3C//DTD SVG 1.1//EN" "http://www.w3.org/Graphics/SVG/1.1/DTD/svg11.dtd" >
<svg xmlns="http://www.w3.org/2000/svg">
<metadata>Generated by IcoMoon</metadata>
<defs>
<font id="LightIcons" horiz-adv-x="1024">
<font-face units-per-em="1024" ascent="960" descent="-64" />
<missing-glyph horiz-adv-x="1024" />
<glyph unicode="&#x20;" horiz-adv-x="512" d="" />
<glyph unicode="&#xe900;" glyph-name="User1" d="M375.467 850.603c-43.52-6.955-85.333-27.819-117.547-58.667-32.432-31.218-55.292-72.17-63.874-118.146l-0.211-1.363c-3.456-19.84-3.456-56.917-0.043-76.544 18.176-103.979 109.525-180.267 215.808-180.267 130.347 0 232.661 114.816 216.875 243.328-6.101 49.707-26.837 93.44-60.373 127.445-34.773 35.243-72.491 55.040-121.259 63.616-15.189 2.688-54.101 3.029-69.376 0.597zM693.931 804.736c-7.68-2.475-14.507-10.155-17.28-19.499-3.413-11.52-3.157-19.072 0.939-27.563s11.904-12.885 29.824-16.853c36.053-8.021 65.451-34.261 78.976-70.528 5.717-15.403 7.211-43.947 3.115-60.203-5.12-20.395-13.696-35.157-29.867-51.328-17.621-17.579-32-25.387-56.491-30.635-24.491-5.205-31.36-11.691-31.317-29.355 0-13.995 2.901-22.144 10.069-28.416 8.021-7.083 15.573-8.107 33.877-4.565 27.221 5.205 45.483 12.843 66.731 27.904 31.445 22.315 57.899 59.307 67.371 94.336 3.64 14.039 5.729 30.157 5.729 46.763s-2.089 32.723-6.020 48.104l0.291-1.341c-12.928 47.019-49.195 89.472-94.208 110.293-21.931 10.112-51.2 16.213-61.739 12.885zM448 784.341c42.667-11.307 80.512-41.941 100.267-81.195 9.963-20.66 15.785-44.925 15.785-70.55 0-5.446-0.263-10.83-0.777-16.141l0.053 0.675c-9.728-80.043-73.941-137.429-153.728-137.429-83.584 0-150.656 63.573-154.795 146.645-2.347 47.019 14.123 88.021 48.341 120.405 21.911 20.774 49.895 35.344 81.019 40.781l0.943 0.136c13.867 2.475 47.616 0.725 62.891-3.328zM778.24 361.6c-13.44-5.504-21.376-31.147-14.293-46.080 4.309-9.131 10.709-12.416 32.64-16.939 45.824-9.472 66.688-19.499 73.984-35.669 8.704-19.072-1.28-35.627-28.971-48.213-20.693-9.387-27.392-18.304-25.088-33.493 1.493-9.941 10.112-24.405 16.597-27.733 14.805-7.68 45.568 3.328 70.699 25.216 23.808 20.779 33.152 41.173 33.152 72.192 0 8.533-1.195 20.011-2.603 25.515-9.941 38.101-44.032 64.896-101.419 79.659-19.115 4.949-48.853 7.936-54.699 5.547zM337.067 341.163l-28.16-2.432c-128.341-10.923-201.216-49.493-219.52-116.139-4.139-15.104-4.139-47.829 0.043-63.019 11.392-41.771 49.365-75.648 105.173-93.867 43.221-14.123 89.899-20.864 167.467-24.149 116.949-4.992 223.829 7.083 281.259 31.744 47.317 20.352 77.141 51.456 86.187 89.856 3.328 14.080 3.328 43.605 0 57.685-13.44 57.173-69.248 94.677-165.376 111.104-44.117 7.509-65.408 8.917-144.299 9.387-10.478 0.133-22.853 0.209-35.245 0.209-16.712 0-33.392-0.138-50.039-0.412l2.51 0.033zM480.427 277.291c53.632-3.371 90.923-9.387 121.856-19.712 24.021-8.021 36.608-14.976 49.024-27.179 16.299-15.957 21.291-34.176 15.147-54.912-11.051-37.248-71.765-60.629-178.347-68.821-31.317-2.389-128.427-2.432-158.72-0.085-83.797 6.485-134.912 20.651-161.109 44.587-24.064 22.016-25.088 56.491-2.304 78.421 14.293 13.739 30.507 21.888 61.696 30.933 27.264 7.893 77.355 15.275 117.931 17.365 26.069 1.323 110.251 0.981 134.827-0.597z" />
<glyph unicode="&#xe901;" glyph-name="User" d="M468.949 806.443c-19.84-4.181-30.037-7.68-47.744-16.299-76.117-37.035-119.125-119.68-106.325-204.416 14.771-93.662 94.917-164.437 191.592-164.437 6.86 0 13.638 0.356 20.314 1.052l-0.835-0.070c10.453 1.109 24.875 3.584 32 5.547 83.309 23.1 143.453 98.239 143.488 187.43v0.004c0.001 0.266 0.002 0.58 0.002 0.894 0 84.596-54.074 156.563-129.544 183.22l-1.36 0.419c-29.781 10.325-71.296 13.013-101.589 6.656zM227.243 765.355c-49.513-14.172-88.268-50.905-104.965-98.067l-0.337-1.091c-6.101-17.92-8.149-34.816-7.125-58.197 1.109-24.533 4.992-40.021 15.232-60.544 20.404-40.164 56.751-69.735 100.486-80.63l1.061-0.224c33.92-8.064 49.195 0.256 51.157 27.989 1.408 19.584-6.101 27.392-32.213 33.408-18.731 4.352-31.957 11.349-44.544 23.552-12.331 11.947-17.664 20.096-22.955 34.944-3.669 10.283-4.48 15.573-4.523 29.611-0.043 27.477 7.637 45.867 27.264 65.109 12.16 11.989 25.557 19.072 45.568 24.192 7.296 1.877 15.232 4.651 17.579 6.187 14.123 9.259 14.933 35.584 1.621 50.133-5.419 5.931-6.229 6.187-18.219 6.656-8.533 0.299-16.555-0.683-25.088-3.029zM747.477 765.013c-7.637-5.205-12.16-14.635-13.056-27.392-1.365-19.157 5.205-26.411 29.611-32.64 33.792-8.576 56.619-28.8 67.328-59.563 13.227-38.016-0.981-81.067-34.091-103.296-11.605-7.808-20.011-11.221-36.48-14.933-22.699-5.077-29.312-12.16-29.013-31.189 0.171-13.696 5.461-24.832 14.037-29.568 11.733-6.528 43.221-1.109 69.12 11.819 31.694 16.249 56.586 41.98 71.36 73.409l0.405 0.959c20.352 43.179 17.408 99.755-7.424 141.739-12.044 18.818-26.652 34.77-43.563 47.895l-0.426 0.318c-29.867 21.291-73.173 32.384-87.808 22.443zM533.376 744.021c27.435-5.632 48.768-17.835 69.248-39.552 14.336-15.232 22.187-28.245 29.099-48.341 5.163-15.019 5.547-17.707 5.589-39.168 0.043-18.987-0.64-25.429-3.84-36.608-8.227-27.822-24.51-51.136-46.121-67.914l-0.301-0.225c-23.637-18.517-47.957-26.752-79.317-26.88-43.008-0.171-76.075 15.573-103.296 49.28-18.816 23.253-27.691 48.768-27.819 79.787-0.085 36.224 11.221 65.451 35.2 90.837 23.952 25.507 57.889 41.395 95.537 41.395 9.21 0 18.198-0.951 26.87-2.76l-0.85 0.148zM161.28 382.336c-82.261-12.885-125.269-54.101-117.163-112.299 3.584-25.728 17.067-46.891 39.339-61.739 25.216-16.725 45.568-21.845 57.515-14.507 8.619 5.333 16.725 22.869 15.701 33.792-1.195 12.032-6.016 17.749-21.376 25.045-16.725 7.893-22.059 11.733-25.429 18.261-5.973 11.605-1.792 24.107 10.795 32.085 10.027 6.357 23.68 10.837 48.725 16.043 22.699 4.693 28.629 7.979 32.64 18.048 7.168 17.835-1.835 41.941-16.853 45.269l-7.68 1.621c-5.777-0.069-11.373-0.656-16.799-1.717l0.585 0.095zM832.555 383.061c-14.464-2.389-22.101-13.909-22.229-33.493-0.085-18.304 7.936-25.685 32.725-30.208 34.389-6.315 55.979-16.341 62.080-28.885 6.784-13.824-0.64-25.515-23.253-36.565-22.699-11.093-28.032-20.309-22.571-39.168 1.775-6.967 5.513-12.893 10.585-17.332l0.039-0.034c7.723-7.424 7.765-7.467 18.56-6.741 23.808 1.493 61.44 27.52 73.003 50.389 9.557 18.987 12.075 41.813 6.955 63.488-8.235 34.944-39.083 59.648-90.581 72.533-20.864 5.248-37.12 7.381-45.312 6.016zM442.027 364.245c-75.307-4.779-127.275-17.152-165.205-39.381-9.070-6.236-17.007-12.887-24.265-20.212l-0.012-0.012c-22.443-22.4-30.677-42.325-30.677-74.24 0-31.957 8.235-51.883 30.72-74.24 7.979-7.979 18.901-17.067 24.235-20.224 33.237-19.499 77.952-31.445 143.019-38.144 28.757-2.987 147.029-2.987 175.787 0 80 8.235 126.080 23.083 160.085 51.541 36.779 30.763 47.957 84.48 26.624 127.957-4.864 9.856-9.771 16.213-20.992 27.349-7.309 7.325-15.287 13.976-23.838 19.855l-0.568 0.369c-30.592 17.92-71.339 29.568-125.952 36.011-41.771 4.907-119.765 6.443-168.96 3.371zM557.227 301.184c83.627-4.608 133.333-17.28 157.995-40.363 10.837-10.112 14.251-19.072 13.141-34.304-0.327-13.001-6.995-24.377-17.017-31.188l-0.135-0.087c-31.531-22.997-87.552-34.389-181.035-36.779-93.995-2.389-168.619 7.253-210.816 27.221-14.251 6.741-29.355 21.376-32.299 31.275-10.709 36.437 19.755 62.421 88.576 75.477 47.232 8.96 116.821 12.288 181.589 8.747z" />
<glyph unicode="&#xe902;" glyph-name="Activity" d="M837.12 893.568c-41.344-5.035-79.019-36.693-92.459-77.653-3.925-11.947-4.523-16.64-4.523-35.115s0.597-23.168 4.523-35.115c10.624-32.384 39.339-62.123 69.717-72.235 22.699-7.552 54.869-8.064 74.325-1.195 29.282 10.378 52.715 31.096 66.378 57.662l0.31 0.664c7.851 15.573 10.923 29.696 10.923 50.219 0 28.075-6.912 48.512-23.68 70.357-13.824 17.963-37.803 34.005-59.008 39.552-9.838 2.204-21.138 3.467-32.732 3.467-4.849 0-9.647-0.221-14.384-0.653l0.609 0.045zM304.64 857.557c-100.693-7.552-177.877-69.12-205.568-163.968-11.52-39.552-10.88-26.283-11.605-248.149-0.427-141.696-0.043-206.464 1.323-218.453 5.035-44.971 17.877-81.792 40.491-116.053 33.707-51.072 84.267-83.371 149.12-95.147l21.12-3.84h210.773c191.573 0 212.267 0.256 226.987 2.944 44.373 7.979 78.549 22.869 110.251 48 36.949 29.269 66.645 78.379 78.336 129.579 7.381 32.171 7.637 39.040 7.637 212.011 0 103.851-0.597 167.808-1.664 171.605-6.656 23.893-49.152 25.387-59.093 2.091-1.92-4.523-2.347-33.664-2.347-164.907 0-98.176-0.683-166.101-1.792-176.768-7.765-75.989-48.939-131.413-112.555-151.637-26.453-8.405-16.384-8.064-246.613-8.064h-216.747l-14.805 3.797c-29.739 7.552-51.157 18.773-70.955 37.12-31.616 29.269-49.664 67.968-54.997 117.803-1.451 13.611-1.792 72.021-1.365 211.627 0.64 192.043 0.64 192.939 4.437 209.493 7.637 33.621 17.664 55.552 35.541 77.867 22.144 27.733 48.128 44.075 87.637 55.253 12.587 3.584 16 3.669 191.147 4.608 169.259 0.896 178.688 1.109 184.704 4.096 10.027 4.992 14.080 13.141 14.080 28.416s-4.053 23.424-14.080 28.416c-6.059 2.987-14.208 3.157-169.344 3.371-89.643 0.085-170.667-0.384-180.053-1.109zM873.131 826.197c10.283-4.779 19.627-13.653 24.96-23.68 5.504-10.368 5.504-33.067 0-43.435-19.115-36.011-68.181-37.376-88.704-2.475-4.224 7.168-4.693 9.6-4.693 24.192s0.469 17.024 4.693 24.192c5.803 9.856 16.555 19.243 25.813 22.528 11.307 4.011 27.733 3.456 37.931-1.323zM693.973 572.203c-4.736-2.773-22.016-23.765-61.867-75.093l-55.253-71.211-61.867 48.768c-34.048 26.837-64.341 49.835-67.371 51.157-3.397 1.475-7.353 2.332-11.51 2.332-5.13 0-9.954-1.306-14.159-3.604l0.154 0.077c-5.803-3.584-137.003-172.288-142.805-183.637-4.181-8.107-3.669-21.12 1.024-27.179 5.291-6.784 9.557-10.368 17.365-14.507 8.107-4.309 20.267-3.755 27.221 1.237 2.475 1.792 29.611 35.712 60.245 75.392 30.592 39.68 56.235 72.491 56.875 72.917 0.683 0.427 29.184-21.205 63.317-48.085 34.176-26.837 64.597-49.877 67.627-51.157 11.819-4.949 24.704-0.768 34.261 11.221 27.349 34.261 128.512 166.101 130.645 170.283 1.813 3.466 2.877 7.571 2.877 11.925 0 5.838-1.912 11.228-5.145 15.58l0.050-0.070c-10.667 14.72-29.44 20.864-41.685 13.653z" />
<glyph unicode="&#xe903;" glyph-name="Add-User" d="M396.416 873.045c-98.123-11.661-176.454-84.19-196.68-178.3l-0.27-1.498c-4.267-20.395-5.248-62.592-1.877-82.389 12.526-73.068 58.46-133.297 121.206-165.249l1.29-0.596c32.555-16.341 62.72-23.168 102.315-23.083 59.904 0.128 112.469 21.077 155.093 61.909 43.28 41.067 70.208 99.003 70.208 163.229 0 6.974-0.318 13.875-0.939 20.687l0.065-0.876c-4.821 54.144-25.429 99.499-62.635 137.941-33.451 34.56-76.288 57.771-120.832 65.536-18.944 3.285-50.517 4.565-66.944 2.688zM444.16 808.875c19.584-2.005 50.475-13.995 69.547-26.923 11.307-7.637 31.744-27.819 40.107-39.552 10.027-14.080 18.731-32.043 24.192-49.835 4.224-13.739 4.608-17.536 4.736-44.032 0.085-32.427-2.176-43.947-13.483-68.395-26.66-56.638-83.259-95.141-148.851-95.141-9.392 0-18.6 0.789-27.56 2.306l0.966-0.135c-64.725 10.368-118.059 61.909-131.883 127.488-3.712 17.408-3.712 48.512-0.085 65.792 11.051 52.267 49.323 98.176 98.261 117.888 28.885 11.605 49.152 14.165 84.053 10.539zM807.125 620.544c-7.186-2.053-12.974-6.935-16.188-13.334l-0.068-0.149c-2.475-5.163-3.2-12.16-3.755-38.144l-0.725-31.872-33.536-0.555c-31.275-0.555-33.92-0.853-39.723-4.48-8.576-5.333-12.331-13.952-12.245-27.947 0.085-13.227 3.541-20.651 12.416-26.624 5.461-3.669 7.253-3.84 39.595-3.84h33.877l0.085-26.88c0.171-40.405 2.261-48.171 15.189-55.723 7.723-4.523 26.411-4.48 35.243 0.128 11.776 6.101 13.397 11.904 14.037 49.621l0.555 32.853h33.237c37.376 0 42.795 1.323 49.28 12.203 4.864 8.149 4.821 28.928-0.043 37.248-6.827 11.563-11.179 12.757-48.853 13.397l-33.579 0.555-0.555 32.725c-0.683 36.565-1.963 41.301-13.099 47.787-6.187 3.627-24.064 5.376-31.147 3.029zM334.507 340.352c-120.576-9.387-192.939-35.797-226.005-82.432-17.28-24.405-22.187-40.32-22.101-71.893 0.085-19.243 0.683-23.979 4.565-35.84 18.56-56.491 74.453-92.245 169.301-108.288 91.179-15.445 232.619-15.445 323.413 0.085 49.28 8.405 88.491 22.187 116.267 40.875 14.037 9.429 33.195 29.013 40.533 41.387 10.587 17.596 16.85 38.834 16.85 61.536 0 32.078-12.505 61.236-32.906 82.865l0.056-0.059c-35.968 37.888-93.056 58.795-189.867 69.504-29.397 3.243-167.509 4.821-200.107 2.261zM525.611 274.901c91.435-9.856 145.237-30.848 161.707-63.104 5.76-11.307 7.296-31.104 3.328-42.795-13.952-40.832-73.515-63.957-187.179-72.576-29.696-2.219-132.309-2.261-162.133 0-106.581 8.021-167.936 29.739-186.581 65.963-6.741 13.056-6.357 36.523 0.768 50.56 17.835 34.859 82.048 56.619 190.080 64.341 32.213 2.304 151.040 0.725 180.011-2.389z" />
<glyph unicode="&#xe904;" glyph-name="Arrow---Down-2" d="M200.533 627.456c-8.021-4.907-17.536-16.427-19.797-23.979-4.608-15.403-11.093-8.107 157.824-177.109 84.608-84.608 156.501-155.477 159.787-157.44 3.94-2.203 8.645-3.501 13.653-3.501s9.713 1.298 13.798 3.575l-0.144-0.074c3.285 1.963 75.179 72.832 159.787 157.44 169.003 169.088 162.432 161.707 157.781 177.152-2.261 7.637-13.483 20.821-20.864 24.661-6.229 3.243-17.408 3.072-24.149-0.299-2.987-1.536-68.608-65.835-145.835-142.933l-140.373-140.117-140.373 140.117c-77.184 77.099-142.848 141.397-145.835 142.933-7.296 3.669-18.901 3.456-25.259-0.427z" />
<glyph unicode="&#xe905;" glyph-name="Arrow---Down-3" d="M509.44 830.208c-5.98-1.692-10.843-5.623-13.723-10.807l-0.059-0.115c-3.157-4.907-3.328-11.093-4.139-186.88l-0.853-181.845-97.28-0.853c-109.227-0.939-105.045-0.469-111.787-13.611-3.925-7.765-4.608-22.827-1.28-30.251 2.517-5.675 212.992-340.181 219.136-348.245 10.965-14.464 32.896-14.549 46.080-0.171 6.187 6.784 219.563 346.581 222.208 353.877 4.907 13.483-2.091 27.435-17.408 34.859-7.125 3.456-9.771 3.541-101.461 3.541h-94.165l-0.427 181.333c-0.469 178.901-0.512 181.419-3.925 187.264-2.379 3.673-5.4 6.721-8.931 9.060l-0.114 0.071c-6.443 3.755-24.149 5.333-31.872 2.773zM677.547 385.835c0-1.664-154.027-245.035-155.051-244.949-1.195 0.085-151.424 238.379-153.173 242.987-0.939 2.432 13.056 2.688 153.6 2.688 85.035 0 154.624-0.341 154.624-0.725z" />
<glyph unicode="&#xe906;" glyph-name="Arrow---Down-Circle" d="M472.747 872.747c-79.957-7.040-158.848-38.571-225.28-89.984-18.645-14.464-55.765-51.584-70.229-70.229-95.403-123.264-118.059-283.691-60.075-425.813 22.521-54.595 54.184-101.15 93.52-139.942l0.048-0.047c23.979-24.021 41.515-38.357 68.309-55.851 65.78-43.375 146.469-69.195 233.187-69.195 72.941 0 141.615 18.267 201.698 50.475l-2.288-1.12c193.195 102.528 277.803 335.787 195.2 538.24-70.656 173.227-246.656 280.064-434.091 263.467zM562.347 807.083c52.873-8.065 100.319-25.882 142.379-51.636l-1.665 0.948c47.39-30.733 86.6-69.943 116.413-115.823l0.92-1.51c24.704-39.637 43.648-91.989 50.944-140.715 3.755-25.216 3.755-75.477 0-100.693-10.363-67.27-37.204-126.9-76.256-176.459l0.608 0.8c-17.784-21.029-36.657-39.901-56.985-57.107l-0.701-0.578c-48.759-38.444-108.389-65.285-173.553-75.38l-2.105-0.268c-25.216-3.755-75.477-3.755-100.693 0-79.872 11.989-149.12 46.763-205.696 103.296-56.533 56.576-91.307 125.824-103.296 205.696-3.755 25.216-3.755 75.477 0 100.693 11.989 79.872 46.763 149.12 103.296 205.696 34.891 35.731 77.354 63.903 124.811 81.937l2.378 0.794c38.195 15.112 82.443 23.873 128.736 23.873 17.802 0 35.301-1.296 52.408-3.798l-1.945 0.234zM355.029 541.653c-12.672-5.035-24.405-20.523-24.405-32.213 0-4.011 1.707-9.472 4.395-13.952 2.389-4.053 39.936-42.837 83.413-86.144 87.083-86.784 85.419-85.461 100.821-80.939 6.272 1.835 18.133 13.013 87.723 82.603 44.245 44.288 81.792 83.157 83.413 86.443 1.72 3.582 2.801 7.766 2.985 12.182l0.002 0.064c0 12.971-15.317 30.635-28.715 33.152-12.843 2.389-14.805 0.768-85.675-69.845l-66.987-66.773-66.133 66.048c-73.429 73.344-75.989 75.307-90.837 69.376z" />
<glyph unicode="&#xe907;" glyph-name="Arrow---Down-Square" d="M296.363 872.619c-25.155-2.89-48.099-8.717-69.708-17.201l1.868 0.646c-81.707-34.005-132.693-107.947-141.397-204.971-2.389-26.411-2.389-379.776 0-406.187 3.157-35.456 10.624-63.744 24.533-93.099 26.965-56.875 71.296-96.64 129.835-116.48 19.328-6.571 35.84-9.941 59.733-12.203 25.429-2.432 396.117-2.432 421.547 0 60.16 5.675 106.24 26.496 145.109 65.493 40.405 40.576 62.891 91.563 68.949 156.288 2.389 25.856 2.517 379.264 0.085 405.333-7.979 86.571-48.043 154.283-113.451 191.829-28.56 16.708-62.358 27.739-98.446 30.665l-0.84 0.055c-25.557 2.304-402.773 2.176-427.819-0.171zM713.984 809.813c44.885-3.755 76.544-16.853 104.789-43.435 28.587-26.88 44.203-57.429 52.821-103.339 2.859-14.976 3.072-31.275 3.072-215.040 0-216.32 0.256-209.664-9.643-243.2-16.681-56.935-61.984-100.34-118.863-114.034l-1.116-0.227c-8.776-1.836-19.56-3.377-30.523-4.285l-1.008-0.067c-26.197-2.176-377.216-2.176-403.499 0-44.885 3.755-76.544 16.853-104.789 43.435-28.587 26.88-45.099 59.221-52.779 103.339-2.901 16.64-3.115 31.787-3.115 215.040s0.213 198.4 3.115 215.040c7.68 44.117 24.192 76.459 52.779 103.339 27.392 25.771 60.587 39.893 101.845 43.307 24.149 2.005 382.891 2.091 406.912 0.128zM499.925 652.971c-7.205-2.085-13.020-6.954-16.315-13.335l-0.069-0.148c-2.944-5.931-3.157-14.464-3.584-147.029l-0.512-140.715-56.661 56.533c-49.792 49.621-57.6 56.747-64.085 58.453-8.576 2.261-15.36 0.597-24.32-6.016-13.739-10.155-18.859-26.112-12.501-38.827 1.536-2.987 38.699-41.557 82.603-85.675s80.683-81.877 81.707-83.925c2.347-4.608 18.645-12.501 25.813-12.501s23.467 7.893 25.813 12.501c1.024 2.048 37.803 39.808 81.707 83.925s81.067 82.688 82.603 85.675c6.357 12.715 1.237 28.672-12.501 38.827-8.96 6.613-15.744 8.277-24.32 6.016-6.485-1.707-14.293-8.832-64.085-58.453l-56.661-56.533-0.512 140.715c-0.427 133.12-0.64 141.056-3.627 147.072-4.437 8.96-12.672 13.568-25.515 14.293-1.325 0.115-2.868 0.18-4.425 0.18-3.733 0-7.379-0.376-10.9-1.093l0.35 0.059z" />
<glyph unicode="&#xe908;" glyph-name="Arrow---Down" d="M509.44 786.859c-7.984-2.794-14.018-9.307-16.090-17.406l-0.038-0.173c-1.195-4.309-1.792-99.072-1.835-290.56l-0.043-284.16-103.637 104.448c-57.003 57.429-106.24 105.685-109.483 107.264-13.099 6.4-28.587 0.299-39.936-15.787-5.931-8.32-6.613-20.011-1.664-27.819 1.792-2.773 62.635-65.195 135.296-138.624 91.733-92.8 134.144-134.571 138.88-136.789 3.902-1.857 8.478-2.942 13.309-2.942 4.423 0 8.633 0.909 12.454 2.551l-0.205-0.078c3.797 1.621 16.811 13.653 34.688 32.128 15.701 16.256 75.563 76.8 133.035 134.528 57.429 57.728 105.685 107.435 107.179 110.421 11.733 23.424-18.688 53.845-42.155 42.155-2.987-1.493-52.523-49.664-109.995-107.093l-104.533-104.363v287.232c0 279.040-0.085 287.36-3.243 293.547-2.166 3.873-5.113 7.066-8.65 9.453l-0.097 0.062c-7.296 4.267-24.363 5.291-33.237 2.005z" />
<glyph unicode="&#xe909;" glyph-name="Arrow---Left-2" d="M650.24 777.259c-5.973-2.688-42.112-37.888-160.725-156.544-84.139-84.181-154.624-155.776-156.544-159.061-2.217-3.95-3.522-8.668-3.522-13.692 0-4.993 1.289-9.684 3.554-13.759l-0.074 0.145c1.963-3.285 72.832-75.179 157.44-159.787 169.088-169.003 161.707-162.432 177.152-157.781 7.637 2.261 20.821 13.483 24.661 20.864 3.243 6.229 3.072 17.408-0.299 24.149-1.536 2.987-65.835 68.608-142.933 145.835l-140.117 140.373 140.117 140.373c77.099 77.184 141.397 142.848 142.933 145.835 3.371 6.741 3.541 17.92 0.299 24.064-5.504 10.496-22.315 22.613-31.232 22.485-4.020-0.716-7.612-1.932-10.937-3.602l0.228 0.104z" />
<glyph unicode="&#xe90a;" glyph-name="Arrow---Left-3" d="M467.627 678.656c-7.723-3.925-338.688-212.523-346.027-218.112-3.311-2.585-6.059-5.715-8.151-9.276l-0.083-0.153c-5.547-10.709-1.835-27.563 8.064-36.651 6.784-6.187 346.581-219.563 353.877-222.208 13.483-4.907 27.435 2.091 34.859 17.408 3.456 7.125 3.541 9.771 3.541 101.504v94.165h359.381l7.595 3.84c10.837 5.504 14.464 12.629 14.464 28.587 0 14.592-2.987 21.333-11.733 26.667-5.12 3.072-12.843 3.243-187.093 4.053l-181.76 0.853-0.853 97.28c-0.939 109.227-0.469 105.045-13.611 111.787-8.619 4.352-24.107 4.48-32.469 0.256zM450.56 436.907c0-84.949-0.341-154.453-0.725-154.453-1.707 0-245.035 154.027-244.949 155.051 0.085 1.28 242.432 153.856 244.395 153.856 0.725 0 1.28-69.504 1.28-154.453z" />
<glyph unicode="&#xe90b;" glyph-name="Arrow---Left-Circle" d="M472.747 872.747c-79.957-7.040-158.848-38.571-225.28-89.984-18.645-14.464-55.765-51.584-70.229-70.229-114.901-148.437-122.581-347.435-19.328-501.76 98.517-147.285 275.499-217.472 449.664-178.389 157.525 35.371 284.587 162.475 320.043 320.043 8.021 35.755 10.069 54.869 10.069 95.573s-2.048 59.819-10.069 95.573c-21.907 92.6-71.431 171.361-139.27 229.309l-0.592 0.493c-74.114 62.871-170.855 101.101-276.525 101.101-13.549 0-26.951-0.629-40.179-1.858l1.695 0.127zM562.347 807.083c52.873-8.065 100.319-25.882 142.379-51.636l-1.665 0.948c47.39-30.733 86.6-69.943 116.413-115.823l0.92-1.51c24.704-39.637 43.648-91.989 50.944-140.715 3.755-25.216 3.755-75.477 0-100.693-10.363-67.27-37.204-126.9-76.256-176.459l0.608 0.8c-17.784-21.029-36.657-39.901-56.985-57.107l-0.701-0.578c-48.759-38.444-108.389-65.285-173.553-75.38l-2.105-0.268c-25.216-3.755-75.477-3.755-100.693 0-67.27 10.323-126.906 37.154-176.456 76.212l0.798-0.606c-27.648 21.717-62.805 61.269-82.389 92.672-24.704 39.637-43.648 92.032-50.944 140.715-5.163 34.731-3.627 85.419 3.712 122.027 23.313 110.687 94.228 201.273 189.839 250.818l2.033 0.958c47.636 24.678 103.992 39.149 163.728 39.149 17.769 0 35.239-1.28 52.322-3.754l-1.949 0.232zM566.4 628.224c-4.241-1.609-7.899-3.534-11.278-5.836l0.185 0.119c-2.688-1.963-39.979-38.784-82.816-81.792-67.072-67.328-78.251-79.232-80.085-85.461-4.523-15.403-5.888-13.696 80.939-100.821 43.307-43.477 82.091-81.024 86.144-83.413 9.643-5.717 18.304-5.717 28.16 0.085 8.875 5.205 17.749 16.384 19.243 24.363 2.347 12.672 0.64 14.805-69.888 85.547l-66.773 66.987 66.773 66.987c70.613 70.869 72.235 72.832 69.845 85.675-1.493 8.064-9.856 18.773-18.389 23.68-9.856 5.589-14.72 6.443-22.059 3.883z" />
<glyph unicode="&#xe90c;" glyph-name="Arrow---Left-Square" d="M306.347 872.789c-33.411-2.951-64.135-11.658-92.127-25.137l1.588 0.689c-23.467-11.136-40.405-22.485-57.771-38.699-41.344-38.613-65.408-89.387-70.827-149.461-2.517-27.776-2.56-396.416-0.085-423.808 7.765-84.565 52.949-151.979 125.355-187.008 31.488-15.232 58.965-22.699 96.427-26.197 25.856-2.389 379.264-2.517 405.333-0.085 36.608 3.371 64.384 10.624 93.952 24.619 69.035 32.64 111.957 89.899 126.592 169.003 2.56 13.739 2.944 37.504 3.456 217.643 0.725 236.587 0.384 243.072-13.568 284.16-29.995 88.448-107.051 145.195-209.579 154.368-23.424 2.133-385.579 2.048-408.747-0.085zM728.747 807.467c45.141-9.003 75.221-24.619 101.632-52.693 26.581-28.245 39.68-59.904 43.435-104.789 2.176-26.624 2.176-377.344 0-403.968-3.755-44.885-16.853-76.544-43.435-104.789-26.88-28.587-57.429-44.203-103.339-52.821-14.976-2.859-31.232-3.072-214.187-3.072-184.875 0-199.168 0.213-215.808 3.157-44.373 7.808-77.141 24.533-103.552 52.736-26.325 28.16-39.595 60.288-43.307 104.789-2.176 26.624-2.176 377.344 0 403.968 3.755 44.885 16.853 76.544 43.435 104.789 31.019 32.981 71.253 50.859 123.819 55.040 8.917 0.725 101.845 1.152 206.507 0.939 171.051-0.384 191.744-0.683 204.8-3.285zM484.693 637.269c-3.285-1.92-41.685-39.083-85.333-82.56s-81.024-79.872-83.072-80.896c-4.608-2.347-12.501-18.645-12.501-25.813s7.893-23.467 12.501-25.813c2.048-1.024 39.808-37.803 83.925-81.707s82.688-81.067 85.675-82.603c12.715-6.357 28.672-1.237 38.827 12.501 6.613 8.96 8.277 15.744 6.016 24.32-1.707 6.485-8.832 14.293-58.453 64.085l-56.533 56.661 140.715 0.512c133.12 0.427 141.056 0.64 147.072 3.627 10.027 4.992 14.037 13.056 14.080 28.373s-3.968 23.424-14.080 28.459c-6.016 2.987-13.952 3.2-147.072 3.627l-140.715 0.512 56.533 56.661c49.621 49.792 56.747 57.6 58.453 64.085 2.261 8.576 0.597 15.36-6.016 24.32-10.624 14.379-27.307 19.243-40.021 11.648z" />
<glyph unicode="&#xe90d;" glyph-name="Arrow---Left" d="M434.176 726.144c-3.526-0.851-6.63-2.202-9.422-3.998l0.121 0.073c-2.176-1.536-63.915-62.080-137.216-134.528-92.501-91.52-134.187-133.845-136.405-138.581-1.857-3.902-2.942-8.478-2.942-13.309 0-4.423 0.909-8.633 2.551-12.454l-0.078 0.205c1.621-3.797 13.653-16.811 32.128-34.688 16.256-15.701 76.8-75.563 134.528-133.035 57.728-57.429 107.435-105.685 110.421-107.179 23.424-11.733 53.845 18.688 42.155 42.155-1.493 2.987-49.664 52.523-107.093 109.995l-104.363 104.533h287.232c279.040 0 287.36 0.085 293.547 3.243 9.685 4.992 13.141 12.245 13.141 27.477 0 14.976-3.499 22.571-12.843 28.117-5.888 3.413-8.107 3.456-293.291 4.309l-287.36 0.853 101.675 100.437c55.979 55.211 104.107 103.979 107.051 108.373 4.608 6.912 5.205 9.088 4.608 16.768-1.408 18.261-21.589 34.731-38.144 31.232z" />
<glyph unicode="&#xe90e;" glyph-name="Arrow---Right-2" d="M353.28 778.069c-6.955-2.987-18.005-13.184-21.461-19.797-3.243-6.144-3.072-17.323 0.299-24.064 1.536-2.987 65.835-68.651 142.933-145.835l140.117-140.373-140.117-140.373c-77.099-77.227-141.397-142.848-142.933-145.835-3.371-6.741-3.541-17.92-0.299-24.149 3.84-7.381 17.024-18.603 24.661-20.864 15.445-4.651 8.064-11.221 177.152 157.781 84.608 84.608 155.477 156.501 157.44 159.787 2.19 3.93 3.48 8.622 3.48 13.614 0 5.024-1.306 9.743-3.596 13.836l0.074-0.143c-1.92 3.285-72.405 74.88-156.544 159.061-155.136 155.179-160.384 160.085-171.819 160-3.487-0.439-6.655-1.369-9.585-2.728l0.199 0.083z" />
<glyph unicode="&#xe90f;" glyph-name="Arrow---Right-3" d="M529.835 703.317c-6.059-2.645-13.952-11.477-17.237-19.328-1.835-4.352-2.304-24.448-2.304-99.413v-93.909h-359.381l-7.595-3.84c-10.837-5.504-14.464-12.629-14.464-28.587 0-14.592 2.987-21.333 11.733-26.667 5.12-3.072 12.843-3.243 187.093-4.053l181.76-0.853 0.853-97.28c0.939-109.227 0.469-105.045 13.611-111.787 4.839-2.146 10.483-3.396 16.419-3.396 5.665 0 11.065 1.138 15.982 3.199l-0.273-0.101c7.424 3.627 338.219 211.968 346.368 218.155 3.311 2.585 6.059 5.715 8.151 9.276l0.083 0.153c5.547 10.709 1.835 27.563-8.064 36.651-4.693 4.267-334.208 212.139-347.648 219.307-9.941 5.291-17.024 5.973-25.088 2.475zM697.045 536.576c67.2-42.325 122.112-77.44 122.069-78.080-0.085-1.152-239.829-152.235-243.541-153.429-1.707-0.555-2.133 30.976-2.133 153.899 0 84.992 0.341 154.581 0.725 154.581s55.68-34.645 122.88-76.971z" />
<glyph unicode="&#xe910;" glyph-name="Arrow---Right-Circle" d="M472.747 872.747c-79.957-7.040-158.848-38.571-225.28-89.984-18.645-14.464-55.765-51.584-70.229-70.229-95.403-123.264-118.059-283.691-60.075-425.813 22.521-54.595 54.184-101.15 93.52-139.942l0.048-0.047c23.979-24.021 41.515-38.357 68.309-55.851 183.637-120.192 429.824-80.299 566.784 91.861 47.829 60.117 76.544 127.104 88.832 207.232 4.181 27.349 4.181 88.704 0 116.053-10.624 69.163-31.488 123.691-68.565 179.2-86.827 129.92-236.715 201.387-393.344 187.52zM562.347 807.083c52.873-8.065 100.319-25.882 142.379-51.636l-1.665 0.948c31.403-19.584 70.955-54.741 92.672-82.389 38.408-48.77 65.231-108.396 75.336-173.549l0.269-2.11c3.755-25.216 3.755-75.477 0-100.693-10.363-67.27-37.204-126.9-76.256-176.459l0.608 0.8c-17.784-21.029-36.657-39.901-56.985-57.107l-0.701-0.578c-48.744-38.478-108.382-65.326-173.563-75.382l-2.096-0.266c-25.216-3.755-75.477-3.755-100.693 0-79.872 11.989-149.12 46.763-205.696 103.296-56.619 56.661-91.307 125.696-103.296 205.696-3.755 25.216-3.755 75.477 0 100.693 11.989 79.872 46.763 149.12 103.296 205.696 34.891 35.731 77.354 63.903 124.811 81.937l2.378 0.794c38.195 15.112 82.443 23.873 128.736 23.873 17.802 0 35.301-1.296 52.408-3.798l-1.945 0.234zM445.056 628.864c-12.757-3.712-25.771-16.896-27.904-28.203-2.389-12.843-0.768-14.805 69.845-85.675l66.773-66.987-66.773-66.987c-70.613-70.869-72.235-72.832-69.845-85.675 2.56-13.525 20.181-28.715 33.408-28.715 4.011 0 9.472 1.707 13.952 4.395 4.053 2.389 42.837 39.936 86.144 83.413 86.784 87.083 85.461 85.419 80.939 100.821-1.835 6.272-13.013 18.133-82.603 87.723-44.288 44.245-82.816 81.579-85.632 82.944-7.381 3.627-12.971 4.523-18.304 2.944z" />
<glyph unicode="&#xe911;" glyph-name="Arrow---Right-Square" d="M306.347 872.789c-43.648-3.968-88.789-19.499-122.112-41.984-44.587-30.080-76.757-76.672-90.411-131.072-8.021-31.787-8.491-46.123-8.491-251.733s0.469-219.947 8.491-251.733c24.917-99.115 104.533-162.944 215.936-173.184 25.131-2.347 379.349-2.347 404.48 0 36.608 3.371 64.384 10.624 93.952 24.619 46.080 21.76 79.872 54.059 103.040 98.432 14.549 27.861 22.272 55.253 25.643 91.093 2.432 25.429 2.432 396.117 0 421.547-3.413 35.925-11.051 63.019-25.856 91.563-36.736 70.656-106.197 114.091-195.925 122.496-23.253 2.176-384.896 2.133-408.747-0.043zM728.747 807.467c44.288-8.832 71.168-22.4 98.219-49.579 29.184-29.312 42.923-60.971 46.848-107.904 2.176-26.624 2.176-377.344 0-403.968-3.712-44.501-16.981-76.629-43.307-104.789-26.411-28.203-59.179-44.928-103.552-52.736-16.64-2.944-30.933-3.157-215.808-3.157-182.955 0-199.211 0.213-214.187 3.072-45.909 8.619-76.459 24.235-103.339 52.821-26.581 28.245-39.68 59.904-43.435 104.789-2.176 26.624-2.176 377.344 0 403.968 3.755 44.885 16.853 76.544 43.435 104.789 31.019 32.981 71.253 50.859 123.819 55.040 8.917 0.725 101.845 1.152 206.507 0.939 171.051-0.384 191.744-0.683 204.8-3.285zM510.592 636.117c-13.952-9.387-20.565-22.613-17.323-34.816 1.707-6.485 8.832-14.293 58.453-64.085l56.533-56.661-140.715-0.512c-133.12-0.427-141.056-0.64-147.072-3.627-10.069-5.035-14.123-13.141-14.123-28.416s4.053-23.381 14.123-28.416c6.016-2.987 13.952-3.2 147.072-3.627l140.715-0.512-56.533-56.661c-49.621-49.792-56.747-57.6-58.453-64.085-2.261-8.576-0.597-15.36 6.016-24.32 10.155-13.739 26.112-18.859 38.827-12.501 2.987 1.536 41.557 38.699 85.675 82.603s81.877 80.683 83.925 81.707c4.608 2.347 12.501 18.645 12.501 25.813s-7.893 23.467-12.501 25.813c-2.048 1.024-39.808 37.803-83.925 81.707s-82.688 81.067-85.675 82.603c-3.513 1.738-7.649 2.755-12.022 2.755-5.786 0-11.155-1.78-15.592-4.822l0.094 0.061z" />
<glyph unicode="&#xe912;" glyph-name="Arrow---Right" d="M572.587 747.264c-17.451-9.216-25.728-27.819-18.603-42.069 1.493-2.987 49.664-52.523 107.093-109.995l104.363-104.533h-287.232c-279.040 0-287.36-0.085-293.547-3.243-9.685-4.992-13.141-12.245-13.141-27.477 0-14.976 3.499-22.571 12.843-28.117 5.888-3.413 8.107-3.456 293.291-4.309l287.36-0.853-101.675-100.395c-55.936-55.211-104.064-103.979-107.008-108.373-4.693-6.997-5.248-9.088-4.651-16.939 0.811-10.24 6.315-18.475 17.835-26.581 8.32-5.931 20.011-6.613 27.819-1.664 2.773 1.792 65.195 62.635 138.624 135.296 92.8 91.733 134.571 134.144 136.789 138.88 1.856 3.885 2.94 8.444 2.94 13.257 0 4.444-0.924 8.673-2.592 12.503l0.078-0.202c-1.579 3.84-13.312 16.512-31.232 33.835-15.787 15.232-76.331 75.093-134.528 133.035-58.197 57.899-108.288 106.539-111.275 108.032-3.427 1.619-7.446 2.564-11.684 2.564-4.31 0-8.392-0.977-12.036-2.722l0.168 0.072z" />
<glyph unicode="&#xe913;" glyph-name="Arrow---Up-2" d="M498.347 627.072c-3.285-1.963-75.179-72.832-159.787-157.44-169.003-169.088-162.432-161.707-157.781-177.152 2.261-7.637 13.483-20.821 20.864-24.661 6.229-3.243 17.408-3.072 24.149 0.299 2.987 1.536 68.651 65.835 145.835 142.933l140.373 140.117 140.373-140.117c77.227-77.099 142.848-141.397 145.835-142.933 6.741-3.371 17.92-3.541 24.149-0.299 7.381 3.84 18.603 17.024 20.864 24.661 4.651 15.445 11.221 8.064-157.781 177.152-84.608 84.608-156.501 155.477-159.787 157.44-3.94 2.203-8.645 3.501-13.653 3.501s-9.713-1.298-13.798-3.575l0.144 0.074z" />
<glyph unicode="&#xe914;" glyph-name="Arrow---Up-3" d="M497.493 849.152c-7.485-1.816-13.933-5.521-19.032-10.584l0.002 0.002c-6.187-6.741-219.563-346.581-222.208-353.877-4.907-13.483 2.091-27.435 17.408-34.859 7.125-3.456 9.771-3.541 101.504-3.541h94.165v-359.381l3.84-7.595c5.504-10.837 12.629-14.464 28.587-14.464 14.592 0 21.333 2.987 26.667 11.733 3.072 5.12 3.243 12.843 4.053 187.093l0.853 181.76 97.28 0.853c109.227 0.939 105.045 0.469 111.787 13.611 3.925 7.765 4.608 22.827 1.28 30.251-2.517 5.632-212.992 340.139-219.136 348.245-4.944 6.847-12.904 11.251-21.891 11.251-1.825 0-3.608-0.182-5.332-0.528l0.172 0.029zM578.176 634.88c0.653 1.654 25.943-38.403 50.965-78.643l25.579-44.151c0.896-2.389-14.763-2.645-153.643-2.645-85.035 0-154.624 0.341-154.624 0.768 0 1.664 154.027 244.992 155.051 244.907 0.597-0.043 35.115-54.144 76.672-120.235z" />
<glyph unicode="&#xe915;" glyph-name="Arrow---Up-Circle" d="M472.747 872.747c-79.957-7.040-158.848-38.571-225.28-89.984-18.645-14.464-55.765-51.584-70.229-70.229-76.8-99.243-106.88-221.653-84.309-343.296 12.373-66.816 40.917-129.707 84.309-185.771 14.464-18.645 51.584-55.765 70.229-70.229 104.149-80.597 232.661-109.483 360.107-80.853 106.112 23.851 202.752 91.477 262.187 183.509 34.389 53.205 54.741 107.819 64.896 174.080 4.181 27.349 4.181 88.704 0 116.053-10.624 69.163-31.488 123.691-68.565 179.2-86.827 129.963-236.672 201.387-393.344 187.52zM562.347 807.083c52.873-8.065 100.319-25.882 142.379-51.636l-1.665 0.948c31.403-19.584 70.955-54.741 92.672-82.389 38.419-48.763 65.233-108.395 75.296-173.558l0.267-2.1c3.755-25.173 3.755-75.52 0-100.693-10.309-67.273-37.143-126.912-76.21-176.454l0.605 0.796c-17.784-21.029-36.657-39.901-56.985-57.107l-0.701-0.578c-48.759-38.444-108.389-65.285-173.553-75.38l-2.105-0.268c-25.216-3.755-75.477-3.755-100.693 0-79.872 11.989-149.12 46.763-205.696 103.296-58.325 58.325-92.587 128-104.149 211.669-2.56 18.688-2.56 70.059 0 88.747 11.605 83.883 45.696 153.173 104.149 211.669 34.891 35.731 77.354 63.903 124.811 81.937l2.378 0.794c38.195 15.112 82.443 23.873 128.736 23.873 17.802 0 35.301-1.296 52.408-3.798l-1.945 0.234zM501.76 566.485c-7.552-3.243-160.555-155.563-166.741-165.973-2.494-3.978-4.089-8.75-4.391-13.871l-0.004-0.081c0-13.227 15.189-30.848 28.715-33.408 12.843-2.389 14.805-0.768 85.675 69.845l66.987 66.773 66.987-66.773c70.869-70.613 72.832-72.235 85.675-69.845 13.397 2.517 28.715 20.181 28.715 33.152-0.208 4.481-1.288 8.662-3.071 12.445l0.084-0.199c-4.437 8.832-158.891 163.157-167.424 167.253-8.192 4.011-13.141 4.139-21.205 0.683z" />
<glyph unicode="&#xe916;" glyph-name="Arrow---Up-Square" d="M298.752 872.832c-57.173-5.504-104.576-27.307-142.72-65.536-17.759-17.192-32.376-37.5-42.992-60.063l-0.528-1.249c-14.464-30.379-21.931-58.325-25.344-94.891-2.432-26.112-2.475-379.093-0.043-406.187 3.157-35.456 10.624-63.744 24.533-93.099 11.136-23.467 22.485-40.405 38.699-57.771 38.613-41.344 89.387-65.408 149.461-70.827 27.648-2.517 396.672-2.603 422.955-0.085 62.848 5.931 111.616 28.885 150.869 70.912 36.309 38.869 57.6 89.899 63.275 151.723 2.347 25.131 2.347 379.349 0 404.48-7.979 86.571-48.043 154.283-113.451 191.829-28.56 16.708-62.358 27.739-98.446 30.665l-0.84 0.055c-24.405 2.219-402.517 2.219-425.429 0.043zM713.984 809.813c44.885-3.755 76.544-16.853 104.789-43.435 28.587-26.88 44.203-57.429 52.821-103.339 2.859-14.976 3.072-31.232 3.072-214.187 0-184.875-0.213-199.168-3.157-215.808-7.808-44.373-24.533-77.141-52.736-103.552-28.16-26.325-60.288-39.595-104.789-43.307-26.624-2.176-377.344-2.176-403.968 0-44.885 3.755-76.544 16.853-104.789 43.435-28.587 26.88-44.203 57.429-52.821 103.339-2.859 14.976-3.072 31.232-3.072 214.187 0 219.307-0.256 213.589 11.264 248.875 21.504 65.707 75.691 107.819 146.475 113.664 24.149 2.005 382.891 2.091 406.912 0.128zM497.067 651.733c-4.949-2.389-9.856-5.973-10.88-8.021s-37.803-39.808-81.707-83.925-81.067-82.688-82.603-85.675c-6.357-12.715-1.237-28.672 12.501-38.827 8.96-6.613 15.744-8.277 24.32-6.016 6.485 1.707 14.293 8.832 64.085 58.453l56.661 56.533 0.512-140.715c0.427-133.12 0.64-141.056 3.627-147.072 4.992-10.027 13.141-14.080 28.416-14.080s23.424 4.053 28.416 14.080c2.987 6.016 3.2 13.952 3.627 147.072l0.512 140.715 56.661-56.533c49.792-49.621 57.6-56.747 64.085-58.453 8.576-2.261 15.36-0.597 24.32 6.016 13.739 10.155 18.859 26.112 12.501 38.827-1.536 2.987-38.699 41.557-82.603 85.675s-80.683 81.877-81.707 83.925c-2.432 4.736-18.773 12.501-26.155 12.459-5.43-0.697-10.357-2.26-14.846-4.555l0.254 0.118z" />
<glyph unicode="&#xe917;" glyph-name="Arrow---Up" d="M494.421 811.264c-3.805-0.837-7.14-1.967-10.299-3.415l0.315 0.129c-1.877-1.024-16.981-15.787-33.493-32.853-16.555-17.067-76.331-77.483-132.821-134.272s-103.979-105.728-105.472-108.715c-11.733-23.424 18.688-53.845 42.155-42.155 2.987 1.493 52.523 49.664 109.995 107.093l104.533 104.363v-287.232c0-279.040 0.085-287.36 3.243-293.547 4.992-9.685 12.245-13.141 27.477-13.141 14.976 0 22.571 3.499 28.117 12.843 3.413 5.888 3.456 8.107 4.309 293.291l0.853 287.317 100.352-101.632c55.211-55.893 103.979-104.064 108.373-107.008 7.040-4.693 9.131-5.248 16.981-4.651 10.24 0.811 18.475 6.315 26.581 17.835 5.888 8.32 6.613 20.011 1.707 27.776-3.285 5.12-265.472 271.019-270.037 273.792-5.147 2.849-11.286 4.525-17.815 4.525-1.782 0-3.536-0.125-5.251-0.366l0.197 0.023z" />
<glyph unicode="&#xe918;" glyph-name="Bag-3" d="M477.909 882.219c-20.418-3.616-38.677-10.137-55.351-19.204l0.951 0.473c-59.848-30.974-100.907-90.88-104.725-160.703l-0.021-0.492-0.469-7.68-19.627-1.067c-98.347-5.419-176.768-72.96-198.357-170.795-3.84-17.493-3.84-18.304-3.883-157.525 0-151.68 0-151.296 9.6-182.613 23.68-77.141 89.173-133.803 171.179-148.096 17.408-3.029 452.181-3.029 469.589 0 45.056 7.851 87.552 29.525 118.357 60.331s52.48 73.301 60.331 118.357c1.536 8.917 2.091 48.768 2.091 152.021 0 139.264-0.043 140.032-3.883 157.525-9.899 44.8-30.080 81.365-61.739 111.829-38.101 36.693-91.947 59.136-141.824 59.179h-14.592l-2.091 18.688c-7.301 67.533-48.42 124.040-105.849 152.795l-1.116 0.506c-32.939 16.469-81.536 23.211-118.571 16.469zM541.867 818.304c25.131-6.912 42.155-16.597 59.947-34.176 15.445-15.189 26.411-32.171 31.957-49.536 4.395-13.653 8.363-36.779 6.784-39.552-0.427-0.683-58.795-1.28-129.749-1.28h-128.939l1.195 12.16c4.267 43.307 31.573 82.347 71.851 102.656 9.216 4.651 23.467 9.216 36.309 11.563 9.941 1.835 41.515 0.683 50.645-1.835zM319.147 590.891c0-35.115 0.341-40.363 3.115-45.653 8.277-15.787 40.235-18.731 52.523-4.864 6.571 7.381 7.509 14.037 7.509 52.949v37.291h259.413v-39.339c0-36.309 0.256-39.808 3.499-46.208 9.003-17.579 45.013-18.304 55.424-1.109 3.072 5.077 3.413 9.301 3.925 46.123l0.512 40.533 11.435-0.043c37.931-0.043 79.232-18.475 106.325-47.445 19.413-20.779 32.725-46.080 38.059-72.32 4.053-19.84 4.011-274.944-0.043-294.571-12.348-59.020-58.057-104.729-116.1-116.906l-0.977-0.172c-11.648-2.432-38.699-2.731-231.765-2.731s-220.117 0.299-231.765 2.731c-59.020 12.348-104.729 58.057-116.906 116.1l-0.172 0.977c-4.053 19.627-4.096 274.731-0.043 294.571 6.188 28.294 19.565 52.821 38.122 72.387l-0.063-0.067c27.136 28.971 67.285 46.976 105.6 47.36l12.373 0.128v-39.723z" />
<glyph unicode="&#xe919;" glyph-name="Bag" d="M503.979 893.269c-63.147-5.632-123.819-42.197-159.317-96.043-16.256-24.704-29.611-59.819-33.195-87.424l-1.109-8.747-13.952-1.067c-52.565-4.053-100.779-38.187-126.592-89.6-7.002-13.545-13.125-29.348-17.538-45.85l-0.382-1.681c-1.92-7.339-12.075-78.592-22.528-158.379l-18.987-145.067-0.128-37.547c-0.128-51.115 4.523-74.837 21.333-108.331 29.909-59.776 83.755-90.88 174.251-100.651 10.624-1.152 89.685-1.792 219.392-1.792 212.053 0 219.947 0.213 254.251 7.552 74.24 15.829 131.328 64.853 153.216 131.627 8.619 26.283 11.563 50.603 10.624 87.808-0.725 29.525-2.859 48.939-18.859 171.52-20.352 156.16-21.333 160.896-39.765 197.504-16.171 32.171-42.069 60.032-70.613 76.075-16.511 8.946-35.868 14.964-56.428 16.812l-0.575 0.042-16.128 1.067-1.152 8.704c-8.661 67.157-55.211 131.413-117.205 161.835-22.715 11.8-49.304 19.6-77.478 21.718l-0.687 0.042c-6.151 0.663-13.837 1.199-21.589 1.476l-0.598 0.017-18.261-1.621zM566.315 825.301c41.216-11.989 73.045-37.205 93.184-73.813 7.168-13.056 14.293-32.597 15.787-43.307l1.024-7.595h-300.843v4.181c0 7.253 8.576 32 15.659 45.312 21.205 39.765 58.283 67.499 103.808 77.653 16.384 3.669 54.912 2.347 71.381-2.432zM768.213 633.685c14.037-4.949 21.163-9.472 34.048-21.547 15.744-14.72 26.923-32.853 35.115-56.789 5.717-16.683 7.168-26.112 23.851-155.136 9.813-75.563 18.261-146.219 18.859-157.013 3.072-58.795-14.123-104.235-50.432-133.163-18.859-14.976-44.672-25.685-77.013-31.872-15.104-2.859-30.635-3.072-227.84-3.072-191.488 0-213.333 0.299-229.547 2.901-57.045 9.301-89.216 28.885-107.221 65.365-10.965 22.272-16.853 57.6-14.891 89.6 1.493 24.235 36.096 294.741 39.595 309.76 12.032 51.115 40.021 83.499 79.659 92.16 8.619 1.92 52.011 2.261 239.232 1.963 206.848-0.299 229.461-0.597 236.587-3.157zM384.512 514.432c-9.387-4.651-14.165-14.123-14.165-28.032 0-21.205 10.709-31.616 32.555-31.531 22.272 0.085 32.171 9.728 32.256 31.403 0.085 21.291-10.581 31.701-32.512 31.701-0.536 0.026-1.164 0.041-1.796 0.041-5.926 0-11.544-1.321-16.576-3.683l0.239 0.101zM633.685 514.773c-9.771-4.608-14.165-13.397-14.165-28.373 0-22.912 10.752-32.512 35.115-31.275 13.397 0.64 18.56 3.157 25.387 12.288 2.859 3.883 3.499 7.253 3.499 18.987 0 15.36-1.92 19.84-11.563 27.051-6.784 5.077-28.629 5.803-38.272 1.323z" />
<glyph unicode="&#xe91a;" glyph-name="Bookmark" d="M331.947 891.563c-89.429-9.301-152.277-52.565-174.805-120.448-9.771-29.44-9.216-9.941-9.899-365.781-0.427-225.408-0.043-330.539 1.237-338.773 2.432-15.957 8.875-28.715 20.352-40.235 20.907-20.864 50.048-27.051 76.928-16.256 5.163 2.048 67.115 36.181 137.685 75.776l128.299 72.021 123.435-69.717c67.883-38.357 128.171-72.149 133.931-75.051 36.608-18.475 79.019-3.797 97.579 33.749l6.272 12.715 0.512 326.059c0.512 332.587 0.341 343.68-5.845 368.725-10.539 42.539-34.731 77.44-69.888 100.821-30.507 20.309-65.792 31.872-111.403 36.48-21.12 2.133-333.696 2.048-354.389-0.085zM698.027 826.24c20.565-4.139 31.531-7.467 45.44-13.867 33.28-15.232 52.053-37.76 62.507-75.093l3.84-13.653 0.469-323.243c0.427-289.195 0.171-323.627-2.176-327.253-1.451-2.219-4.181-4.011-6.059-4.011s-62.72 33.536-135.211 74.496-135.552 76.373-140.117 78.677c-16.811 8.533-9.6 11.861-164.693-75.221-76.416-42.88-140.544-77.952-142.592-77.952-2.189 0.022-4.194 0.791-5.778 2.062l0.018-0.014c-1.579 1.579-2.048 76.501-2.048 326.912 0 362.197-0.768 338.389 11.904 364.8 18.816 39.211 56.277 59.136 124.629 66.347 3.285 0.341 80.085 0.469 170.667 0.256 147.755-0.299 166.187-0.64 179.2-3.243zM336.256 602.923c-9.259-4.693-13.611-11.733-14.891-24.064-1.067-10.496 1.536-20.48 6.955-26.539 8.064-9.045 1.963-8.747 181.504-8.747 155.477 0 167.253 0.213 172.715 2.987 9.813 4.992 12.843 10.795 13.525 26.027 0.512 11.349 0.043 14.421-3.157 20.096-2.341 3.992-5.402 7.311-9.032 9.876l-0.098 0.066c-5.163 3.115-11.477 3.243-172.629 3.712l-167.253 0.469-7.637-3.883z" />
<glyph unicode="&#xe91b;" glyph-name="Buy" d="M105.856 852.437c-16.128-3.797-26.027-30.763-17.536-47.744 4.907-9.813 13.013-12.885 51.669-19.627 19.157-3.328 35.243-6.741 35.755-7.595 0.512-0.811 9.643-105.813 20.309-233.344 10.624-127.488 20.395-237.483 21.675-244.395 3.797-20.437 12.587-36.224 29.611-53.163 16.64-16.555 32.597-25.643 52.395-29.824 17.664-3.755 495.659-3.712 513.493 0 36.565 7.68 68.053 36.608 79.957 73.387 2.645 8.235 43.051 282.027 44.928 304.64 3.499 41.6-27.904 83.413-69.077 91.989-6.4 1.323-98.304 1.877-315.307 1.877-299.605 0-306.261 0.085-306.261 3.243 0 14.464-10.795 124.544-12.672 128.981-2.104 4.055-4.931 7.454-8.34 10.148l-0.065 0.049c-5.419 4.139-11.392 5.589-52.693 12.8-56.32 9.899-60.288 10.411-67.84 8.576zM857.045 623.744c7.253-2.048 14.251-9.515 16.469-17.664 2.133-7.595-38.912-293.077-43.349-301.696-5.589-10.837-11.349-16.725-20.949-21.461l-9.643-4.736h-242.347c-229.419 0-242.773 0.171-250.325 3.072-9.088 3.499-20.779 15.189-24.789 24.747-1.877 4.523-6.357 50.475-15.787 161.621-7.211 85.419-12.843 155.904-12.459 156.587 1.024 2.048 595.797 1.579 603.179-0.469zM593.067 530.389c-15.147-3.627-21.333-12.757-21.333-31.403 0-14.464 3.243-21.547 12.373-27.093 5.291-3.243 8.704-3.413 77.269-3.413 66.091 0 72.149 0.256 77.653 3.115 7.851 4.096 13.611 15.36 13.611 26.496 0 17.664-6.528 27.989-20.096 31.744-6.315 1.749-132.437 2.261-139.477 0.555zM296.064 128.811c-17.877-2.517-35.413-16.725-41.899-33.92-5.291-13.952-4.139-33.451 2.731-46.037 5.632-10.325 14.805-18.901 26.283-24.491 11.776-5.717 31.787-5.461 44.757 0.64 18.971 8.998 31.855 27.994 31.855 50 0 20.383-11.054 38.184-27.495 47.736l-0.264 0.141c-6.101 3.541-9.984 4.608-23.979 6.656-0.754 0.035-1.637 0.055-2.525 0.055-3.343 0-6.619-0.284-9.806-0.829l0.342 0.048zM777.344 128.811c-16.512-2.304-32.512-14.379-40.363-30.336-3.285-6.699-3.968-10.752-3.968-24.235 0-14.805 0.427-17.024 5.077-25.344 5.76-10.411 14.976-18.987 26.368-24.533 11.776-5.717 31.787-5.461 44.757 0.64 11.848 5.834 21.281 15.048 27.233 26.377l0.159 0.332c3.243 6.613 3.925 10.752 3.883 23.381 0 13.269-0.64 16.555-4.523 23.979-4.736 9.045-16.384 20.907-24.747 25.216-4.352 2.261-9.003 3.371-21.888 5.248-0.754 0.035-1.637 0.055-2.525 0.055-3.343 0-6.619-0.284-9.806-0.829l0.342 0.048z" />
<glyph unicode="&#xe91c;" glyph-name="Calendar" d="M330.795 905.515c-7.906-1.374-14.517-6.023-18.493-12.47l-0.067-0.116c-2.859-4.736-3.328-8.704-3.328-29.653v-24.192l-4.693-0.853c-2.56-0.512-9.301-1.408-14.933-2.005-75.392-8.021-138.155-49.792-168.704-112.213-14.080-28.672-20.651-55.296-23.296-93.867-2.176-32.171-2.176-397.781 0-428.757 2.859-39.893 8.789-64.085 23.040-93.909 28.331-59.136 79.275-97.365 149.12-111.829 29.952-6.229 63.872-7.040 264.747-6.229 208.939 0.811 203.136 0.555 240.597 10.752 33.261 9.797 62.025 25.919 86.235 47.115l-0.262-0.224c20.949 18.859 42.325 51.627 52.779 80.939 6.528 18.219 11.349 44.373 13.184 71.253 2.219 32.555 2.176 399.147-0.085 432.213-1.92 28.373-7.168 54.741-14.805 74.453-27.477 70.741-86.784 116.821-165.675 128.683 13.414-1.518 5.358-0.275-2.707 0.943l-20.931 2.598-5.376 0.768-0.597 23.424c-0.683 27.349-3.2 34.56-14.080 40.192-8.832 4.608-27.52 4.651-35.243 0.128-12.075-7.083-14.976-15.957-15.189-46.336l-0.085-17.493h-279.509l-0.64 24.32c-0.555 21.632-1.067 25.003-4.48 30.549-6.059 9.728-21.547 14.763-36.523 11.819zM652.288 749.653c0.896-29.781 2.901-36.309 13.056-42.624 8.576-5.333 28.971-5.547 37.76-0.427 10.965 6.485 12.757 11.989 13.44 41.557l0.64 26.197 10.24-1.152c42.88-4.864 83.2-25.771 104.619-54.272 20.864-27.776 29.355-55.040 30.976-99.84l1.024-27.733h-704.085l0.939 27.733c1.024 30.848 5.077 50.731 14.549 71.637 14.119 31.13 38.856 55.382 69.486 68.531l0.871 0.333c15.217 6.36 32.908 11.192 51.346 13.662l1.091 0.12 10.667 1.067v-25.899c0-29.397 1.877-35.797 12.203-41.984 8.149-4.864 28.928-4.821 37.248 0.043 11.051 6.528 12.757 11.904 13.44 42.197l0.555 26.88h279.125l0.811-26.027zM863.104 354.56c-0.64-185.003-0.299-177.195-9.429-203.52-17.707-50.859-56.32-82.347-115.541-94.080-9.813-1.92-50.645-2.347-227.84-2.347h-215.893l-18.773 4.864c-33.024 8.576-54.699 20.693-74.539 41.728-17.835 18.901-28.501 39.723-35.968 70.016-3.584 14.549-3.669 17.92-4.224 185.045l-0.597 170.24h703.403l-0.597-171.947zM308.48 421.76c-12.928-4.821-17.152-11.947-17.28-29.269-0.213-19.968 8.149-29.909 26.155-31.189 14.080-1.024 21.376 0.683 28.075 6.528 14.165 12.459 11.947 42.539-3.797 51.712-7.253 4.267-24.661 5.419-33.152 2.219zM500.011 422.485c-13.312-4.011-18.987-13.355-18.944-31.104 0.085-21.077 7.936-29.184 29.227-30.165 11.349-0.512 14.421-0.043 20.096 3.157 9.045 5.077 12.672 11.861 13.568 25.429 0.981 15.104-3.797 24.917-14.805 30.464-5.214 2.356-11.305 3.73-17.717 3.73-4.063 0-7.998-0.551-11.733-1.584l0.309 0.073zM689.365 422.571c-13.568-4.395-19.157-13.611-19.029-31.189 0.128-20.907 8.235-29.184 29.397-30.165 11.349-0.512 14.421-0.043 20.096 3.157 9.045 5.077 12.672 11.861 13.568 25.429 1.365 20.949-8.576 32.427-29.056 33.621-1.323 0.114-2.863 0.179-4.418 0.179-3.736 0-7.384-0.376-10.908-1.092l0.35 0.059zM311.424 257.067c-15.957-4.139-23.979-20.651-19.584-40.363 3.371-15.019 12.757-21.589 30.72-21.589 22.315 0 31.573 9.088 31.573 31.019 0 14.507-3.584 22.485-12.544 27.733-5.803 3.413-22.485 5.205-30.165 3.2zM500.053 256.683c-12.928-3.883-19.029-13.781-18.987-30.635 0.085-21.888 9.216-30.933 31.189-30.933 21.333 0 30.336 8.235 31.659 29.013 0.64 9.515 0.085 12.672-3.2 19.029-2.265 4.311-5.389 7.885-9.169 10.605l-0.090 0.061c-6.485 3.712-23.381 5.248-31.403 2.859zM692.053 257.451c-15.232-4.139-21.845-13.653-21.717-31.36 0.128-21.675 9.472-30.976 31.147-30.976 22.443 0 31.531 8.917 31.531 31.019 0 14.677-3.499 22.613-12.16 27.691-5.333 3.072-22.656 5.291-28.8 3.627z" />
<glyph unicode="&#xe91d;" glyph-name="Call-Missed" d="M225.28 881.365c-32.853-8.619-74.325-37.931-119.552-84.608-32.981-34.048-46.891-62.293-51.115-104.021-4.352-42.667 7.467-94.763 33.963-150.016 40.192-83.669 113.493-177.536 224.043-286.848 46.464-45.909 69.717-67.371 105.685-97.408 118.357-98.816 217.259-147.371 300.16-147.371 32.853 0 66.688 9.984 91.947 27.136 21.291 14.464 66.517 61.653 87.68 91.477 32.683 46.123 37.888 87.083 16.043 127.147-9.899 18.219-26.795 37.333-70.187 79.445-48.64 47.189-56.96 54.144-76.8 63.957-33.707 16.683-60.117 16.128-114.944-2.432-31.232-10.581-44.971-12.544-62.549-8.96-28.885 5.888-59.093 25.259-94.805 60.843-26.027 25.899-42.752 47.275-52.821 67.413-15.787 31.573-15.829 48.939-0.299 96.555 16.171 49.323 17.365 71.211 5.675 101.333-8.235 21.205-19.157 35.157-63.659 81.237-54.315 56.363-67.883 67.968-92.203 79.147-11.954 5.977-26.044 9.475-40.95 9.475-9.013 0-17.726-1.279-25.97-3.665l0.658 0.163zM642.56 831.019c-11.648-6.016-23.040-21.163-23.040-30.592 0-10.709 5.504-17.28 61.056-72.96l55.808-55.936-55.723-55.851c-30.635-30.763-56.917-58.368-58.411-61.355-1.64-2.975-2.606-6.521-2.606-10.293 0-3.443 0.804-6.698 2.236-9.588l-0.057 0.126c7.893-18.859 28.587-28.629 44.075-20.779 3.115 1.579 30.464 27.563 60.757 57.685l55.040 54.784 55.040-54.827c52.139-52.011 60.587-59.435 68.651-60.288 15.403-1.707 32.256 10.837 36.693 27.307 3.669 13.568 2.56 15.019-58.581 76.373l-56.491 56.747 54.741 55.040c30.123 30.251 55.723 56.875 56.875 59.136 6.656 12.843 5.419 22.571-4.395 34.048-10.368 12.117-22.699 16.469-34.261 12.117-2.645-1.024-30.379-27.307-61.568-58.453l-56.789-56.619-55.851 55.723c-30.763 30.635-58.368 56.917-61.355 58.411-3.194 1.637-6.967 2.597-10.965 2.597-3.964 0-7.708-0.944-11.020-2.618l0.14 0.064zM266.88 816.725c12.288-5.931 27.733-20.139 71.339-65.408 49.92-51.925 53.675-57.557 52.181-78.464-0.597-8.277-3.755-21.291-9.557-39.339-11.349-35.243-13.909-48.299-13.909-70.997 0-45.269 17.365-84.523 58.624-132.651 56.533-65.92 116.693-102.997 171.776-105.899 23.595-1.237 40.619 1.792 78.507 14.123 43.051 13.995 54.059 13.525 76.416-3.243 10.453-7.808 89.301-85.333 97.024-95.317 11.136-14.507 14.933-23.979 13.824-34.688-2.176-20.736-22.016-49.195-62.592-89.728-33.195-33.152-47.659-39.979-84.565-39.851-45.781 0.171-97.792 20.224-164.693 63.488-56.875 36.779-118.656 88.533-191.744 160.683-104.405 103.040-170.027 185.685-209.408 263.765-34.091 67.584-41.216 118.699-22.059 158.805 10.624 22.272 69.461 76.885 99.371 92.245 15.872 8.149 26.411 8.789 39.467 2.475z" />
<glyph unicode="&#xe91e;" glyph-name="Call-Silent" d="M261.931 879.701c-21.717-2.816-45.568-13.739-70.4-32.171-28.245-20.992-70.827-62.677-84.267-82.475-45.995-67.712-35.157-161.109 31.829-274.389 27.264-46.123 74.667-109.824 112.213-150.827 19.371-21.163 27.392-23.936 43.221-14.848 11.563 6.613 18.133 15.488 19.115 25.728 1.067 11.179-1.621 15.915-23.723 41.813-93.013 108.843-142.976 200.875-146.091 269.184-1.963 42.752 6.741 61.696 45.568 99.157 36.779 35.456 63.659 53.632 81.963 55.381 16.213 1.536 23.040-3.371 68.992-49.707 66.005-66.645 70.187-72.405 70.016-96.683-0.085-11.989-1.195-17.792-6.357-33.28-19.541-58.795-21.419-89.259-8.021-129.237 8.789-26.197 16.64-34.432 32.64-34.261 9.771 0.128 22.101 6.016 28.928 13.739 6.699 7.637 6.656 18.048-0.085 37.76-9.557 27.861-8.832 41.941 4.267 82.133 18.005 55.381 18.389 80.213 1.792 113.493-10.325 20.736-19.712 31.957-68.693 82.389-50.091 51.541-64.469 63.275-88.363 72.149-7.893 2.901-28.373 6.997-32.555 6.528l-11.989-1.579zM819.627 755.797c-6.101-3.029-650.709-689.579-657.152-699.947-14.251-22.955 16.683-55.552 41.515-43.776 3.456 1.664 41.003 40.363 94.933 97.92l89.173 95.189 24.832-22.656c109.312-99.84 203.093-157.696 283.904-175.189 23.851-5.163 65.963-5.461 84.779-0.64 37.803 9.643 59.349 24.064 97.707 65.365 51.115 54.955 71.893 95.019 69.12 133.248-1.323 18.304-6.315 32.725-17.835 51.541-8.405 13.739-16.555 22.955-55.083 62.080-24.875 25.259-50.901 50.475-57.856 56.021-23.808 19.115-48.341 28.587-73.899 28.629-17.365 0.043-25.344-1.707-62.677-13.909-36.352-11.861-49.237-13.653-66.688-9.301-12.075 2.987-43.093 17.707-42.325 20.053 57.374 62.305 104.034 112.276 150.979 161.974l-7.961-8.502c78.379 83.627 144.256 154.88 146.432 158.336 14.379 22.955-17.152 55.765-41.899 43.563zM541.483 343.723c29.44-18.901 53.376-26.965 84.011-28.331 25.301-1.152 38.613 1.28 76.885 14.037 34.475 11.477 41.173 12.459 54.144 7.936 13.653-4.821 18.859-9.216 64.085-53.931 63.829-63.147 69.931-72.917 61.227-97.877-6.784-19.584-21.931-40.491-55.552-76.629-25.131-27.051-38.229-35.584-62.208-40.533-16.213-3.371-25.685-3.371-44.928-0.128-70.571 11.989-161.408 68.096-266.923 164.949l-20.395 18.688 47.189 50.261c16.571 17.942 32.24 34.313 48.188 50.408l-0.145-0.146c0.427 0 6.912-3.925 14.421-8.704z" />
<glyph unicode="&#xe91f;" glyph-name="Call" d="M249.685 882.347c-22.016-4.779-51.328-21.589-80.299-45.952-19.84-16.683-53.077-49.963-62.976-63.019-11.171-15.726-20.208-33.956-26.148-53.534l-0.348-1.335c-5.461-20.224-5.461-65.877 0.043-91.307 13.269-61.355 48.384-129.493 105.941-205.568 76.928-101.717 197.973-222.763 299.733-299.733 123.093-93.141 227.797-128.256 306.261-102.784 32.085 10.411 54.016 26.453 91.008 66.645 64 69.419 79.744 117.419 54.741 166.741-7.339 14.507-15.061 25.173-30.165 41.771-17.621 19.371-84.267 83.2-96.811 92.672-22.059 16.768-45.781 25.173-70.827 25.173-17.323 0-30.379-2.816-62.848-13.44-34.133-11.221-46.933-13.312-63.019-10.453-31.445 5.632-58.539 22.912-98.688 63.061-39.893 39.851-55.637 64.213-62.421 96.555-3.499 16.555-1.28 30.976 10.197 65.877 11.435 34.901 13.824 47.701 12.715 68.352-1.536 28.8-13.568 53.632-39.381 81.493-31.488 33.92-84.48 86.443-95.744 94.891-30.72 23.083-59.648 30.677-90.965 23.893zM290.517 815.403c11.392-6.187 28.587-22.144 70.187-65.195 37.931-39.253 47.317-51.328 50.645-65.109 2.645-11.051 0.811-20.821-10.453-55.765-3.733-10.842-7.574-24.86-10.656-39.159l-0.48-2.655c-10.027-57.429 14.251-114.731 74.965-176.896 33.408-34.176 61.44-55.552 92.288-70.272 22.272-10.624 39.851-15.275 62.507-16.427 22.101-1.152 39.424 1.835 71.68 12.331 31.701 10.325 45.056 13.227 54.784 11.861 14.293-1.963 26.837-11.349 67.84-50.816 59.221-57.045 70.912-71.723 70.955-89.131 0-17.451-16.725-44.203-50.133-80.085-33.451-35.925-47.701-45.781-73.813-51.157-16.299-3.328-24.917-3.371-46.293-0.128-44.032 6.613-100.779 33.024-161.579 75.179-106.667 73.899-254.507 220.544-330.752 328.064-23.040 32.469-36.907 55.211-51.627 84.693-31.104 62.293-39.339 112.043-24.747 149.291 5.803 14.763 11.776 22.528 35.328 45.824 43.051 42.624 75.349 63.445 94.379 60.928 3.669-0.469 10.453-2.901 14.976-5.376z" />
<glyph unicode="&#xe920;" glyph-name="Calling" d="M225.28 881.365c-32.853-8.619-74.325-37.931-119.552-84.608-32.981-34.048-46.891-62.293-51.115-104.021-4.352-42.667 7.467-94.763 33.963-150.016 40.192-83.669 113.493-177.536 224.043-286.848 46.464-45.909 69.717-67.371 105.685-97.408 118.357-98.816 217.259-147.371 300.16-147.371 32.853 0 66.688 9.984 91.947 27.136 21.291 14.464 66.517 61.653 87.68 91.477 32.683 46.123 37.888 87.083 16.043 127.147-9.899 18.219-26.795 37.333-70.187 79.445-48.64 47.189-56.96 54.144-76.8 63.957-33.707 16.683-60.117 16.128-114.944-2.432-31.232-10.581-44.971-12.544-62.549-8.96-28.885 5.888-59.093 25.259-94.805 60.843-26.027 25.899-42.752 47.275-52.821 67.413-15.787 31.573-15.829 48.939-0.299 96.555 16.171 49.323 17.365 71.211 5.675 101.333-8.235 21.205-19.157 35.157-63.659 81.237-54.315 56.363-67.883 67.968-92.203 79.147-11.954 5.977-26.044 9.475-40.95 9.475-9.013 0-17.726-1.279-25.97-3.665l0.658 0.163zM593.749 881.024c-8.619-5.717-12.587-15.061-12.629-29.483 0-19.115 6.912-26.283 28.843-29.824 41.429-6.699 66.304-14.080 97.451-28.885 62.319-29.684 111.681-78.152 141.717-137.995l0.79-1.738c16-32 21.419-49.749 31.531-103.552 4.139-22.016 11.989-28.928 31.616-27.691 21.76 1.408 31.061 10.24 30.933 29.44-0.341 42.411-23.637 112.256-53.675 160.64-56.38 89.167-147.389 152.081-253.68 170.020l-2.192 0.306c-23.765 3.797-33.621 3.499-40.704-1.237zM266.88 816.725c12.288-5.931 27.733-20.139 71.339-65.408 49.92-51.925 53.675-57.557 52.181-78.464-0.597-8.277-3.755-21.291-9.557-39.339-11.349-35.243-13.909-48.299-13.909-70.997 0-45.269 17.365-84.523 58.624-132.651 56.533-65.92 116.693-102.997 171.776-105.899 23.595-1.237 40.619 1.792 78.507 14.123 43.051 13.995 54.059 13.525 76.416-3.243 10.453-7.808 89.301-85.333 97.024-95.317 11.136-14.507 14.933-23.979 13.824-34.688-2.176-20.736-22.016-49.195-62.592-89.728-33.195-33.152-47.659-39.979-84.565-39.851-45.781 0.171-97.792 20.224-164.693 63.488-56.875 36.779-118.656 88.533-191.744 160.683-104.405 103.040-170.027 185.685-209.408 263.765-34.091 67.584-41.216 118.699-22.059 158.805 10.624 22.272 69.461 76.885 99.371 92.245 15.872 8.149 26.411 8.789 39.467 2.475zM598.101 732.331c-20.053-8.747-24.32-45.568-6.485-55.893 2.688-1.536 12.288-4.779 21.376-7.168 29.824-7.893 50.347-19.243 71.125-39.339 22.4-21.589 36.736-46.080 44.587-76.117 7.125-27.307 12.032-32.427 31.019-32.427 13.44 0 24.32 4.949 30.208 13.653 3.499 5.248 3.883 7.381 3.157 17.92-1.664 23.979-14.549 57.6-32.683 85.419-10.155 15.573-34.773 42.24-49.493 53.589-22.872 17.555-49.964 30.92-79.412 38.371l-1.526 0.327c-18.091 4.565-24.405 4.907-31.872 1.664z" />
<glyph unicode="&#xe921;" glyph-name="Camera" d="M464.213 831.019c-77.952-5.077-102.187-12.331-128.085-38.187-15.104-15.104-21.077-23.893-36.651-53.845-6.357-12.203-13.867-24.619-16.64-27.605-7.765-8.32-20.096-12.843-38.912-14.336-43.093-3.456-78.293-18.773-107.136-46.635-7.124-6.924-13.707-14.305-19.74-22.132l-0.356-0.481c-11.066-16.378-20.115-35.308-26.162-55.534l-0.377-1.468c-3.755-14.251-3.797-16-4.437-151.808-0.64-143.189 0.043-162.56 6.485-187.733 19.541-76.075 78.848-134.101 157.056-153.813l16.128-4.053h245.76c233.6 0 246.443 0.171 259.413 3.157 71.765 16.725 127.403 64.128 153.728 131.115 13.909 35.371 14.72 47.573 13.995 211.328-0.64 135.808-0.683 137.557-4.437 151.808-6.424 21.695-15.473 40.625-27.008 57.741l0.469-0.739c-6.389 8.308-12.972 15.689-20.047 22.566l-0.049 0.047c-28.843 27.861-64.043 43.179-107.136 46.635-18.816 1.493-31.147 6.016-38.912 14.336-2.773 2.987-10.283 15.403-16.64 27.605-33.664 64.683-59.349 82.432-129.749 89.6-18.475 1.877-112.256 3.627-130.56 2.432zM552.448 767.189c35.541-1.835 56.704-4.224 71.339-8.149 15.36-4.096 27.392-17.067 41.685-44.843 15.616-30.336 22.912-41.344 34.56-51.84 19.456-17.621 43.947-27.093 74.965-29.056 30.379-1.877 48.512-9.941 68.992-30.635 14.933-15.061 22.485-27.563 27.563-45.44 2.901-10.368 3.115-20.48 3.072-152.747v-141.653l-4.608-16.811c-15.232-55.467-61.44-98.133-116.779-107.776-22.016-3.84-460.459-3.84-482.475 0-55.339 9.643-101.547 52.309-116.779 107.776l-4.608 16.811v141.653c-0.043 132.267 0.171 142.379 3.072 152.747 5.077 17.877 12.629 30.379 27.563 45.44 20.48 20.693 38.613 28.757 68.992 30.635 31.019 1.963 55.509 11.435 74.965 29.056 11.605 10.453 18.944 21.461 34.347 51.413 6.869 13.269 14.123 24.576 20.053 31.147 8.192 9.045 10.709 10.667 20.693 13.611 27.648 8.107 92.459 11.733 153.387 8.661zM727.125 594.347c-8.448-2.816-18.304-13.355-20.651-22.101-0.927-4.959-1.458-10.664-1.458-16.493 0-2.033 0.065-4.051 0.192-6.052l-0.014 0.273c0.64-13.141 1.323-15.744 5.717-22.016 7.936-11.221 15.488-14.251 35.755-14.251 20.309 0 27.819 3.029 35.84 14.379 4.949 7.040 5.12 7.851 5.12 26.581s-0.171 19.541-5.12 26.581c-7.68 10.88-15.659 14.293-34.133 14.72-8.448 0.171-18.005-0.555-21.248-1.621zM485.461 564.992c-54.997-8.533-101.248-43.691-125.397-95.317-11.435-24.533-14.379-38.912-14.251-70.315 0.085-30.080 2.347-41.899 12.544-65.877 17.024-40.021 54.016-75.392 94.293-90.197 21.973-8.064 30.251-9.387 59.349-9.387s37.376 1.323 59.349 9.387c49.152 18.048 88.576 62.251 103.125 115.584 5.376 19.712 5.376 60.203 0.043 81.237-16.555 65.15-69.82 114.376-135.974 124.763l-0.943 0.122c-7.838 1.385-16.861 2.176-26.069 2.176s-18.232-0.792-27.006-2.311l0.937 0.134zM544.427 498.176c43.691-13.696 74.496-59.264 70.955-104.96-3.413-43.776-29.909-77.312-73.515-92.971-6.485-2.347-13.653-3.072-29.867-3.072s-23.381 0.725-29.867 3.072c-22.699 8.149-37.632 18.645-52.053 36.651-13.544 17.098-21.727 38.981-21.727 62.774 0 2.368 0.081 4.717 0.241 7.044l-0.017-0.314c1.877 25.557 10.24 44.885 27.52 63.531 28.117 30.379 68.224 40.832 108.331 28.245z" />
<glyph unicode="&#xe922;" glyph-name="Category" d="M249.173 863.403c-73.515-4.096-109.867-18.176-131.2-50.859-17.707-27.179-21.163-48.256-21.248-129.877-0.043-76.544 2.347-95.232 15.573-120.875 15.445-29.909 42.709-47.36 85.675-54.741 40.576-6.997 118.187-6.997 158.72 0 42.155 7.253 69.717 24.533 85.035 53.333 6.955 12.971 9.941 22.613 13.013 42.069 5.675 35.925 4.608 140.331-1.749 169.813-11.648 54.059-47.403 81.536-115.072 88.533-21.202 1.771-45.889 2.781-70.811 2.781-6.307 0-12.598-0.065-18.874-0.193l0.938 0.015zM718.507 863.403c-73.515-4.096-109.867-18.176-131.2-50.859-17.707-27.179-21.163-48.256-21.248-129.877-0.043-76.544 2.347-95.232 15.573-120.875 15.445-29.909 42.709-47.36 85.675-54.741 40.576-6.997 118.187-6.997 158.72 0 42.155 7.253 69.717 24.533 85.035 53.333 6.955 12.971 9.941 22.613 13.013 42.069 5.675 35.925 4.608 140.331-1.749 169.813-11.648 54.059-47.403 81.536-115.072 88.533-21.202 1.771-45.889 2.781-70.811 2.781-6.307 0-12.598-0.065-18.874-0.193l0.938 0.015zM347.648 794.795c20.053-4.395 32.512-10.965 37.419-19.755 7.467-13.355 8.32-23.253 8.32-94.933 0-65.109-0.128-67.84-3.84-79.616-5.973-18.987-15.872-25.301-49.536-31.701-15.787-2.987-109.568-2.987-125.355 0-33.664 6.4-43.563 12.715-49.536 31.701-3.712 11.776-3.84 14.507-3.84 79.616 0 71.68 0.853 81.579 8.32 94.933 6.357 11.307 23.637 18.389 55.68 22.784 6.101 0.811 32.597 1.28 58.88 0.981 40.277-0.469 50.261-1.109 63.488-4.011zM816.981 794.795c20.053-4.395 32.512-10.965 37.419-19.755 7.467-13.355 8.32-23.253 8.32-94.933 0-65.109-0.128-67.84-3.84-79.616-5.973-18.987-15.872-25.301-49.536-31.701-15.787-2.987-109.568-2.987-125.355 0-33.664 6.4-43.563 12.715-49.536 31.701-3.712 11.776-3.84 14.507-3.84 79.616 0 71.68 0.853 81.579 8.32 94.933 6.357 11.307 23.637 18.389 55.68 22.784 6.101 0.811 32.597 1.28 58.88 0.981 40.277-0.469 50.261-1.109 63.488-4.011zM249.173 394.069c-73.515-4.096-109.867-18.176-131.2-50.859-17.707-27.179-21.163-48.256-21.248-129.877-0.043-76.544 2.347-95.232 15.573-120.875 15.445-29.909 42.709-47.36 85.675-54.741 40.576-6.997 118.187-6.997 158.72 0 42.155 7.253 69.717 24.533 85.035 53.333 6.955 12.971 9.941 22.613 13.013 42.069 5.675 35.925 4.608 140.331-1.749 169.813-11.648 54.059-47.403 81.536-115.072 88.533-21.202 1.771-45.889 2.781-70.811 2.781-6.307 0-12.598-0.065-18.874-0.193l0.938 0.015zM718.507 394.069c-73.515-4.096-109.867-18.176-131.2-50.859-17.707-27.179-21.163-48.256-21.248-129.877-0.043-76.544 2.347-95.232 15.573-120.875 15.445-29.909 42.709-47.36 85.675-54.741 40.576-6.997 118.187-6.997 158.72 0 42.155 7.253 69.717 24.533 85.035 53.333 6.955 12.971 9.941 22.613 13.013 42.069 5.675 35.925 4.608 140.331-1.749 169.813-11.648 54.059-47.403 81.536-115.072 88.533-21.202 1.771-45.889 2.781-70.811 2.781-6.307 0-12.598-0.065-18.874-0.193l0.938 0.015zM347.648 325.461c20.053-4.395 32.512-10.965 37.419-19.755 7.467-13.355 8.32-23.253 8.32-94.933 0-65.109-0.128-67.84-3.84-79.616-5.973-18.987-15.872-25.301-49.536-31.701-15.787-2.987-109.568-2.987-125.355 0-33.664 6.4-43.563 12.715-49.536 31.701-3.712 11.776-3.84 14.507-3.84 79.616 0 71.68 0.853 81.579 8.32 94.933 6.357 11.307 23.637 18.389 55.68 22.784 6.101 0.811 32.597 1.28 58.88 0.981 40.277-0.469 50.261-1.109 63.488-4.011zM816.981 325.461c20.053-4.395 32.512-10.965 37.419-19.755 7.467-13.355 8.32-23.253 8.32-94.933 0-65.109-0.128-67.84-3.84-79.616-5.973-18.987-15.872-25.301-49.536-31.701-15.787-2.987-109.568-2.987-125.355 0-33.664 6.4-43.563 12.715-49.536 31.701-3.712 11.776-3.84 14.507-3.84 79.616 0 71.68 0.853 81.579 8.32 94.933 6.357 11.307 23.637 18.389 55.68 22.784 6.101 0.811 32.597 1.28 58.88 0.981 40.277-0.469 50.261-1.109 63.488-4.011z" />
<glyph unicode="&#xe923;" glyph-name="Chart" d="M297.813 906.027c-99.072-5.248-175.616-54.144-215.893-137.899-12.245-25.515-19.84-50.816-25.088-83.499-2.432-15.104-2.901-42.667-3.499-216.149-0.683-208.939 0.085-241.877 6.485-273.792 20.309-101.035 86.485-172.885 180.779-196.309 35.2-8.747 31.36-8.619 271.403-8.619s236.203-0.128 271.403 8.619c102.229 25.387 169.387 105.515 184.576 220.075 1.792 13.397 2.261 62.891 2.261 229.547 0 220.117-0.171 226.304-7.083 258.56-20.651 96.213-86.656 167.211-177.152 190.507-34.987 9.003-26.795 8.747-260.352 9.131-27.861 0.105-60.848 0.164-93.849 0.164-47.109 0-94.189-0.122-141.241-0.364l7.25 0.029zM763.008 837.632c36.053-8.96 62.208-23.339 86.059-47.317 8.491-8.533 19.2-21.205 23.808-28.203 16.043-24.192 27.989-58.496 31.787-91.179 1.195-10.411 1.579-88.363 1.152-234.027-0.597-198.528-0.896-219.563-3.541-230.4-11.477-47.104-28.885-79.019-57.899-105.856-22.272-20.608-49.109-34.432-82.261-42.325l-15.445-3.712h-469.333l-15.445 3.712c-36.395 8.661-62.805 23.083-86.955 47.36-8.491 8.533-19.2 21.205-23.808 28.203-15.616 23.552-27.605 57.387-31.616 89.173-2.389 19.243-2.389 430.635 0 449.877 5.845 46.507 25.088 87.467 55.211 117.333 27.904 27.691 61.269 43.989 102.613 50.091 5.632 0.811 113.792 1.365 240.64 1.195 228.523-0.341 230.528-0.341 245.035-3.925zM502.229 695.253c-10.112-2.347-16.853-9.685-19.157-20.693-1.28-6.272-1.707-76.117-1.408-231.68 0.469-219.221 0.512-222.805 3.883-228.523 6.187-10.539 11.307-12.971 27.008-12.971 20.907 0 29.312 5.888 32.043 22.528 1.749 10.709 1.749 437.461 0 448.171-2.389 14.421-11.307 22.485-26.624 24.021-1.434 0.127-3.101 0.199-4.786 0.199-3.876 0-7.663-0.383-11.325-1.114l0.367 0.061zM305.877 555.605c-8.609-1.126-15.779-6.402-19.517-13.722l-0.067-0.144c-2.773-5.419-2.987-16.768-2.987-163.371 0-155.605 0.043-157.568 3.499-164.395 4.48-8.704 13.952-13.355 27.52-13.397 16.683-0.085 26.752 6.357 30.293 19.285 1.451 5.163 1.835 49.621 1.493 162.432-0.512 151.765-0.597 155.435-3.925 161.109-5.803 9.856-20.309 14.72-36.309 12.203zM692.907 398.208c-5.097-2.43-9.108-6.454-11.458-11.418l-0.062-0.145c-3.797-7.595-3.84-8.192-3.84-84.693 0-53.035 0.597-78.805 1.963-82.816 4.181-12.587 13.952-18.645 29.995-18.56 13.739 0.043 23.211 4.608 27.691 13.397 3.371 6.699 3.499 9.515 3.499 86.656 0 75.947-0.171 80.043-3.371 86.699-4.48 9.301-11.563 13.227-25.472 14.123-9.344 0.597-12.544 0.043-18.944-3.243z" />
<glyph unicode="&#xe924;" glyph-name="Chat" d="M482.133 905.344c-214.997-12.885-393.856-178.773-424.064-393.344-5.675-40.32-4.949-98.56 1.749-138.027 6.784-39.893 14.464-66.347 31.573-108.587 15.531-38.357 18.517-49.195 17.323-62.933-0.512-6.229-4.565-22.784-9.003-36.907-12.331-39.040-16.043-53.461-17.195-66.901-4.608-52.821 37.973-89.088 92.117-78.464 8.021 1.579 26.325 6.656 40.704 11.264 57.685 18.603 58.027 18.56 114.048-4.053 57.387-23.211 100.565-33.323 156.843-36.736 112.853-6.784 222.976 28.544 313.344 100.48 29.399 24.242 55.3 50.887 78.045 80.109l0.845 1.128c107.051 141.952 121.685 335.701 37.248 493.141-44.049 79.944-108.409 143.947-186.236 186.348l-2.436 1.215c-54.508 29.503-118.725 48.408-186.967 52.256l-1.193 0.054c-28.203 1.749-26.837 1.749-56.747-0.043zM560.896 839.595c74.453-9.728 146.176-40.533 201.131-86.357 81.664-68.053 131.925-161.664 142.677-265.813 2.517-24.405 1.067-78.763-2.645-100.864-12.672-74.923-45.141-144.256-92.288-197.12-64.683-72.533-137.941-113.493-234.069-130.859-18.987-3.456-27.392-3.968-63.701-3.968-32.896 0-45.653 0.683-59.733 3.157-37.077 6.485-66.048 15.147-108.757 32.597-38.357 15.659-49.835 18.56-73.003 18.432-20.779-0.085-29.867-2.091-75.093-16.555-18.816-6.016-28.544-8.277-36.693-8.405l-11.093-0.213 0.299 11.947c0.213 9.344 2.347 18.432 9.899 41.728 12.288 38.101 14.763 49.92 14.763 70.912-0.043 21.675-3.499 35.2-18.219 71.296-17.323 42.411-25.387 69.035-31.744 104.491-4.352 24.32-6.101 78.464-3.328 103.253 10.624 95.019 49.237 175.531 115.584 241.024 29.371 29.77 63.715 54.54 101.701 72.981l2.192 0.96c35.672 18.051 77.118 31.173 120.847 37.108l2.033 0.226c23.893 3.285 74.624 3.285 99.243 0.043zM328.277 471.765c-10.88-1.451-20.821-6.869-25.728-14.037-8.064-11.776-9.259-36.864-2.347-50.261 6.784-13.312 18.347-19.2 37.504-19.2 16.043 0.043 23.808 2.645 32.043 10.88 8.789 8.832 11.477 17.835 10.453 35.413-0.811 14.123-6.016 25.899-13.611 30.848-8.832 5.76-24.064 8.277-38.315 6.357zM499.115 471.851c-22.059-3.072-31.915-16.085-31.957-42.155-0.043-11.563 0.683-15.445 4.139-22.187 7.381-14.336 20.523-20.139 42.624-18.859 25.387 1.451 37.333 14.464 37.333 40.661 0 14.763-1.963 22.101-8.149 30.421-7.424 9.984-24.789 14.763-43.989 12.117zM669.781 471.851c-10.667-1.493-17.835-5.12-23.552-11.904-5.803-6.912-7.936-15.147-7.936-30.805 0-25.984 12.032-39.040 37.333-40.491 22.016-1.28 35.243 4.523 42.539 18.688 3.371 6.571 4.096 10.539 4.096 22.272 0 15.829-2.816 24.789-10.112 32.427-7.893 8.277-25.131 12.245-42.368 9.813z" />
<glyph unicode="&#xe925;" glyph-name="Close-Square" d="M298.752 872.832c-57.173-5.504-104.576-27.307-142.72-65.536-17.759-17.192-32.376-37.5-42.992-60.063l-0.528-1.249c-14.464-30.379-21.931-58.325-25.344-94.891-2.389-25.856-2.517-379.264-0.085-405.333 7.979-86.571 48.043-154.283 113.451-191.829 28.56-16.708 62.358-27.739 98.446-30.665l0.84-0.055c27.648-2.517 396.672-2.603 422.955-0.085 23.893 2.261 40.405 5.632 59.733 12.203 88.448 29.995 145.195 107.051 154.368 209.579 2.389 26.411 2.389 379.776 0 406.187-3.157 35.456-10.624 63.744-24.533 93.099-10.228 22.229-23.201 41.304-38.8 57.88l0.102-0.109c-38.613 41.344-89.387 65.408-149.461 70.827-24.405 2.219-402.517 2.219-425.429 0.043zM713.984 809.813c44.885-3.755 76.544-16.853 104.789-43.435 28.587-26.88 45.099-59.221 52.779-103.339 2.901-16.64 3.115-31.787 3.115-215.040s-0.213-198.4-3.115-215.040c-7.68-44.117-24.192-76.459-52.779-103.339-28.245-26.581-59.904-39.68-104.789-43.435-26.624-2.176-377.344-2.176-403.968 0-44.885 3.755-76.544 16.853-104.789 43.435-28.587 26.88-44.203 57.429-52.821 103.339-2.859 14.976-3.072 31.232-3.072 214.187 0 219.307-0.256 213.589 11.264 248.875 21.504 65.707 75.691 107.819 146.475 113.664 24.149 2.005 382.891 2.091 406.912 0.128zM397.397 581.077c-8.235-4.352-18.133-16.128-20.309-24.192-3.84-14.165-1.963-16.811 45.824-64.939l43.733-43.989-43.733-43.947c-36.651-36.779-44.032-45.013-45.568-50.773-3.541-13.525 4.693-28.331 21.035-37.888 5.035-2.944 17.28-2.645 23.68 0.597 2.987 1.493 24.491 21.632 47.701 44.715l42.24 42.027 42.24-42.027c23.253-23.083 44.715-43.221 47.701-44.715 12.715-6.443 28.672-1.28 38.827 12.459 6.613 9.003 8.277 15.744 5.973 24.32-1.707 6.4-7.851 13.312-45.653 51.328l-43.733 43.989 41.984 42.197c23.083 23.253 43.349 44.928 45.013 48.213 1.931 3.562 3.067 7.798 3.067 12.299 0 5.803-1.887 11.165-5.080 15.507l0.051-0.073c-10.539 15.019-26.709 21.632-38.357 15.787-3.243-1.579-25.216-22.187-48.939-45.824l-43.093-42.88-43.093 42.88c-23.723 23.637-45.568 44.16-48.555 45.653-3.15 1.581-6.864 2.507-10.794 2.507-4.474 0-8.668-1.2-12.278-3.295l0.117 0.063z" />
<glyph unicode="&#xe926;" glyph-name="Danger-Circle" d="M472.747 872.747c-56.363-5.746-107.92-21.16-154.763-44.6l2.571 1.165c-69.547-35.029-133.632-94.293-173.312-160.299-84.821-141.227-81.877-317.227 7.637-453.973 17.493-26.795 31.829-44.331 55.851-68.309 23.979-24.021 41.515-38.357 68.309-55.851 65.771-43.411 146.462-69.253 233.188-69.253 59.569 0 116.291 12.192 167.807 34.216l-2.787-1.059c130.557 56.149 226.126 171.745 253.387 311.756l0.437 2.697c22.571 121.643-7.509 244.053-84.309 343.296-14.464 18.645-51.584 55.765-70.229 70.229-88.192 68.224-194.304 99.669-303.787 89.984zM562.347 807.083c52.873-8.065 100.319-25.882 142.379-51.636l-1.665 0.948c47.39-30.733 86.6-69.943 116.413-115.823l0.92-1.51c24.704-39.637 43.648-91.989 50.944-140.715 3.755-25.216 3.755-75.477 0-100.693-10.363-67.27-37.204-126.9-76.256-176.459l0.608 0.8c-17.784-21.029-36.657-39.901-56.985-57.107l-0.701-0.578c-48.759-38.444-108.389-65.285-173.553-75.38l-2.105-0.268c-25.216-3.755-75.477-3.755-100.693 0-79.872 11.989-149.12 46.763-205.696 103.296-56.533 56.576-91.307 125.824-103.296 205.696-3.755 25.216-3.755 75.477 0 100.693 17.877 119.211 90.581 220.416 196.523 273.579 47.238 24.44 103.115 38.771 162.338 38.771 17.93 0 35.553-1.313 52.778-3.849l-1.953 0.236zM504.32 640.896c-9.557-1.451-17.323-6.528-20.864-13.611-2.816-5.589-3.029-14.165-3.029-111.872 0-102.741 0.085-105.984 3.413-111.616 6.187-10.539 11.307-12.971 27.008-12.971 21.632 0 28.843 5.419 31.872 23.893 1.963 11.904 2.091 188.288 0.171 201.856-2.645 18.688-16.768 27.563-38.571 24.32zM494.165 326.101c-8.634-2.734-15.587-8.646-19.625-16.33l-0.087-0.182c-3.712-6.571-4.267-9.557-4.267-23.723 0-13.568 0.64-17.408 3.883-23.467 7.68-14.379 27.605-21.717 48.427-17.835 20.651 3.84 30.379 15.147 31.787 37.035 1.323 20.48-4.693 34.176-18.389 41.728-9.472 5.205-31.189 6.656-41.728 2.773z" />
<glyph unicode="&#xe927;" glyph-name="Danger-Triangle" d="M493.867 830.421c-31.147-4.992-61.952-24.277-79.104-49.579-10.923-16.085-316.203-549.845-320.469-560.341-5.453-13.017-8.621-28.144-8.621-44.011 0-18.862 4.477-36.678 12.425-52.444l-0.306 0.669c12.928-26.624 30.549-44.373 56.192-56.448 27.392-12.928-3.2-11.819 345.216-12.416 203.307-0.341 318.421 0.085 329.771 1.237 20.821 2.048 34.731 6.4 50.816 15.872 52.437 30.891 73.728 98.304 48.085 152.277-9.472 19.925-313.344 549.973-321.621 560.939-14.336 19.115-38.656 35.2-62.677 41.515-12.331 3.243-37.675 4.651-49.707 2.731zM537.088 761.813c6.101-2.901 13.056-7.893 16.341-11.733 3.157-3.669 75.776-129.28 161.408-279.083 122.453-214.187 156.331-274.688 158.549-283.264 2.432-9.173 2.56-12.416 0.853-20.48-4.309-20.651-17.408-36.651-35.627-43.435-9.387-3.541-9.728-3.541-328.875-3.072l-319.445 0.427-9.771 4.779c-25.813 12.672-38.187 46.165-26.496 71.509 2.304 4.992 73.472 130.005 158.165 277.845 107.563 187.733 156.117 271.019 161.067 276.096 16.811 17.28 41.088 21.248 63.829 10.411zM500.864 550.613c-7.833-1.706-14.135-7.052-17.135-14.136l-0.059-0.158c-3.029-6.656-3.243-12.288-3.243-84.011v-76.843l4.096-6.613c10.965-17.664 45.269-17.237 55.595 0.64 3.328 5.76 3.456 8.789 3.456 84.48 0 77.696-0.043 78.549-3.712 84.48-2.343 3.586-5.288 6.572-8.722 8.89l-0.11 0.070c-5.803 3.413-22.485 5.205-30.165 3.2zM492.8 295.467c-11.52-4.267-17.237-10.368-20.864-22.272-5.077-16.469-1.963-38.101 6.784-47.488 8.363-8.917 13.781-10.667 33.28-10.667s24.917 1.749 33.28 10.667c5.376 5.803 9.387 18.688 9.387 30.293 0 17.92-6.827 31.275-19.243 37.845-7.424 3.925-33.792 4.907-42.624 1.621z" />
<glyph unicode="&#xe928;" glyph-name="Delete" d="M414.933 872.747c-19.072-3.157-40.277-16.64-53.12-33.707-8.917-11.904-12.928-23.381-19.627-56.533-6.741-33.237-7.893-36.608-15.019-44.075-11.307-11.819-7.168-11.307-97.621-12.245l-81.92-0.853-6.443-4.011c-9.344-5.803-12.245-12.331-12.288-27.563-0.043-15.275 3.968-23.381 14.080-28.416 6.144-3.029 19.413-3.157 379.264-3.157 369.835 0 372.949 0.043 378.709 3.413 10.709 6.315 12.971 11.179 12.971 28.16s-2.261 21.845-12.971 28.16c-5.547 3.243-9.728 3.456-87.851 4.267l-82.048 0.853-7.125 4.693c-12.416 8.235-15.189 14.507-22.656 50.901-7.979 39.125-12.757 50.304-27.989 65.621-6.094 5.987-12.94 11.243-20.373 15.606l-0.491 0.266c-19.413 10.197-23.424 10.496-131.029 10.325-53.504-0.128-101.419-0.853-106.453-1.707zM624.213 806.699c2.837-1.958 5.239-4.305 7.195-6.998l0.059-0.085c0.896-1.749 4.693-17.621 8.363-35.285 3.669-17.707 7.211-33.536 7.893-35.157 1.109-2.816-5.547-2.987-125.995-2.987h-127.147l2.261 7.467c1.237 4.139 4.693 19.712 7.68 34.56 5.376 26.88 6.144 29.269 10.88 35.371 5.973 7.595 10.069 7.893 109.397 7.467l93.867-0.384 5.547-3.968zM205.781 585.429c-4.607-1.887-8.555-4.466-11.921-7.654l0.017 0.016c-4.693-4.693-5.291-6.443-5.803-17.579-0.981-21.803 30.72-384.256 37.248-425.643 8.533-53.931 42.667-93.568 91.861-106.709 11.179-2.987 21.035-3.669 68.523-4.864 70.869-1.792 203.861-1.792 273.067-0.043 61.227 1.579 69.632 2.987 94.336 15.744 21.477 11.921 38.669 29.277 50.061 50.241l0.328 0.66c4.011 7.979 8.789 19.883 10.624 26.453 5.717 20.096 16.768 130.773 34.987 350.165 8.576 102.912 8.533 104.021-0.725 113.323-8.661 8.619-27.648 10.965-40.789 4.992-13.227-6.016-12.928-4.181-23.424-130.005-14.165-169.216-24.533-279.424-28.971-307.627-5.547-35.328-23.765-54.144-57.216-59.093-17.237-2.56-333.184-2.56-352.384 0-31.531 4.139-49.877 21.248-56.277 52.48-3.968 19.243-16.384 149.888-30.677 323.072-9.045 109.355-8.576 105.685-13.44 112.939-7.253 10.88-23.765 14.677-39.424 9.131z" />
<glyph unicode="&#xe929;" glyph-name="Discount" d="M491.221 873.045c-22.1-3.84-41.633-12.776-58.016-25.56l0.288 0.216c-4.224-3.371-17.749-15.957-30.037-27.989-31.872-31.061-31.317-30.848-82.603-32.256-22.059-0.597-44.331-2.005-49.493-3.157-5.163-1.109-17.067-5.803-26.453-10.411-26.762-13.129-47.796-34.494-60.171-60.745l-0.331-0.78c-9.216-19.84-10.581-28.075-11.819-72.363-1.493-52.651-0.725-50.816-34.688-85.845-41.899-43.179-51.584-63.104-51.584-106.155 0-24.875 3.84-41.472 13.781-59.733 8.064-14.72 14.251-22.272 40.192-48.811 31.061-31.872 30.848-31.317 32.256-82.603 0.597-22.059 2.048-44.331 3.157-49.493 1.152-5.163 5.803-17.109 10.368-26.581 16.085-33.408 45.397-57.728 82.731-68.565 5.845-1.707 20.309-2.688 46.080-3.2 54.869-1.109 56.96-1.877 88.747-33.024 33.92-33.237 45.824-41.429 72.576-49.792 10.709-3.371 16.427-3.968 35.797-3.968s25.088 0.597 35.797 3.968c26.795 8.405 38.827 16.725 73.515 50.773 30.891 30.336 30.507 30.208 82.688 31.531 42.667 1.109 52.224 2.517 70.144 10.325 27.819 12.117 54.699 38.955 66.987 67.029 7.979 18.048 9.131 25.856 9.899 65.024 0.725 38.315 1.963 47.701 7.936 59.733 1.877 3.755 14.251 17.963 27.52 31.573 31.616 32.427 38.912 43.264 47.317 70.016 3.371 10.752 3.968 16.427 3.968 35.797s-0.597 25.088-3.968 35.797c-8.363 26.709-16.64 38.699-50.645 73.429-30.208 30.891-31.104 33.323-32.128 87.893-0.811 41.515-2.091 48.939-12.373 69.675-17.28 34.987-49.963 61.184-86.869 69.632-4.693 1.067-26.581 2.432-48.64 3.029-51.627 1.408-50.005 0.725-84.992 34.645-32.64 31.659-47.616 41.6-72.875 48.299-12.117 3.2-42.752 4.693-54.059 2.645zM530.773 807.723c12.544-3.755 19.499-8.96 45.781-34.432 28.928-27.989 41.557-36.736 63.445-43.947 9.515-3.157 16.896-3.84 52.053-4.821 44.544-1.323 51.029-2.432 64.853-11.221 9.728-6.229 15.701-12.288 21.632-22.101 7.424-12.245 8.704-20.181 9.984-63.147 1.323-43.52 2.517-50.517 11.477-68.267 7.723-15.317 14.293-23.509 39.211-49.067 26.411-27.051 31.659-35.115 34.603-53.205 0.896-5.675 0.896-13.355 0-19.029-2.944-17.963-8.149-25.984-34.517-53.12-26.283-27.051-32.768-35.371-40.704-52.309-7.808-16.683-10.027-30.677-10.112-63.403-0.128-48.555-3.328-60.757-20.395-77.653-17.365-17.195-29.397-20.352-77.739-20.48-32.725-0.085-46.72-2.304-63.403-10.112-16.939-7.936-25.259-14.421-52.309-40.704-27.136-26.368-35.157-31.573-53.12-34.517-2.859-0.428-6.158-0.672-9.515-0.672s-6.656 0.244-9.881 0.716l0.367-0.044c-17.963 2.944-25.984 8.149-53.12 34.517-25.771 25.045-34.048 31.701-49.152 39.296-17.749 8.96-24.747 10.155-68.267 11.477-44.373 1.323-51.029 2.475-64.853 11.179-16.811 10.539-27.307 27.435-29.995 48.299-0.983 11.372-1.543 24.608-1.543 37.974 0 0.915 0.003 1.83 0.008 2.744l-0.001-0.141c-0.085 52.608-6.912 68.267-48.512 111.445-29.184 30.293-34.347 38.144-36.736 55.723-0.326 2.791-0.512 6.024-0.512 9.301s0.186 6.51 0.548 9.69l-0.036-0.389c2.389 17.579 7.595 25.557 36.139 54.997 28.288 29.227 36.992 41.813 44.203 63.701 3.115 9.515 3.797 17.109 4.907 52.907 1.109 37.035 1.707 42.923 5.035 51.669 6.997 18.432 20.395 31.829 38.827 38.827 8.747 3.328 14.635 3.925 51.669 5.035 35.797 1.109 43.392 1.792 52.907 4.907 21.888 7.211 34.475 15.915 63.701 44.203 20.267 19.627 29.781 27.605 36.608 30.72 8.182 3.846 17.769 6.091 27.88 6.091 6.621 0 13.017-0.962 19.057-2.755l-0.473 0.121zM385.792 594.347c-8.448-2.816-18.304-13.355-20.651-22.101-0.927-4.959-1.458-10.664-1.458-16.493 0-2.033 0.065-4.051 0.192-6.052l-0.014 0.273c0.64-13.141 1.323-15.744 5.717-22.016 7.936-11.221 15.488-14.251 35.755-14.251 20.309 0 27.819 3.029 35.84 14.379 4.949 7.040 5.12 7.851 5.12 26.581s-0.171 19.541-5.12 26.581c-7.68 10.88-15.659 14.293-34.133 14.72-8.448 0.171-18.005-0.555-21.248-1.621zM610.133 588.075c-4.267-2.176-50.091-46.805-122.325-119.125-99.413-99.584-115.755-116.651-117.547-122.752-3.029-10.411-0.939-17.877 7.808-27.563 12.075-13.44 23.68-17.152 35.456-11.264 7.851 3.925 234.453 230.443 238.72 238.635 6.699 12.843 1.92 25.899-14.336 39.040-4.312 3.686-9.954 5.93-16.119 5.93-4.266 0-8.28-1.074-11.789-2.965l0.132 0.065zM599.125 381.013c-8.448-2.816-18.304-13.355-20.651-22.101-0.927-4.959-1.458-10.664-1.458-16.493 0-2.033 0.065-4.051 0.192-6.052l-0.014 0.273c0.64-13.141 1.323-15.744 5.717-22.016 7.936-11.221 15.488-14.251 35.755-14.251 20.309 0 27.819 3.029 35.84 14.379 4.949 7.040 5.12 7.851 5.12 26.581s-0.171 19.541-5.12 26.581c-7.68 10.88-15.659 14.293-34.133 14.72-8.448 0.171-18.005-0.555-21.248-1.621z" />
<glyph unicode="&#xe92a;" glyph-name="Discovery" d="M465.92 905.344c-88.235-5.589-171.179-37.376-244.053-93.483-21.547-16.597-61.952-57.984-78.677-80.555-15.877-20.355-30.258-43.339-42.163-67.752l-1.015-2.307c-32.085-64.512-45.653-123.136-45.653-197.035 0-67.243 12.075-123.947 39.040-182.997 63.232-138.539 191.701-233.472 345.216-255.019 25.045-3.541 94.72-2.987 120.32 0.896 49.093 7.497 93.315 21.898 133.976 42.341l-2.563-1.167c87.939 43.833 157.528 113.436 200.191 198.837l1.153 2.55c20.949 42.752 34.133 84.821 41.173 131.413 3.883 25.728 4.437 95.488 0.981 120.32-11.074 79.16-41.169 149.737-85.498 209.057l0.847-1.185c-71.168 95.317-180.523 159.147-297.088 173.397-17.641 2.186-38.060 3.433-58.77 3.433-9.644 0-19.225-0.27-28.736-0.804l1.32 0.059zM555.52 838.144c63.019-11.392 118.656-35.029 165.803-70.443 92.716-69.748 152.044-179.564 152.044-303.237 0-26.21-2.665-51.797-7.738-76.506l0.419 2.442c-24.297-117.189-100.036-212.903-202.014-263.968l-2.189-0.992c-143.36-70.955-317.909-42.752-431.147 69.717-58.709 58.24-93.867 125.909-108.8 209.323-4.352 24.149-5.205 78.72-1.707 106.283 8.824 69.079 34.987 130.774 73.949 182.242l-0.691-0.952c15.488 20.821 53.675 59.008 74.496 74.496 49.586 37.401 109.84 63.34 175.429 72.76l2.064 0.243c23.851 3.371 88.149 2.56 110.080-1.408zM546.133 612.096c-138.752-43.563-141.056-44.373-146.475-48.896-3.208-2.99-5.8-6.594-7.597-10.63l-0.083-0.208c2.219 13.387-10.163-24.52-22.24-62.563l-14.070-51.357c-37.12-118.144-37.461-119.723-29.653-133.632 2.304-4.181 6.4-9.173 9.045-11.093 10.112-7.467 15.104-6.315 134.101 31.061 60.416 18.987 112.512 35.797 115.712 37.291 6.315 3.029 12.501 10.368 15.531 18.517 1.067 2.816 16.939 53.205 35.243 111.957 35.541 113.749 36.309 117.035 30.123 130.389-5.248 11.435-10.624 15.147-22.827 15.744-9.685 0.469-18.304-1.92-96.811-26.581zM587.776 553.387c-0.683-2.133-10.624-33.621-22.016-69.973-11.435-36.395-21.291-66.645-21.888-67.243-1.621-1.664-140.032-44.885-140.885-44.032-0.427 0.384 9.173 32.384 21.333 71.125l22.059 70.357 68.224 21.589c37.504 11.904 69.632 21.717 71.339 21.803 2.475 0.171 2.816-0.555 1.835-3.627z" />
<glyph unicode="&#xe92b;" glyph-name="Document" d="M322.944 872.661c-93.653-8.149-165.888-70.059-187.136-160.427-7.381-31.275-7.808-45.739-7.765-263.381 0.043-205.44 0.555-226.944 6.101-254.208 17.152-84.437 78.677-146.475 162.56-163.883 23.936-4.992 59.989-5.973 217.856-5.973 162.901 0 194.304 0.939 221.653 6.656 85.717 18.005 146.859 82.859 162.603 172.501 2.944 16.811 3.157 31.957 3.157 245.76 0 212.821-0.213 229.035-3.115 245.76-8.149 46.976-28.075 86.571-59.221 117.717-35.157 35.157-77.739 54.315-132.821 59.733-21.888 2.176-358.699 1.92-383.872-0.256zM696.32 809.771c75.093-6.613 122.197-47.019 138.496-118.869l3.84-16.768 0.597-210.773c0.64-219.989 0.256-235.52-6.571-262.955-8.558-33.935-27.892-62.462-54.083-82.467l-0.359-0.263c-16.512-12.331-45.312-23.083-70.571-26.411-9.344-1.237-75.221-1.664-201.643-1.323l-187.733 0.512-16.939 4.779c-24.619 6.912-44.373 17.707-61.099 33.408-23.381 21.973-36.053 45.269-44.203 81.408l-3.84 16.939-0.64 204.8c-0.683 213.376-0.043 241.067 6.272 265.813 7.467 29.141 19.925 51.669 39.211 70.741 24.747 24.533 56.661 38.016 98.219 41.429 24.149 1.963 338.475 1.963 361.045 0zM345.259 652.672c-19.371-9.6-19.285-46.677 0.128-56.107 6.955-3.371 10.069-3.499 75.904-3.499 54.315 0 69.76 0.469 74.112 2.347 23.296 9.941 21.803 52.437-2.091 59.093-3.499 0.981-34.347 1.707-73.472 1.707-64.853 0-67.669-0.128-74.581-3.541zM351.787 477.013c-14.763-3.499-21.12-13.696-20.352-32.725 0.597-14.72 3.413-20.224 13.483-26.155 5.675-3.328 9.387-3.413 160.256-3.968 84.949-0.299 160-0.043 166.784 0.597 21.248 1.877 29.781 10.88 29.781 31.317 0 17.835-6.528 27.52-20.779 30.805-9.173 2.091-320.256 2.219-329.173 0.128zM348.971 297.728c-11.477-3.371-17.92-14.208-17.835-30.165 0.043-14.293 4.736-23.595 13.995-27.776 7.040-3.243 12.544-3.328 170.453-3.371 117.845-0.043 164.779 0.512 168.96 1.92 12.416 4.139 17.024 11.989 17.109 28.928 0.043 15.573-3.669 23.211-13.909 28.416l-7.509 3.84-163.029-0.171c-89.685-0.085-165.419-0.811-168.235-1.621z" />
<glyph unicode="&#xe92c;" glyph-name="Download" d="M507.733 846.251c-9.088-2.475-14.933-6.656-18.432-13.227l-3.755-6.997-0.939-446.976-38.784 38.656c-21.333 21.248-40.96 39.424-43.605 40.405-11.563 4.395-23.893 0.043-34.261-12.075-10.752-12.587-11.349-24.448-1.92-37.205 7.296-9.899 132.693-135.040 138.197-137.899 3.732-1.658 8.085-2.624 12.664-2.624 5.047 0 9.82 1.173 14.062 3.262l-0.187-0.083c3.285 1.792 36.011 33.621 72.704 70.699 73.472 74.24 74.624 75.733 70.699 90.283-3.541 13.184-20.352 27.477-32.299 27.477-3.563-0.111-6.935-0.774-10.084-1.906l0.228 0.072c-2.645-0.981-22.272-19.157-43.605-40.405l-38.784-38.656-0.939 448.683-3.712 5.973c-2.343 3.586-5.288 6.572-8.722 8.89l-0.11 0.070c-5.205 3.072-22.315 5.205-28.416 3.584zM244.608 641.749c-37.504-6.827-76.288-28.117-102.997-56.576-26.57-28.426-44.454-65.275-49.239-106.127l-0.084-0.881c-2.432-21.931-2.432-229.547 0-251.477 9.003-80.683 66.432-144.085 148.352-163.755 11.947-2.859 29.269-3.115 266.24-3.627 263.68-0.64 273.451-0.427 299.008 6.571 27.392 7.467 61.312 27.435 82.389 48.512 21.291 21.248 41.259 55.296 48.555 82.731 6.272 23.552 6.955 38.699 6.955 156.117 0 121.6-0.64 132.949-8.491 158.336-21.163 68.096-80.512 119.851-150.229 130.901-6.101 0.981-27.051 1.792-46.592 1.792-37.803 0-40.789-0.555-48.384-8.789-8.064-8.747-9.259-30.549-2.304-42.027 6.272-10.283 10.453-11.264 52.907-12.459 35.2-0.981 39.552-1.451 52.053-5.547 34.901-11.435 65.28-39.808 78.080-72.832 9.088-23.509 8.96-21.12 8.96-150.187 0-110.507-0.256-121.387-3.115-133.589-10.453-44.629-48.213-82.389-92.843-92.843-12.544-2.944-27.307-3.115-267.563-3.115-286.123 0-263.851-0.981-292.437 13.099-16.427 8.149-38.613 27.861-49.109 43.648-7.992 12.364-14.155 26.774-17.663 42.194l-0.172 0.9c-3.456 15.872-3.584 243.2-0.128 258.56 10.003 44.468 42.069 79.658 83.833 93.898l0.903 0.267c12.544 4.096 16.768 4.565 52.053 5.504 34.432 0.939 38.997 1.365 44.331 4.48 9.344 5.547 12.843 13.141 12.843 28.117 0 15.104-3.115 21.675-12.885 27.136-5.931 3.371-8.789 3.584-43.648 3.413-22.528-0.085-42.197-1.024-49.579-2.347z" />
<glyph unicode="&#xe92d;" glyph-name="Edit-Square" d="M745.515 873.045c-21.022-3.513-39.674-11.695-55.511-23.454l0.343 0.243c-5.632-4.011-86.741-84.011-180.267-177.707-181.931-182.315-176.853-176.768-185.728-202.581-5.504-15.957-6.656-32.043-8.789-122.453l-2.048-86.4 3.755-7.808c2.14-5.075 6.039-9.057 10.916-11.253l0.134-0.054c7.040-3.413 9.856-3.499 98.944-3.499 76.331 0 93.909 0.427 104.875 2.645 14.336 2.944 29.867 9.472 42.539 17.963 11.093 7.381 343.552 339.413 352.981 352.469 18.389 25.472 25.685 50.987 24.235 85.035-1.451 33.92-10.624 56.192-34.261 83.029-15.701 17.835-56.832 58.197-69.333 67.968-12.735 9.7-27.64 17.365-43.782 22.152l-0.975 0.248c-14.037 3.968-45.099 5.803-58.027 3.456zM301.227 871.125c-57.131-5.845-106.923-28.715-144.213-66.347-40.789-41.088-63.701-93.269-69.845-158.805-2.475-26.837-2.517-385.28 0-413.568 5.547-62.507 28.075-114.944 66.901-155.776 32.469-34.133 73.771-55.893 126.677-66.773 12.16-2.517 37.291-2.901 228.693-3.456 223.701-0.64 231.509-0.469 261.163 6.528 88.107 20.779 151.979 85.419 173.44 175.445 7.467 31.445 8.192 45.184 8.192 152.96 0 97.792-0.128 102.741-3.328 109.696-4.224 9.344-13.483 13.952-28.032 13.995-12.544 0.043-22.784-4.523-27.477-12.288-3.243-5.376-3.413-9.984-4.395-114.816-0.939-103.979-1.152-110.037-4.693-125.867-9.643-43.136-26.965-74.667-54.443-99.157-23.68-21.12-45.653-31.957-80.683-39.851-11.477-2.56-33.707-2.901-219.264-3.499-214.784-0.64-226.219-0.341-253.056 6.528-62.549 16-107.989 65.536-122.496 133.589-5.333 25.045-6.144 60.117-5.504 247.723 0.597 169.728 0.896 187.435 3.669 202.24 14.507 77.184 60.459 128.043 130.475 144.256 19.883 4.651 48.427 5.888 133.291 5.931 80.597 0 84.693 0.171 91.349 3.371 9.301 4.48 13.227 11.563 14.123 25.472 0.981 15.104-3.797 24.917-14.805 30.464l-7.637 3.84-92.203-0.213c-50.731-0.128-98.389-0.853-105.899-1.621zM786.773 807.723c15.872-4.779 23.168-10.411 56.448-43.776 36.224-36.352 40.832-42.837 44.629-63.189 2.475-13.397-0.128-30.507-6.571-43.264-2.603-5.163-11.605-16.043-21.76-26.411l-17.28-17.664-150.187 150.443 18.261 17.92c20.139 19.712 29.824 25.472 46.848 27.733 11.008 1.493 20.523 0.939 29.611-1.792zM722.347 642.987l74.667-74.709-128.427-128.213c-82.944-82.859-130.859-129.451-135.253-131.627-13.013-6.443-22.699-7.211-89.685-7.211h-64.768l0.085 24.32c0.085 13.355 0.768 44.672 1.493 69.547 1.237 40.704 1.792 46.251 5.205 55.467 3.669 9.813 9.216 15.616 132.053 138.667 70.528 70.613 128.597 128.427 129.109 128.427 0.469 0 34.475-33.621 75.52-74.667z" />
<glyph unicode="&#xe92e;" glyph-name="Edit" d="M601.088 862.677c-24.125-3.24-45.551-12.868-63.081-27.106l0.233 0.183c-7.467-6.016-62.336-73.387-216.875-266.581-113.792-142.208-209.195-262.912-212.096-268.245-10.88-20.139-14.891-40.704-11.947-61.312 2.389-17.067 37.035-162.901 40.021-168.747 3.328-6.4 10.112-11.605 17.749-13.568 8.917-2.261 177.792 0.725 188.8 3.371 7.332 1.994 13.571 4.28 19.558 7.021l-0.785-0.322c23.68 10.837 19.797 6.357 190.677 220.203 88.107 110.293 163.925 205.141 168.491 210.773 54.357 67.157 89.259 112.64 94.464 123.008 9.173 18.261 12.075 31.019 12.032 52.779 0 22.827-2.987 35.371-13.269 56.32-9.216 18.435-22.375 33.671-38.452 45.060l-0.375 0.252c-6.699 4.864-27.605 20.907-46.464 35.584-40.704 31.744-47.701 36.651-59.819 42.027-15.425 6.527-33.361 10.32-52.182 10.32-5.88 0-11.673-0.37-17.358-1.088l0.676 0.070zM643.413 795.008c6.101-2.731 55.936-40.149 101.163-75.904 18.56-14.677 25.771-47.531 14.976-68.267-3.627-6.912-60.843-79.957-62.677-79.957-0.469 0-41.515 31.232-91.179 69.376-80.427 61.696-90.112 69.632-88.021 72.107 1.28 1.493 14.763 18.304 29.952 37.291 28.501 35.669 34.432 41.216 50.261 46.848 11.819 4.224 34.517 3.499 45.525-1.493zM567.253 589.184l89.515-68.693c0.299-0.256-69.419-88.064-154.923-195.072-148.821-186.325-155.861-194.816-164.736-199.168l-9.301-4.565-137.984-1.877-1.792 8.363c-18.278 87.143-23.364 108.202-28.519 129.234l13.799-66.599c-7.083 29.867-12.885 57.984-12.885 62.464 0 5.248 1.365 10.667 3.84 15.147 5.845 10.667 310.699 391.125 312.491 389.973 0.853-0.512 41.6-31.659 90.496-69.205zM577.365 118.528c-15.915-3.157-21.76-11.349-21.803-30.635-0.043-14.976 3.413-22.571 12.8-28.117 5.845-3.413 8.021-3.456 172.331-3.456 164.821 0 166.443 0.043 173.099 3.541 9.387 4.907 13.44 13.312 13.44 28.032 0 18.219-7.723 28.203-23.893 30.891-10.923 1.792-316.8 1.579-325.973-0.256z" />
<glyph unicode="&#xe92f;" glyph-name="Filter-3" d="M180.053 862.677c-36.693-4.907-69.12-33.408-80.512-70.784-4.309-14.208-4.309-80.384 0.043-99.84 3.712-16.555 15.445-40.875 25.941-53.803 4.565-5.589 55.936-60.8 114.176-122.709 58.24-61.867 109.995-117.547 114.944-123.733 11.563-14.336 22.485-34.389 29.227-53.675 10.027-28.672 10.368-33.536 10.368-151.381 0-70.741 0.64-110.165 1.835-115.883 3.883-18.005 19.755-33.749 37.888-37.504 16.64-3.456 21.931-1.365 90.368 35.968 34.603 18.859 66.688 37.12 71.253 40.576 9.429 7.040 20.011 19.755 25.429 30.421 7.979 15.787 8.747 23.125 8.747 84.864 0 31.957 0.853 65.024 1.877 73.472 4.523 36.693 21.205 75.008 43.904 100.693 3.328 3.755 52.992 56.747 110.336 117.76s108.032 115.541 112.597 121.131c11.518 15.273 20.44 33.238 25.69 52.71l0.251 1.093c4.352 19.328 4.352 85.547 0 99.84-10.455 32.5-35.348 57.673-66.926 68.305l-0.744 0.217c-8.96 3.029-23.637 3.157-337.92 3.371-180.693 0.128-333.141-0.384-338.773-1.109zM844.971 795.605c4.139-2.176 9.813-7.253 12.629-11.221l5.12-7.296 0.512-32.085c0.597-35.584-0.683-43.179-9.941-59.307-4.309-7.552-64.341-72.363-212.181-229.163-34.603-36.693-55.893-74.197-66.688-117.504-6.656-26.795-7.808-42.027-7.808-103.765 0-65.835-0.512-69.12-11.349-75.861-3.243-2.005-26.027-14.635-50.603-28.032l-44.715-24.448-0.981 96.725c-0.683 65.109-1.707 100.907-3.115 109.525-7.253 43.477-22.187 79.317-47.232 113.493-4.821 6.571-34.389 39.211-65.749 72.533l-112.085 119.211c-31.189 33.152-57.301 62.421-60.16 67.413-9.173 16-10.453 23.637-9.856 59.179l0.512 32.085 5.12 7.296c2.816 3.968 8.491 9.045 12.629 11.221l7.552 3.968h650.837l7.552-3.968z" />
<glyph unicode="&#xe930;" glyph-name="Filter" d="M247.083 797.909c-45.696-8.32-85.76-42.667-101.163-86.741-8.064-23.083-8.747-58.197-1.579-82.261 11.435-38.272 46.208-73.515 85.589-86.699 12.117-4.053 15.701-4.437 41.429-4.48 26.155-0.043 29.141 0.256 41.813 4.565 20.523 6.912 33.92 15.616 52.139 33.707 18.389 18.347 27.648 33.749 34.304 57.259 5.376 18.987 5.376 50.432 0 69.547-12.752 43.955-46.248 78.029-88.907 91.35l-0.949 0.255c-13.355 4.181-48.213 6.144-62.677 3.499zM296.363 731.051c18.432-6.869 35.499-25.088 40.875-43.648 4.181-14.293 2.731-34.347-3.456-47.872-6.443-14.080-22.357-29.227-36.267-34.56-7.576-3.068-16.364-4.848-25.567-4.848-27.9 0-51.979 16.358-63.169 40.007l-0.181 0.425c-5.845 12.715-7.125 32.683-3.029 46.763 3.243 11.093 14.336 27.179 23.68 34.304 11.583 8.762 26.23 14.035 42.109 14.035 8.989 0 17.584-1.69 25.484-4.77l-0.478 0.164zM543.232 693.632c-19.413-9.643-19.285-46.677 0.171-56.107 7.296-3.541 8.576-3.541 153.088-3.115 158.72 0.512 151.595 0.043 159.019 10.112 7.125 9.643 7.381 31.019 0.512 41.216-7.467 11.093 0.811 10.539-159.701 11.008-144.981 0.469-145.963 0.427-153.088-3.115zM718.677 381.483c-25.941-7.040-43.861-18.048-63.829-39.253-14.365-15.471-25.22-34.406-31.17-55.402l-0.233-0.961c-4.395-16.939-3.968-49.92 0.896-67.072 12.459-44.075 45.739-77.781 90.795-91.904 10.923-3.413 16.299-4.011 37.504-4.011s26.581 0.597 37.504 4.011c39.296 12.331 70.656 40.661 85.547 77.184 6.741 16.555 8.875 29.013 8.704 51.072-0.256 37.376-10.837 63.061-37.035 89.685-17.451 17.792-33.024 27.819-53.291 34.432-18.773 6.144-56.661 7.253-75.392 2.219zM771.541 318.976c27.412-7.91 47.407-32.051 49.016-61.095l0.008-0.174c0.896-17.28-2.517-29.568-11.776-42.453-13.952-19.541-32.171-28.885-56.149-28.885-0.42-0.009-0.915-0.015-1.411-0.015-23.322 0-43.867 11.888-55.907 29.935l-0.154 0.245c-12.245 17.835-14.421 45.056-5.12 65.067 6.359 12.298 15.31 22.45 26.186 30.032l0.267 0.176c14.933 9.259 37.717 12.245 55.040 7.168zM157.867 281.6c-12.715-4.523-19.157-17.28-17.365-34.517 1.152-11.392 5.461-18.731 13.44-22.827 6.101-3.115 12.117-3.243 152.533-3.243 145.195 0 146.219 0.043 152.533 3.584 9.771 5.461 12.885 12.032 12.885 27.136 0 14.976-3.499 22.571-12.843 28.117-5.845 3.413-8.533 3.456-150.144 3.84-121.259 0.299-145.28-0.043-151.040-2.091z" />
<glyph unicode="&#xe931;" glyph-name="Folder" d="M256 892.544c-97.323-13.909-159.104-70.827-180.736-166.613-9.6-42.539-9.216-31.872-9.941-255.744-0.725-211.243-0.469-221.611 5.76-253.227 19.413-98.944 86.187-169.131 183.381-192.896 37.931-9.259 45.824-9.557 250.325-9.557 118.059 0 194.432 0.64 204.843 1.749 68.779 7.339 120.917 30.421 162.304 71.808 41.515 41.515 64.811 94.379 71.765 162.816 2.773 27.435 3.115 284.544 0.427 306.347-15.189 122.24-68.437 183.936-176.128 204.032-13.653 2.56-30.592 3.2-106.667 4.096-88.277 1.067-90.667 1.195-100.096 4.907-14.165 5.632-23.211 14.635-48.811 48.64-11.188 15.065-20.727 27.232-30.53 39.174l1.432-1.798c-11.776 13.013-32.981 26.069-54.997 33.92-10.837 3.883-12.587 3.968-83.584 4.309-53.504 0.256-76.8-0.256-88.747-1.963zM416.427 826.709c14.251-6.699 18.688-11.264 45.995-47.445 32.469-42.965 44.757-54.4 71.339-66.133 21.035-9.301 23.68-9.557 119.893-10.837 97.195-1.28 104.747-1.92 133.845-11.733 39.509-13.269 64.811-38.144 79.36-78.165 6.016-16.427 11.221-40.235 13.781-62.848 2.517-22.101 2.389-261.589-0.171-289.28-5.632-61.568-27.861-107.861-66.816-139.008-30.037-24.064-66.261-37.333-113.92-41.771-26.667-2.475-362.453-2.475-389.12 0-100.949 9.387-161.792 63.445-178.603 158.677-2.944 16.683-3.157 31.104-3.157 221.781 0 211.755 0.085 214.272 7.125 245.76 15.872 71.168 51.584 108.331 116.352 121.216 23.765 4.693 22.528 4.651 91.563 4.437l63.147-0.213 9.387-4.437zM302.123 370.816c-10.667-5.419-14.080-12.032-14.165-27.648-0.085-13.952 2.816-20.949 11.264-27.264l4.821-3.584 198.955-0.469c195.797-0.427 199.083-0.384 205.995 2.944 10.581 5.163 13.781 11.776 13.781 28.544 0 15.104-1.963 19.584-11.733 26.923-4.693 3.499-5.76 3.499-203.008 3.968l-198.272 0.427-7.637-3.84z" />
<glyph unicode="&#xe932;" glyph-name="Game" d="M335.744 905.472c-19.456-3.84-26.368-18.517-21.76-45.995 5.632-33.323 32.469-62.251 65.835-70.955 7.168-1.877 18.603-2.603 40.277-2.603 31.659 0 43.989-1.621 54.955-7.168 8.448-4.267 20.395-16.256 24.789-24.832 3.84-7.509 7.936-28.032 6.4-32-0.811-2.219-11.264-2.56-77.397-2.645-88.32-0.128-138.624-1.92-159.232-5.675-107.733-19.669-188.245-96.725-209.792-200.789-6.144-29.611-7.296-60.971-6.443-177.237 0.811-110.293 1.408-121.643 7.979-146.987 19.627-76.032 66.645-134.997 134.016-168.149 27.989-13.739 48.341-20.181 81.109-25.728 37.333-6.272 433.536-6.272 471.040 0 32.683 5.504 53.12 11.989 81.109 25.728 74.667 36.736 123.989 104.789 138.624 191.189 3.285 19.541 5.163 218.155 2.389 257.92-2.901 41.899-10.752 72.619-26.965 105.472-36.181 73.259-104.064 123.221-188.288 138.581-18.603 3.413-69.163 5.547-133.589 5.675l-50.773 0.085v10.325c0 44.544-27.563 87.381-69.12 107.435-19.755 9.557-34.091 11.947-71.253 11.947-29.056 0-31.829 0.256-38.869 3.84-9.429 4.779-13.269 11.349-14.72 25.045-1.237 11.947-5.547 19.712-13.397 24.149-6.272 3.584-18.304 5.077-26.923 3.371zM739.157 651.392c45.568-8.192 81.749-26.283 110.805-55.296 25.984-26.027 40.619-52.565 51.413-93.483 3.797-14.293 3.883-16.256 4.437-139.947 0.512-107.52 0.213-127.872-2.091-142.336-11.52-73.003-60.416-130.816-129.749-153.472-39.296-12.843-54.144-13.525-286.080-12.672-205.781 0.768-199.637 0.469-234.88 11.733-60.843 19.456-104.96 62.549-124.885 121.984-10.283 30.72-10.581 36.139-9.941 174.763 0.555 123.691 0.64 125.653 4.437 139.947 10.795 40.917 25.429 67.456 51.413 93.483 27.605 27.563 62.251 45.525 105.003 54.443 21.035 4.352 78.507 5.333 269.653 4.693 160.597-0.555 173.611-0.811 190.464-3.84zM365.227 464.896c-3.833-1.305-7.15-3.177-10.040-5.548l0.056 0.044c-8.064-7.467-8.789-11.051-8.789-42.752v-29.824l-32.299-0.555c-35.328-0.597-36.821-1.024-45.184-12.245-5.205-6.912-5.888-25.472-1.365-35.755 5.589-12.629 9.387-13.867 46.421-14.848l31.573-0.853 0.853-31.573c0.981-36.437 2.261-39.979 16.256-45.312 9.941-3.84 28.203-2.645 34.731 2.219 9.984 7.467 11.264 12.203 11.861 45.141l0.555 30.165 32.171 0.555c35.755 0.555 38.016 1.237 45.056 13.269 4.864 8.235 4.48 28.373-0.64 36.693-6.699 10.795-10.709 11.904-45.568 12.544l-31.019 0.555-0.555 30.165c-0.64 33.664-2.091 38.827-13.013 45.184-6.528 3.84-22.656 5.248-31.061 2.731zM637.44 459.691c-12.032-4.437-17.963-14.336-17.877-29.995 0.085-21.845 9.984-31.189 33.067-31.189 20.949 0 30.123 5.845 33.621 21.376 3.669 16.512-1.408 31.957-12.459 37.717-6.784 3.541-28.971 4.821-36.352 2.091zM720.043 308.053c-16.512-2.859-22.869-11.392-22.869-30.72 0-14.848 3.243-21.888 12.715-27.776 4.821-2.987 8.576-3.669 20.48-3.669 19.755-0.043 27.819 4.395 32.256 17.621 5.12 15.147-0.213 35.456-10.837 41.344-6.315 3.499-21.291 5.035-31.744 3.2z" />
</font>
</defs>
</svg>
